<?xml version="1.0" standalone="no"?>
<!DOCTYPE svg PUBLIC "-//W3C//DTD SVG 1.1//EN" "http://www.w3.org/Graphics/SVG/1.1/DTD/svg11.dtd" >
<svg>
<metadata>
Created by FontForge 20090914 at Fri Feb 24 14:10:06 2012
 By root
Copyright 2003, 2009 B. Jackowski and J. M. Nowacki (on behalf of TeX users groups). This work is released under the GUST Font License --  see http://tug.org/fonts/licenses/GUST-FONT-LICENSE.txt for details.
</metadata>
<defs>
<font id="LMSans17-Regular" horiz-adv-x="470" >
  <font-face 
    font-family="LMSans17"
    font-weight="400"
    font-stretch="normal"
    units-per-em="1000"
    panose-1="0 0 5 0 0 0 0 0 0 0"
    ascent="805"
    descent="-195"
    x-height="430"
    cap-height="694"
    bbox="-395 -305 1355 1159"
    underline-thickness="60"
    underline-position="-192"
    stemh="61"
    stemv="76"
    unicode-range="U+0020-U+FB04"
  />
<missing-glyph horiz-adv-x="280" 
 />
    <glyph glyph-name="f_f" unicode="ff" horiz-adv-x="549" 
d="M327 628c-11 4 -40 13 -75 13c-34 0 -86 -14 -86 -83v-128h105v-58h-103v-372h-74v372h-69v58h69v97c0 100 67 175 159 175c33 0 63 -6 74 -8v-66zM587 628c-11 4 -40 13 -75 13c-34 0 -86 -14 -86 -83v-128h105v-58h-103v-372h-74v527c0 100 67 175 159 175
c33 0 63 -6 74 -8v-66z" />
    <glyph glyph-name="f_f_i" unicode="&#xfb00;i" horiz-adv-x="764" 
d="M691 615h-80v80h80v-80zM688 0h-74v430h74v-430zM537 372h-109v-372h-74v529c0 97 53 173 128 173c29 0 37 -2 55 -7v-68c-12 7 -33 14 -55 14c-32 0 -56 -27 -56 -80v-131h111v-58zM300 628c-23 10 -47 13 -64 13c-29 0 -70 -15 -70 -82v-129h111v-58h-109v-372h-74v372
h-69v58h69v98c0 99 60 174 142 174c34 0 38 -1 64 -8v-66z" />
    <glyph glyph-name="f_f_l" unicode="ffl" horiz-adv-x="764" 
d="M300 628c-23 10 -47 13 -64 13c-29 0 -70 -15 -70 -82v-129h111v-58h-109v-372h-74v372h-69v58h69v98c0 99 60 174 142 174c34 0 38 -1 64 -8v-66zM688 0h-74v694h74v-694zM537 372h-109v-372h-74v529c0 97 53 173 128 173c24 0 47 -6 55 -8v-66c-3 2 -28 13 -55 13
c-32 0 -56 -27 -56 -80v-131h111v-58z" />
    <glyph glyph-name="f_i" unicode="fi" horiz-adv-x="503" 
d="M430 615h-80v80h80v-80zM427 0h-74v430h74v-430zM277 372h-109v-372h-74v372h-69v58h69v99c0 97 53 173 128 173c24 0 47 -6 55 -8v-67c-17 9 -36 14 -55 14c-32 0 -56 -27 -56 -80v-131h111v-58z" />
    <glyph glyph-name="f_l" unicode="fl" horiz-adv-x="503" 
d="M277 372h-109v-372h-74v372h-69v58h69v99c0 97 53 173 128 173c24 0 47 -6 55 -8v-66c-3 2 -28 13 -55 13c-32 0 -56 -27 -56 -80v-131h111v-58zM427 0h-74v694h74v-694z" />
    <glyph glyph-name="I_J" unicode="IJ" horiz-adv-x="676" 
d="M171 0h-84v694h84v-694zM598 149c0 -109 -68 -165 -165 -165c-42 0 -99 9 -161 42l13 73c27 -30 70 -54 121 -54c90 0 110 59 110 107v542h82v-545z" />
    <glyph glyph-name="i_j" unicode="ij" horiz-adv-x="449" 
d="M153 564h-84v84h84v-84zM374 564h-84v84h84v-84zM148 0h-74v430h74v-430zM374 -60c0 -89 -56 -143 -119 -143c-42 0 -81 14 -113 34l15 61c23 -24 49 -31 71 -31c26 0 72 9 72 70v499h74v-490z" />
    <glyph glyph-name="f_k" unicode="fk" horiz-adv-x="747" 
d="M277 372h-109v-372h-74v372h-69v58h69v99c0 97 53 173 128 173c24 0 47 -6 55 -8v-66c-3 2 -28 13 -55 13c-32 0 -56 -27 -56 -80v-131h111v-58zM721 0h-85l-141 211l-67 -71v-140h-73v694h74v-450l175 186h96l-155 -165z" />
    <glyph glyph-name=".notdef" horiz-adv-x="280" 
 />
    <glyph glyph-name="acute.dup" 
d="M368 694l-139 -176h-61l124 176h76z" />
    <glyph glyph-name="AE.dup" horiz-adv-x="809" 
d="M769 0h-376v222h-206l-85 -222h-76l265 694h465v-65h-143c-12 0 -24 1 -36 1h-101v-239h254v-61h-254v-263c11 1 31 1 107 1l186 1v-69zM393 278v352h-50l-134 -352h184z" />
    <glyph glyph-name="ae.dup" horiz-adv-x="679" 
d="M652 219h-275c1 -99 61 -166 132 -166c36 0 87 12 132 52c0 -4 3 -37 3 -37s3 -23 3 -27c-43 -34 -93 -49 -139 -49c-93 0 -148 66 -152 71c-26 -35 -66 -48 -89 -55c-51 -16 -112 -16 -116 -16c-91 0 -109 90 -109 124c0 96 148 130 259 130v36c0 64 -34 101 -82 101
c-62 0 -104 -21 -141 -47l-6 66c59 35 112 40 148 40c63 0 106 -30 133 -71c42 51 96 71 140 71c159 0 159 -190 159 -223zM585 274c-11 80 -54 107 -92 107c-44 0 -91 -39 -109 -107h201zM305 125c0 17 0 32 -2 50l-1 17c-43 -2 -187 -9 -187 -75c0 -34 32 -64 83 -64
c9 0 107 0 107 72z" />
    <glyph glyph-name="cedilla.dup" horiz-adv-x="418" 
d="M265 -18l-62 -168h-68l69 168h61z" />
    <glyph glyph-name="circumflex.dup" 
d="M390 520h-59l-96 123l-96 -123h-59l125 172h60z" />
    <glyph glyph-name="dieresis.dup" 
d="M203 569h-76v75h76v-75zM343 569h-76v75h76v-75z" />
    <glyph glyph-name="Gcedilla" horiz-adv-x="627" 
d="M558 41c-62 -33 -129 -49 -197 -49c-82 0 -158 40 -212 103c-59 69 -88 158 -88 248c0 91 29 180 88 249c54 63 130 103 212 103c33 0 65 -3 98 -11c32 -8 62 -21 91 -37l-14 -80c-25 20 -52 38 -82 49s-61 15 -93 15c-61 0 -116 -36 -152 -84c-45 -58 -64 -131 -64 -204
c0 -72 19 -144 64 -203c36 -49 91 -84 152 -84c41 0 82 6 121 19v154h-121v62h197v-250zM350 -129l-37 -113h-36l23 112h-22v72h72v-71z" />
    <glyph glyph-name="gcedilla" 
d="M239 714l-23 -112h22v-72h-72v71l37 113h36zM456 376c-28 3 -31 4 -63 4c-15 0 -57 -3 -60 -3h-3c9 -12 31 -47 31 -95c0 -86 -69 -156 -152 -156c-41 0 -72 17 -87 28c0 0 -10 -14 -10 -34c0 -51 40 -51 55 -51h81c42 0 195 -1 195 -139c0 -74 -91 -134 -209 -134
c-117 0 -208 60 -208 133c0 19 7 68 59 100c-11 14 -25 39 -25 74c0 30 10 57 28 82c-2 2 -32 43 -32 97c0 84 66 156 153 156c23 0 57 -5 90 -31c40 19 89 30 146 31zM290 282c0 80 -48 101 -82 101c-26 0 -81 -14 -81 -101c0 -80 48 -101 82 -101c26 0 81 14 81 101z
M372 -72c0 68 -101 68 -125 68h-81c-69 0 -69 -62 -69 -67c0 -45 62 -78 138 -78c75 0 137 34 137 77z" />
    <glyph glyph-name="germandbls.dup" horiz-adv-x="451" 
d="M424 174c0 -103 -73 -182 -166 -182c-39 0 -75 12 -82 15l22 58c29 -12 57 -12 60 -12c49 0 91 41 91 121c0 100 -54 193 -148 195v61c85 2 122 65 122 120c0 60 -41 91 -87 91c-8 0 -87 0 -87 -98v-543h-74v545c0 103 85 157 161 157c90 0 162 -68 162 -152
c0 -45 -20 -109 -89 -151c38 -25 115 -99 115 -225z" />
    <glyph glyph-name="hyphen.dup" horiz-adv-x="313" 
d="M260 186h-250v58h250v-58z" />
    <glyph glyph-name="Kcedilla" horiz-adv-x="651" 
d="M611 0h-93l-225 358l-121 -133v-225h-84v694h84v-363l330 363h96l-249 -275zM362 -129l-37 -113h-36l23 112h-22v72h72v-71z" />
    <glyph glyph-name="kcedilla" horiz-adv-x="458" 
d="M441 0h-85l-141 211l-67 -71v-140h-73v694h74v-450l175 186h96l-155 -165zM266 -129l-37 -113h-36l23 112h-22v72h72v-71z" />
    <glyph glyph-name="Lcedilla" horiz-adv-x="509" 
d="M469 0h-381v694h84v-630h53c12 0 24 1 36 1h208v-65zM291 -129l-37 -113h-36l23 112h-22v72h72v-71z" />
    <glyph glyph-name="lcedilla" horiz-adv-x="223" 
d="M148 0h-74v694h74v-694zM148 -129l-37 -113h-36l23 112h-22v72h72v-71z" />
    <glyph glyph-name="macron.dup" 
d="M405 574h-339v64h339v-64z" />
    <glyph glyph-name="Ncedilla" horiz-adv-x="663" 
d="M574 0h-123l-18 37l-214 465l-52 116l-1 -1v-617h-78v694h123l18 -37l214 -465l52 -116l1 1v617h78v-694zM368 -129l-37 -113h-36l23 112h-22v72h72v-71z" />
    <glyph glyph-name="ncedilla" horiz-adv-x="484" 
d="M409 0h-76v284c0 34 -3 93 -91 93c-68 0 -92 -72 -92 -135v-242h-76v433h73v-62c28 34 70 67 134 67c113 0 128 -83 128 -146v-292zM279 -129l-37 -113h-36l23 112h-22v72h72v-71z" />
    <glyph glyph-name="OE.dup" horiz-adv-x="913" 
d="M873 0h-385c-14 0 -29 0 -69 -7c-41 -6 -59 -9 -81 -9c-166 0 -313 154 -313 362c0 205 144 364 313 364c15 0 30 -1 79 -9c41 -7 58 -7 71 -7h372v-65l-335 1v-239h309v-61h-309v-263l348 2v-69zM443 348c0 84 0 178 -4 210c-7 57 -20 91 -99 91
c-126 0 -233 -123 -233 -290c0 -170 101 -314 233 -314c80 0 91 35 99 87c4 32 4 104 4 216z" />
    <glyph glyph-name="oe.dup" horiz-adv-x="731" 
d="M704 219h-275c1 -99 61 -166 132 -166c36 0 87 12 132 52c0 -4 3 -27 3 -27s3 -33 3 -37c-43 -34 -93 -49 -139 -49c-53 0 -117 20 -169 94c-50 -76 -119 -94 -164 -94c-106 0 -200 97 -200 225c0 127 93 225 200 225c54 0 118 -25 163 -92c46 72 111 92 155 92
c159 0 159 -190 159 -223zM637 274c-11 80 -54 107 -92 107c-44 0 -91 -39 -109 -107h201zM353 223c0 111 -64 158 -126 158c-60 0 -127 -46 -127 -158c0 -119 66 -170 127 -170s126 50 126 170z" />
    <glyph glyph-name="Oslash.dup" horiz-adv-x="731" 
d="M678 346c0 -207 -146 -362 -313 -362c-36 0 -79 8 -121 29c-12 6 -15 6 -15 6s-2 -1 -8 -11l-38 -72l-56 30l49 92c-80 69 -124 175 -124 288c0 205 144 364 313 364c60 0 109 -21 137 -37l45 85l56 -30l-49 -92c31 -30 124 -120 124 -290zM472 617
c-24 15 -62 32 -107 32c-116 0 -229 -108 -229 -303c0 -46 5 -144 72 -226zM594 346c0 52 -8 150 -73 227l-263 -496c33 -20 68 -32 107 -32c113 0 229 102 229 301z" />
    <glyph glyph-name="oslash.dup" 
d="M442 214c0 -124 -94 -222 -208 -222c-33 0 -61 9 -77 16l-65 -120l-54 30l67 123c-45 36 -78 100 -78 173c0 125 93 228 208 228c35 0 66 -11 79 -17l63 118l54 -30l-66 -121c48 -45 77 -109 77 -178zM284 371c-15 7 -32 10 -49 10c-67 0 -132 -53 -132 -167
c0 -29 4 -75 34 -113zM366 214c0 31 -5 79 -34 117l-145 -269c15 -6 31 -9 47 -9c64 0 132 48 132 161z" />
    <glyph glyph-name="quoteleft.dup" horiz-adv-x="261" 
d="M171 694l-26 -125h25v-80h-80v79l41 126h40z" />
    <glyph glyph-name="quoteright.dup" horiz-adv-x="261" 
d="M170 615l-41 -126h-40l26 125h-25v80h80v-79z" />
    <glyph glyph-name="Rcedilla" horiz-adv-x="606" 
d="M579 0h-84l-177 317h-147v-317h-82v694h224c144 0 240 -91 240 -186c0 -19 -1 -127 -157 -181l-2 -1zM474 508c0 58 -45 130 -172 130h-131v-260h131c132 0 172 76 172 130zM340 -129l-37 -113h-36l23 112h-22v72h72v-71z" />
    <glyph glyph-name="rcedilla" horiz-adv-x="320" 
d="M306 372c-88 -2 -157 -65 -157 -159v-213h-74v433h71v-80c36 52 96 84 160 85v-66zM149 -129l-37 -113h-36l23 112h-22v72h72v-71z" />
    <glyph glyph-name="tilde.dup" 
d="M392 665c-2 -79 -51 -117 -92 -117c-27 0 -46 14 -73 33c-20 15 -38 23 -53 23c-28 0 -34 -32 -34 -56h-61c2 79 51 117 92 117c27 0 46 -14 73 -33c20 -15 38 -23 53 -23c28 0 34 32 34 56h61z" />
    <glyph glyph-name="A" unicode="A" horiz-adv-x="625" 
d="M598 0h-87l-71 202h-268l-70 -202h-76l243 694h86zM421 258l-70 207c-17 51 -37 111 -44 152h-1c-7 -45 -67 -219 -115 -359h230z" />
    <glyph glyph-name="a" unicode="a" horiz-adv-x="451" 
d="M386 0h-74v37c-58 -43 -139 -45 -154 -45c-83 0 -108 81 -108 122c0 79 100 125 260 130v38c0 62 -31 101 -82 101c-72 0 -115 -29 -140 -47l-6 66c55 32 103 40 147 40c90 0 157 -65 157 -159v-283zM310 132v62c-31 -1 -187 -8 -187 -78c0 -35 34 -63 84 -63
c14 0 47 2 73 19c30 18 30 42 30 60z" />
    <glyph glyph-name="ampersand" unicode="&#x26;" horiz-adv-x="712" 
d="M659 -1c-53 -14 -95 -15 -109 -15c-43 0 -94 11 -151 56c-51 -33 -118 -56 -187 -56c-103 0 -173 78 -173 163c0 68 41 106 56 120c22 22 72 68 86 80c-19 56 -31 108 -31 168c0 102 48 195 134 195c78 0 128 -78 128 -153c0 -47 -29 -89 -62 -128
c-30 -37 -85 -87 -85 -87c53 -106 127 -193 146 -214c14 12 103 87 153 267l62 -18c-50 -191 -163 -288 -169 -293c46 -34 74 -36 95 -36c15 0 57 2 107 17v-66zM339 558c0 15 -4 91 -56 91c-28 0 -67 -24 -67 -100c0 -34 6 -90 25 -145c42 41 98 96 98 154zM350 85
c-67 75 -120 156 -143 203c-20 -17 -39 -34 -57 -53c-10 -9 -35 -34 -35 -82c0 -44 29 -105 98 -105c48 0 95 14 137 37z" />
    <glyph glyph-name="asciicircum" unicode="^" horiz-adv-x="556" 
d="M561 584l-12 -22l-272 123l-271 -123l-11 22l283 160z" />
    <glyph glyph-name="asciitilde" unicode="~" horiz-adv-x="556" 
d="M555 290l-54 -44c-17 -14 -37 -25 -57 -35c-22 -10 -48 -18 -73 -18c-40 0 -71 17 -100 34c-35 20 -64 37 -104 37c-51 0 -104 -30 -153 -71l-14 17l54 44c17 14 37 25 57 35c22 10 48 18 73 18c40 0 71 -17 100 -34c35 -20 64 -37 104 -37c51 0 104 30 153 71z" />
    <glyph glyph-name="asterisk" unicode="*" 
d="M410 445c0 -20 -18 -35 -34 -35c-9 0 -12 2 -24 11l-92 67l7 -126l1 -9c0 -24 -19 -34 -33 -34c-17 0 -34 11 -34 34l8 135l-92 -68c-8 -6 -15 -10 -24 -10c-16 0 -34 15 -34 35c0 14 9 24 21 31l108 58l-107 58c-8 4 -22 12 -22 31c0 20 18 35 34 35c9 0 12 -2 24 -11
l92 -67l-8 135c0 24 19 34 33 34c17 0 34 -11 34 -34l-8 -135l92 68c8 6 15 10 24 10c16 0 34 -15 34 -35c0 -14 -9 -24 -21 -31l-108 -58l107 -58c8 -4 22 -12 22 -31z" />
    <glyph glyph-name="at" unicode="@" horiz-adv-x="627" 
d="M573 87c-27 -33 -100 -95 -208 -95c-168 0 -313 153 -313 355c0 206 150 355 311 355c210 0 210 -256 210 -339c0 -188 -115 -241 -175 -241c-91 0 -175 95 -175 225s83 225 175 225c26 0 51 -8 75 -22c-25 71 -72 91 -110 91c-120 0 -235 -121 -235 -294
c0 -162 105 -294 239 -294c46 0 90 10 132 29c10 5 12 5 27 5h47zM497 347c0 94 -46 164 -99 164s-99 -70 -99 -164s46 -164 99 -164s99 70 99 164z" />
    <glyph glyph-name="B" unicode="B" horiz-adv-x="626" 
d="M573 188c0 -98 -99 -188 -235 -188h-249v694h223c137 0 235 -84 235 -174c0 -43 -26 -119 -156 -157c117 -22 182 -99 182 -175zM469 519c0 66 -81 119 -184 119h-115v-247h106c129 0 193 68 193 128zM494 189c0 74 -83 141 -191 141h-133v-274h140c111 0 184 65 184 133
z" />
    <glyph glyph-name="b" unicode="b" horiz-adv-x="484" 
d="M450 216c0 -127 -78 -224 -174 -224c-41 0 -87 16 -125 53v-45h-76v694h74v-309c33 27 89 53 152 53c89 0 149 -106 149 -222zM374 216c0 118 -67 161 -126 161c-44 0 -75 -23 -97 -51v-198c0 -14 0 -29 27 -53c20 -17 41 -22 61 -22c55 0 135 37 135 163z" />
    <glyph glyph-name="backslash" unicode="\" horiz-adv-x="500" 
d="M443 -230c0 -11 -9 -20 -20 -20c-14 0 -18 11 -22 22l-340 940c-5 13 -5 18 -5 18c0 11 9 20 20 20c14 0 18 -11 22 -22l340 -940c5 -13 5 -18 5 -18z" />
    <glyph glyph-name="bar" unicode="|" horiz-adv-x="278" 
d="M159 -217c0 -14 0 -33 -20 -33s-20 19 -20 33v934c0 14 0 33 20 33s20 -19 20 -33v-934z" />
    <glyph glyph-name="braceleft" unicode="{" horiz-adv-x="500" 
d="M427 -239c0 -11 -8 -11 -20 -11c-31 0 -96 8 -139 38c-52 37 -52 71 -52 129v198c0 100 -85 121 -128 124c-10 1 -16 1 -16 11s7 11 14 11c63 4 90 31 104 45c26 28 26 44 26 138v183c2 72 91 123 191 123c12 0 20 0 20 -11c0 -6 -4 -10 -9 -11c-70 -4 -93 -28 -111 -46
c-24 -25 -24 -47 -24 -119v-180c0 -28 0 -99 -118 -133c39 -11 103 -37 116 -103c2 -10 2 -61 2 -91v-150c0 -35 0 -37 3 -48c9 -36 46 -81 125 -86c10 -1 16 -1 16 -11z" />
    <glyph glyph-name="braceright" unicode="}" horiz-adv-x="500" 
d="M427 250c0 -10 -7 -11 -14 -11c-63 -4 -90 -31 -104 -45c-26 -28 -26 -44 -26 -138v-183c-2 -72 -91 -123 -191 -123c-10 0 -20 0 -20 11c0 6 4 10 9 11c70 4 93 28 111 46c24 25 24 47 24 119v180c0 28 0 99 118 133c-39 11 -103 37 -116 103c-2 10 -2 61 -2 91v150
c0 35 0 37 -3 48c-9 36 -46 81 -125 86c-10 1 -16 1 -16 11c0 11 10 11 20 11c32 0 96 -9 139 -38c52 -37 52 -71 52 -129v-198c0 -100 85 -121 128 -124c10 -1 16 -1 16 -11z" />
    <glyph glyph-name="bracketleft" unicode="[" horiz-adv-x="273" 
d="M252 -249h-159v998h159v-61h-86v-876h86v-61z" />
    <glyph glyph-name="bracketright" unicode="]" horiz-adv-x="273" 
d="M179 -249h-159v61h86v876h-86v61h159v-998z" />
    <glyph glyph-name="C" unicode="C" horiz-adv-x="601" 
d="M547 47c-28 -18 -56 -35 -88 -45c-32 -9 -65 -10 -98 -10c-82 0 -158 40 -212 103c-59 69 -88 158 -88 248c0 91 29 180 88 249c54 63 130 103 212 103c30 0 60 -2 89 -8c30 -6 59 -15 87 -26l-14 -80c-25 15 -50 30 -78 38c-27 9 -55 12 -84 12c-61 0 -116 -36 -152 -84
c-45 -58 -65 -131 -65 -204c0 -72 20 -144 65 -203c36 -49 91 -84 152 -84c32 0 64 1 95 11c32 10 58 29 85 48z" />
    <glyph glyph-name="c" unicode="c" horiz-adv-x="418" 
d="M391 40c-39 -26 -87 -48 -154 -48c-117 0 -204 103 -204 223c0 114 78 227 208 227c11 0 53 0 86 -12c12 -4 58 -24 58 -31l-11 -62c-46 31 -77 42 -132 42c-100 0 -133 -91 -133 -163c0 -93 51 -161 129 -161c54 0 104 18 147 51z" />
    <glyph glyph-name="colon" unicode=":" horiz-adv-x="261" 
d="M170 350h-80v80h80v-80zM170 0h-80v80h80v-80z" />
    <glyph glyph-name="comma" unicode="," horiz-adv-x="261" 
d="M170 1l-41 -126h-40l26 125h-25v80h80v-79z" />
    <glyph glyph-name="D" unicode="D" horiz-adv-x="678" 
d="M625 341c0 -187 -126 -341 -290 -341h-246v694h246c164 0 290 -160 290 -353zM543 341c0 174 -96 297 -230 297h-142v-582h142c135 0 230 118 230 285z" />
    <glyph glyph-name="d" unicode="d" horiz-adv-x="484" 
d="M408 0h-76v50c-24 -21 -70 -58 -139 -58c-89 0 -160 99 -160 223s72 223 163 223c56 0 107 -24 138 -50v306h74v-694zM332 134v195c-21 30 -51 48 -88 48c-55 0 -135 -37 -135 -163c0 -121 71 -161 125 -161c23 0 47 8 67 25c31 27 31 42 31 56z" />
    <glyph glyph-name="dollar" unicode="$" 
d="M417 195c0 -88 -53 -180 -153 -200v-50h-58v48c-73 8 -125 37 -164 68l12 67c41 -40 95 -64 152 -70v267c-137 33 -154 146 -154 188c0 88 60 170 154 187v49h58v-48c84 -7 136 -54 136 -58l-11 -62c-30 26 -70 51 -125 56v-241c109 -23 153 -121 153 -201zM206 412v222
c-57 -16 -83 -67 -83 -111c0 -49 30 -96 83 -111zM346 185c0 45 -22 105 -82 124v-248c60 19 82 79 82 124z" />
    <glyph glyph-name="E" unicode="E" horiz-adv-x="561" 
d="M521 0h-433v692h420v-65h-171c-12 0 -24 1 -36 1h-129v-238h310v-61h-310v-262l134 1l215 1v-69z" />
    <glyph glyph-name="e" unicode="e" horiz-adv-x="418" 
d="M391 219h-290c3 -112 72 -166 136 -166c40 0 95 13 143 52c0 -4 3 -37 3 -37s3 -23 3 -27c-50 -36 -105 -49 -150 -49c-115 0 -206 101 -206 225c0 127 88 225 192 225c43 0 100 -16 135 -73c32 -53 34 -117 34 -150zM325 274c-18 105 -88 107 -103 107
c-56 0 -100 -52 -113 -107h216z" />
    <glyph glyph-name="eight" unicode="8" 
d="M430 184c0 -108 -86 -200 -196 -200c-106 0 -195 90 -195 200c0 57 30 133 128 171c-77 26 -115 86 -115 144c0 90 77 173 183 173c102 0 182 -80 182 -173c0 -59 -39 -119 -115 -144c89 -35 128 -105 128 -171zM346 498c0 73 -49 113 -111 113c-67 0 -112 -44 -112 -113
c0 -68 45 -113 112 -113c63 0 111 41 111 113zM352 185c0 101 -64 139 -118 139c-49 0 -117 -36 -117 -139c0 -100 61 -139 118 -139c51 0 117 35 117 139z" />
    <glyph glyph-name="equal" unicode="=" horiz-adv-x="731" 
d="M678 338c0 -17 -15 -17 -30 -17h-566c-15 0 -30 0 -30 17c0 18 17 18 34 18h558c17 0 34 0 34 -18zM678 161c0 -18 -17 -18 -34 -18h-558c-17 0 -34 0 -34 18c0 17 15 17 30 17h566c15 0 30 0 30 -17z" />
    <glyph glyph-name="exclam" unicode="!" horiz-adv-x="300" 
d="M190 694l-8 -525h-64l-8 525h80zM190 0h-80v80h80v-80z" />
    <glyph glyph-name="F" unicode="F" horiz-adv-x="535" 
d="M495 627h-165c-12 0 -24 1 -36 1h-122v-251h284v-61h-284v-316h-84v692h407v-65z" />
    <glyph glyph-name="f" unicode="f" horiz-adv-x="287" 
d="M325 628c-36 13 -64 13 -74 13c-31 0 -85 -12 -85 -83v-128h103v-58h-101v-372h-74v372h-69v58h69v97c0 99 65 175 158 175c22 0 50 -3 73 -8v-66z" />
    <glyph glyph-name="five" unicode="5" 
d="M422 203c0 -120 -91 -219 -207 -219c-60 0 -135 28 -181 99l32 56c26 -54 85 -93 149 -93c52 0 123 36 123 159c0 115 -50 155 -95 155c-48 0 -85 -31 -103 -73h-67v369h318v-64h-245v-207c29 24 63 36 98 36c97 0 178 -95 178 -218z" />
    <glyph glyph-name="four" unicode="4" 
d="M443 171h-91v-171h-79v171h-247v61l238 424h88v-424h91v-61zM276 232v378c-1 -70 -115 -276 -173 -378h173z" />
    <glyph glyph-name="G" unicode="G" horiz-adv-x="627" 
d="M558 41c-62 -33 -129 -49 -197 -49c-82 0 -158 40 -212 103c-59 69 -88 158 -88 248c0 91 29 180 88 249c54 63 130 103 212 103c33 0 65 -3 98 -11c32 -8 62 -21 91 -37l-14 -80c-25 20 -52 38 -82 49s-61 15 -93 15c-61 0 -116 -36 -152 -84c-45 -58 -64 -131 -64 -204
c0 -72 19 -144 64 -203c36 -49 91 -84 152 -84c41 0 82 6 121 19v154h-121v62h197v-250z" />
    <glyph glyph-name="g" unicode="g" 
d="M456 376c-28 3 -31 4 -63 4c-15 0 -57 -3 -60 -3h-3c9 -12 31 -47 31 -95c0 -86 -69 -156 -152 -156c-41 0 -72 17 -87 28c0 0 -10 -14 -10 -34c0 -51 40 -51 55 -51h81c42 0 195 -1 195 -139c0 -74 -91 -134 -209 -134c-117 0 -208 60 -208 133c0 19 7 68 59 100
c-11 14 -25 39 -25 74c0 30 10 57 28 82c-2 2 -32 43 -32 97c0 84 66 156 153 156c23 0 57 -5 90 -31c40 19 89 30 146 31zM290 282c0 80 -48 101 -82 101c-26 0 -81 -14 -81 -101c0 -80 48 -101 82 -101c26 0 81 14 81 101zM372 -72c0 68 -101 68 -125 68h-81
c-69 0 -69 -62 -69 -67c0 -45 62 -78 138 -78c75 0 137 34 137 77z" />
    <glyph glyph-name="grave" unicode="`" 
d="M302 518h-61l-139 176h76z" />
    <glyph glyph-name="greater" unicode="&#x3e;" horiz-adv-x="762" 
d="M679 250c0 -7 -1 -13 -20 -22l-541 -249l-17 -7c-12 0 -19 10 -19 18c0 6 0 13 20 22l515 238l-514 237c-13 6 -21 10 -21 22c0 8 7 18 19 18c0 0 4 -1 17 -7l541 -249c18 -8 20 -15 20 -21z" />
    <glyph glyph-name="H" unicode="H" horiz-adv-x="663" 
d="M574 0h-84v330h-318v-330h-84v694h84v-303h318v303h84v-694z" />
    <glyph glyph-name="h" unicode="h" horiz-adv-x="484" 
d="M409 0h-76v284c0 34 -3 93 -91 93c-68 0 -92 -72 -92 -135v-242h-76v694h74v-321c29 34 70 65 133 65c113 0 128 -83 128 -146v-292z" />
    <glyph glyph-name="hyphen" unicode="-" horiz-adv-x="313" 
d="M260 186h-250v58h250v-58z" />
    <glyph glyph-name="I" unicode="I" horiz-adv-x="259" 
d="M171 0h-84v694h84v-694z" />
    <glyph glyph-name="i" unicode="i" horiz-adv-x="223" 
d="M148 0h-74v430h74v-430zM154 564h-84v84h84v-84z" />
    <glyph glyph-name="J" unicode="J" horiz-adv-x="443" 
d="M365 149c0 -109 -68 -165 -165 -165c-42 0 -99 9 -161 42l13 73c27 -30 70 -54 121 -54c90 0 110 59 110 107v542h82v-545z" />
    <glyph glyph-name="j" unicode="j" horiz-adv-x="249" 
d="M174 -60c0 -89 -56 -143 -119 -143c-42 0 -81 14 -113 34l20 61c19 -21 42 -31 69 -31s69 10 69 70v499h74v-490zM174 564h-84v84h84v-84z" />
    <glyph glyph-name="K" unicode="K" horiz-adv-x="651" 
d="M611 0h-93l-225 358l-121 -133v-225h-84v694h84v-363l330 363h96l-249 -275z" />
    <glyph glyph-name="k" unicode="k" horiz-adv-x="458" 
d="M441 0h-85l-141 211l-67 -71v-140h-73v694h74v-450l175 186h96l-155 -165z" />
    <glyph glyph-name="L" unicode="L" horiz-adv-x="509" 
d="M469 0h-381v694h84v-630h53c12 0 24 1 36 1h208v-65z" />
    <glyph glyph-name="l" unicode="l" horiz-adv-x="223" 
d="M148 0h-74v694h74v-694z" />
    <glyph glyph-name="less" unicode="&#x3c;" horiz-adv-x="762" 
d="M679 -9c0 -11 -8 -19 -19 -19c0 0 -4 1 -17 7l-541 249c-19 9 -20 15 -20 22c0 6 2 13 20 21l541 249l17 7c11 0 19 -8 19 -19c0 -6 -2 -13 -20 -21l-515 -238l515 -237c18 -8 20 -15 20 -21z" />
    <glyph glyph-name="M" unicode="M" horiz-adv-x="820" 
d="M729 0h-79v615h-1c-6 -29 -31 -103 -41 -133l-44 -131l-119 -335h-74l-132 377c-61 175 -70 220 -70 220h-1v-613h-78v694h117l148 -420l29 -89c16 -51 22 -72 25 -92h1c6 32 33 113 41 139l48 141l114 321h116v-694z" />
    <glyph glyph-name="m" unicode="m" horiz-adv-x="745" 
d="M670 0h-76v284c0 29 0 93 -91 93c-71 0 -93 -76 -93 -135v-242h-76v284c0 29 0 93 -91 93c-71 0 -93 -76 -93 -135v-242h-76v433h73v-62c23 28 66 67 134 67c60 0 102 -23 120 -76c20 29 65 76 140 76c112 0 129 -79 129 -146v-292z" />
    <glyph glyph-name="N" unicode="N" horiz-adv-x="663" 
d="M574 0h-123l-18 37l-214 465l-52 116l-1 -1v-617h-78v694h123l18 -37l214 -465l52 -116l1 1v617h78v-694z" />
    <glyph glyph-name="n" unicode="n" horiz-adv-x="484" 
d="M409 0h-76v284c0 34 -3 93 -91 93c-68 0 -92 -72 -92 -135v-242h-76v433h73v-62c28 34 70 67 134 67c113 0 128 -83 128 -146v-292z" />
    <glyph glyph-name="nine" unicode="9" 
d="M430 335c0 -217 -116 -351 -237 -351c-61 0 -97 23 -125 47l31 53c29 -27 58 -38 94 -38c88 0 149 98 156 233c-40 -50 -99 -79 -158 -79c-39 0 -74 13 -112 75c-28 48 -40 90 -40 158c0 57 8 106 52 161c37 48 80 78 147 78s192 -47 192 -337zM347 411c0 4 0 17 -1 24
c-1 41 -16 176 -108 176c-45 0 -71 -22 -92 -53c-28 -43 -28 -86 -28 -125c0 -40 1 -78 23 -117c18 -31 42 -55 88 -55c70 0 118 66 118 150z" />
    <glyph glyph-name="numbersign" unicode="#" horiz-adv-x="784" 
d="M731 161c0 -18 -17 -18 -34 -18h-206l-80 -316c-2 -8 -5 -22 -19 -22c-10 0 -18 8 -18 18c0 3 1 8 4 18l77 302h-181l-80 -316c-2 -8 -5 -22 -19 -22c-10 0 -18 8 -18 18c0 3 1 8 4 18l77 302h-152c-17 0 -34 0 -34 18c0 17 15 17 30 17h166l34 143h-200
c-15 0 -30 0 -30 17c0 18 17 18 34 18h206l80 316c2 8 5 22 19 22c10 0 18 -8 18 -18c0 -3 -1 -8 -4 -18l-77 -302h181l80 316c2 8 5 22 19 22c10 0 18 -8 18 -18c0 -3 -1 -8 -4 -18l-77 -302h152c17 0 34 0 34 -18c0 -17 -15 -17 -30 -17h-166l-34 -143h200
c15 0 30 0 30 -17zM499 321h-181l-34 -143h181z" />
    <glyph glyph-name="O" unicode="O" horiz-adv-x="693" 
d="M640 346c0 -209 -139 -362 -294 -362s-294 153 -294 362c0 207 137 364 294 364s294 -156 294 -364zM556 359c0 184 -106 288 -210 288s-210 -104 -210 -288c0 -189 100 -312 210 -312c109 0 210 122 210 312z" />
    <glyph glyph-name="o" unicode="o" 
d="M442 214c0 -124 -94 -222 -208 -222c-111 0 -207 95 -207 222c0 125 93 228 208 228c112 0 207 -100 207 -228zM366 222c0 112 -67 158 -132 158c-60 0 -131 -42 -131 -158c0 -109 61 -168 131 -168c67 0 132 55 132 168z" />
    <glyph glyph-name="one" unicode="1" 
d="M402 0h-313v58h118v514c-47 -21 -94 -23 -123 -24v58c64 2 127 10 181 66h19v-614h118v-58z" />
    <glyph glyph-name="P" unicode="P" horiz-adv-x="600" 
d="M547 492c0 -110 -98 -203 -218 -203h-156v-289h-84v694h234c130 0 224 -94 224 -202zM468 492c0 73 -51 146 -167 146h-130v-291h130c120 0 167 77 167 145z" />
    <glyph glyph-name="p" unicode="p" horiz-adv-x="484" 
d="M450 216c0 -128 -80 -224 -173 -224c-48 0 -93 21 -126 53v-240h-76v625h74v-46c45 36 105 54 155 54c86 0 146 -104 146 -222zM374 216c0 87 -56 159 -126 159c-55 0 -89 -38 -97 -50v-197c0 -14 0 -29 27 -53c20 -17 41 -22 61 -22c67 0 135 64 135 163z" />
    <glyph glyph-name="parenleft" unicode="(" horiz-adv-x="366" 
d="M313 -250h-61c-54 56 -178 183 -178 500c0 316 124 444 178 499h61c-125 -129 -163 -309 -163 -500c0 -192 40 -371 163 -499z" />
    <glyph glyph-name="parenright" unicode=")" horiz-adv-x="366" 
d="M291 249c0 -316 -124 -444 -178 -499h-61c125 129 163 309 163 500c0 192 -40 371 -163 499h61c54 -56 178 -183 178 -500z" />
    <glyph glyph-name="percent" unicode="%" horiz-adv-x="784" 
d="M313 548c0 -116 -61 -201 -130 -201c-67 0 -131 83 -131 201s64 201 131 201c68 0 130 -85 130 -201zM619 731c0 0 0 -6 -6 -16l-410 -752c-8 -14 -10 -18 -19 -18s-18 7 -18 18c0 6 4 12 6 16l409 752c5 10 10 18 21 18c8 0 17 -7 17 -18zM731 146
c0 -116 -61 -201 -130 -201c-67 0 -131 83 -131 201s64 201 131 201c68 0 130 -85 130 -201zM240 548c0 67 -20 140 -57 140c-21 0 -55 -20 -55 -140c0 -121 34 -140 55 -140c37 0 57 73 57 140zM658 146c0 67 -20 140 -57 140c-21 0 -55 -20 -55 -140
c0 -121 34 -140 55 -140c37 0 57 73 57 140z" />
    <glyph glyph-name="period" unicode="." horiz-adv-x="261" 
d="M170 0h-80v80h80v-80z" />
    <glyph glyph-name="plus" unicode="+" horiz-adv-x="731" 
d="M678 249c0 -17 -17 -17 -31 -17h-264v-265c0 -15 0 -31 -18 -31c-17 0 -17 17 -17 31v265h-265c-15 0 -31 0 -31 18c0 17 17 17 31 17h265v265c0 15 0 31 18 31c17 0 17 -17 17 -31v-265h264c15 0 31 0 31 -18z" />
    <glyph glyph-name="Q" unicode="Q" horiz-adv-x="693" 
d="M640 346c0 -76 -18 -210 -140 -309l114 -162h-98l-84 125c-21 -8 -51 -16 -86 -16c-155 0 -294 153 -294 362c0 207 137 364 294 364s294 -156 294 -364zM558 346c0 184 -102 301 -212 301c-109 0 -212 -116 -212 -301c0 -186 104 -299 212 -299c18 0 35 3 49 8l-92 139
h86l72 -101c87 82 97 189 97 253z" />
    <glyph glyph-name="q" unicode="q" horiz-adv-x="484" 
d="M408 -195h-76v245c-45 -43 -98 -58 -140 -58c-90 0 -159 101 -159 222c0 131 82 224 173 224c78 0 124 -56 128 -61v61h74v-633zM334 137v140c0 42 -33 98 -90 98c-68 0 -135 -64 -135 -161c0 -87 55 -161 126 -161c38 0 60 20 68 27c31 26 31 44 31 57z" />
    <glyph glyph-name="question" unicode="?" horiz-adv-x="444" 
d="M391 546c0 -71 -34 -103 -52 -119c-36 -31 -99 -102 -99 -210v-48h-64v52c0 61 14 162 110 253c9 9 29 28 29 74c0 80 -53 93 -105 93c-39 0 -88 -10 -136 -54l-22 62c50 37 103 53 158 53c128 0 181 -71 181 -156zM248 0h-80v80h80v-80z" />
    <glyph glyph-name="quotedbl" unicode="&#x22;" horiz-adv-x="413" 
d="M169 426h-76v284h76v-284zM321 426h-76v284h76v-284z" />
    <glyph glyph-name="quotesingle" unicode="'" horiz-adv-x="261" 
d="M169 426h-76v284h76v-284z" />
    <glyph glyph-name="R" unicode="R" horiz-adv-x="606" 
d="M579 0h-84l-177 317h-147v-317h-82v694h224c144 0 240 -91 240 -186c0 -19 -1 -127 -157 -181l-2 -1zM474 508c0 58 -45 130 -172 130h-131v-260h131c132 0 172 76 172 130z" />
    <glyph glyph-name="r" unicode="r" horiz-adv-x="320" 
d="M306 372c-88 -2 -157 -65 -157 -159v-213h-74v433h71v-80c36 52 96 84 160 85v-66z" />
    <glyph glyph-name="S" unicode="S" horiz-adv-x="522" 
d="M469 191c0 -110 -88 -207 -211 -207c-45 0 -134 10 -216 70l14 79c83 -76 171 -81 201 -81c87 0 136 67 136 130c0 48 -27 99 -83 121c-7 3 -46 14 -69 20c-56 14 -100 26 -139 70s-50 87 -50 125c0 97 83 192 212 192c81 0 129 -23 173 -49l-14 -80
c-58 54 -115 63 -159 63c-88 0 -136 -61 -136 -117c0 -27 9 -48 26 -70c25 -31 55 -39 102 -51c82 -22 118 -32 159 -77c42 -47 54 -98 54 -138z" />
    <glyph glyph-name="s" unicode="s" horiz-adv-x="360" 
d="M338 124c0 -57 -31 -132 -154 -132c-46 0 -101 10 -158 43l12 67c50 -36 105 -47 145 -47c13 0 85 0 85 63c0 50 -51 60 -97 69c-30 6 -140 28 -140 129s85 126 156 126c30 0 76 -2 135 -30l-12 -65c-27 15 -67 35 -132 35c-14 0 -77 0 -77 -57c0 -45 49 -56 63 -58
c82 -17 94 -20 127 -46c19 -15 47 -48 47 -97z" />
    <glyph glyph-name="semicolon" unicode=";" horiz-adv-x="261" 
d="M170 350h-80v80h80v-80zM170 1l-41 -126h-40l26 125h-25v80h80v-79z" />
    <glyph glyph-name="seven" unicode="7" 
d="M430 591c-137 -172 -207 -387 -207 -599h-80c0 219 82 430 225 597h-115c-12 0 -24 -1 -36 -1h-178v68h391v-65z" />
    <glyph glyph-name="six" unicode="6" 
d="M430 222c0 -77 -17 -121 -61 -174c-43 -50 -88 -64 -133 -64c-82 0 -197 62 -197 337c0 215 121 351 251 351c28 0 58 -3 100 -20v-62c-39 17 -73 21 -99 21c-95 0 -161 -93 -171 -234c35 44 92 79 158 79c91 0 152 -110 152 -234zM351 222c0 41 -1 78 -22 117
c-18 31 -42 56 -89 56c-73 0 -118 -70 -118 -148c-1 -15 -1 -20 -1 -28c4 -40 20 -173 115 -173c48 0 73 27 92 58c23 40 23 79 23 118z" />
    <glyph glyph-name="slash" unicode="/" 
d="M417 731c0 0 0 -4 -5 -17l-323 -943c-4 -12 -8 -20 -20 -20c-8 0 -17 6 -17 18c0 0 0 4 5 17l323 943c4 12 8 20 20 20c8 0 17 -6 17 -18z" />
    <glyph glyph-name="space" unicode=" " horiz-adv-x="313" 
 />
    <glyph glyph-name="T" unicode="T" horiz-adv-x="641" 
d="M606 626h-125c-12 0 -24 1 -36 1h-83v-627h-84v627h-83c-12 0 -24 -1 -36 -1h-125v65h572v-65z" />
    <glyph glyph-name="t" unicode="t" horiz-adv-x="340" 
d="M313 29c-44 -23 -90 -37 -140 -37c-66 0 -79 70 -79 127v253h-77v58h79v123h71v-123h130v-58h-130v-236c0 -25 2 -81 46 -81c31 0 60 12 84 33z" />
    <glyph glyph-name="three" unicode="3" 
d="M430 184c0 -105 -84 -200 -198 -200c-70 0 -146 34 -193 103c4 24 4 26 11 61c45 -74 124 -102 180 -102c72 0 116 61 116 139c0 57 -27 139 -121 139h-68v61c8 1 70 7 74 7c59 14 94 74 94 129c0 53 -37 90 -93 90c-67 0 -124 -44 -146 -103c-9 15 -27 44 -34 54
c28 57 95 110 181 110c94 0 171 -67 171 -151c0 -72 -44 -134 -104 -167c75 -25 130 -91 130 -170z" />
    <glyph glyph-name="two" unicode="2" 
d="M422 0h-375v64l173 181c53 53 123 124 123 216c0 77 -48 147 -134 147c-78 0 -109 -58 -131 -149l-39 54c27 97 84 159 183 159c126 0 200 -99 200 -209c0 -70 -37 -118 -65 -152c-29 -35 -71 -70 -99 -99l-142 -144v-1h100c12 0 24 1 36 1h170v-68z" />
    <glyph glyph-name="U" unicode="U" horiz-adv-x="644" 
d="M555 233c0 -144 -108 -249 -232 -249s-235 105 -235 249v461h84v-463c0 -129 76 -191 152 -191c74 0 155 59 155 192v462h76v-461z" />
    <glyph glyph-name="u" unicode="u" horiz-adv-x="484" 
d="M409 0h-74v50c-54 -50 -131 -58 -165 -58c-69 0 -96 38 -96 116v322h76v-317c0 -41 6 -63 72 -63c57 0 111 30 111 104v276h76v-430z" />
    <glyph glyph-name="underscore" unicode="_" horiz-adv-x="625" 
d="M625 -163h-625v76h625v-76z" />
    <glyph glyph-name="V" unicode="V" horiz-adv-x="625" 
d="M611 694l-255 -694h-88l-255 694h88l43 -117l116 -325c17 -49 49 -138 57 -176h1c6 32 37 124 42 138l173 480h78z" />
    <glyph glyph-name="v" unicode="v" horiz-adv-x="432" 
d="M418 430l-158 -430h-89l-158 430h80l88 -247l20 -66c5 -18 13 -44 15 -62h1c5 43 35 127 56 188l67 187h78z" />
    <glyph glyph-name="W" unicode="W" horiz-adv-x="886" 
d="M872 694l-190 -694h-87l-106 400c-39 146 -48 209 -48 213h-1c-2 -25 -8 -53 -35 -165l-40 -159l-79 -289h-83l-190 694h86l77 -285l43 -173c28 -117 32 -150 32 -156h1c2 20 3 38 33 164l40 159l79 291h84l83 -307l39 -158c16 -64 29 -121 31 -148h1c2 26 15 78 33 152
l37 150l84 311h76z" />
    <glyph glyph-name="w" unicode="w" horiz-adv-x="641" 
d="M627 430l-130 -430h-88l-66 233c-10 35 -27 106 -29 139c-3 -67 -43 -200 -95 -372h-76l-130 430h78l45 -153c6 -22 47 -160 51 -219h1c2 40 21 114 46 201l50 171h69l51 -175c28 -95 45 -167 47 -197h1c4 49 35 154 46 192l53 180h76z" />
    <glyph glyph-name="X" unicode="X" horiz-adv-x="625" 
d="M611 0h-99l-207 305l-200 -305h-92l251 366l-238 328h99l180 -260l175 260h92l-226 -328z" />
    <glyph glyph-name="x" unicode="x" horiz-adv-x="432" 
d="M431 0h-88l-130 176l-125 -176h-88l178 222l-173 208h89l119 -151l115 151h87l-167 -208z" />
    <glyph glyph-name="Y" unicode="Y" horiz-adv-x="625" 
d="M621 694l-268 -417v-277h-82v278l-268 416h98l168 -263l49 -79c16 29 50 81 62 100l155 242h86z" />
    <glyph glyph-name="y" unicode="y" horiz-adv-x="432" 
d="M418 430l-190 -510c-46 -123 -96 -123 -121 -123c-18 0 -43 3 -68 8l-6 66c36 -11 68 -12 72 -12c16 0 31 0 53 56c5 10 21 55 32 85l-177 430h81l47 -117c35 -86 79 -206 82 -255h1c2 50 31 143 116 372h78z" />
    <glyph glyph-name="Z" unicode="Z" horiz-adv-x="575" 
d="M527 0h-475v43l364 589h-128c-12 0 -24 -1 -36 -1h-187v63h457v-41l-364 -589h30l250 2h89v-66z" />
    <glyph glyph-name="z" unicode="z" horiz-adv-x="408" 
d="M378 0h-352v41l247 330h-70c-12 0 -24 -1 -36 -1h-128v60h336v-39l-246 -330h77c12 0 24 1 36 1h136v-62z" />
    <glyph glyph-name="zero" unicode="0" 
d="M431 327c0 -90 -6 -169 -41 -241c-34 -69 -94 -102 -156 -102c-47 0 -116 21 -157 106c-36 77 -39 165 -39 237c0 105 9 174 41 241c30 64 88 104 156 104c47 0 113 -21 154 -100c41 -82 42 -188 42 -245zM355 338c0 58 0 120 -15 173c-8 26 -32 100 -106 100
c-38 0 -78 -22 -101 -86c-19 -55 -19 -125 -19 -187c0 -79 2 -127 14 -177c7 -29 30 -116 106 -116c121 0 121 200 121 293z" />
    <glyph glyph-name="Aacute" unicode="&#xc1;" horiz-adv-x="625" 
d="M598 0h-87l-71 202h-268l-70 -202h-76l243 694h86zM421 258l-70 207c-17 51 -37 111 -44 152h-1c-7 -45 -67 -219 -115 -359h230zM503 862l-197 -122h-89l175 122h111z" />
    <glyph glyph-name="aacute" unicode="&#xe1;" horiz-adv-x="451" 
d="M386 0h-74v37c-58 -43 -139 -45 -154 -45c-83 0 -108 81 -108 122c0 79 100 125 260 130v38c0 62 -31 101 -82 101c-72 0 -115 -29 -140 -47l-6 66c55 32 103 40 147 40c90 0 157 -65 157 -159v-283zM310 132v62c-31 -1 -187 -8 -187 -78c0 -35 34 -63 84 -63
c14 0 47 2 73 19c30 18 30 42 30 60zM358 694l-139 -176h-61l124 176h76z" />
    <glyph glyph-name="Abreve" unicode="&#x102;" horiz-adv-x="625" 
d="M598 0h-87l-71 202h-268l-70 -202h-76l243 694h86zM421 258l-70 207c-17 51 -37 111 -44 152h-1c-7 -45 -67 -219 -115 -359h230zM473 933c-3 -117 -75 -193 -161 -193c-82 0 -157 73 -160 193h61c2 -78 46 -127 100 -127c50 0 97 47 99 127h61z" />
    <glyph glyph-name="abreve" unicode="&#x103;" horiz-adv-x="451" 
d="M386 0h-74v37c-58 -43 -139 -45 -154 -45c-83 0 -108 81 -108 122c0 79 100 125 260 130v38c0 62 -31 101 -82 101c-72 0 -115 -29 -140 -47l-6 66c55 32 103 40 147 40c90 0 157 -65 157 -159v-283zM310 132v62c-31 -1 -187 -8 -187 -78c0 -35 34 -63 84 -63
c14 0 47 2 73 19c30 18 30 42 30 60zM386 703c-3 -117 -75 -193 -161 -193c-82 0 -157 73 -160 193h61c2 -78 46 -127 100 -127c50 0 97 47 99 127h61z" />
    <glyph glyph-name="Abreveacute" unicode="&#x1eae;" horiz-adv-x="625" 
d="M598 0h-87l-71 202h-268l-70 -202h-76l243 694h86zM421 258l-70 207c-17 51 -37 111 -44 152h-1c-7 -45 -67 -219 -115 -359h230zM473 933c-3 -117 -75 -193 -161 -193c-82 0 -157 73 -160 193h61c2 -78 46 -127 100 -127c50 0 97 47 99 127h61zM456 1090l-197 -122h-89
l175 122h111z" />
    <glyph glyph-name="abreveacute" unicode="&#x1eaf;" horiz-adv-x="451" 
d="M386 0h-74v37c-58 -43 -139 -45 -154 -45c-83 0 -108 81 -108 122c0 79 100 125 260 130v38c0 62 -31 101 -82 101c-72 0 -115 -29 -140 -47l-6 66c55 32 103 40 147 40c90 0 157 -65 157 -159v-283zM310 132v62c-31 -1 -187 -8 -187 -78c0 -35 34 -63 84 -63
c14 0 47 2 73 19c30 18 30 42 30 60zM386 703c-3 -117 -75 -193 -161 -193c-82 0 -157 73 -160 193h61c2 -78 46 -127 100 -127c50 0 97 47 99 127h61zM369 860l-197 -122h-89l175 122h111z" />
    <glyph glyph-name="Abrevedotbelow" unicode="&#x1eb6;" horiz-adv-x="625" 
d="M598 0h-87l-71 202h-268l-70 -202h-76l243 694h86zM421 258l-70 207c-17 51 -37 111 -44 152h-1c-7 -45 -67 -219 -115 -359h230zM473 933c-3 -117 -75 -193 -161 -193c-82 0 -157 73 -160 193h61c2 -78 46 -127 100 -127c50 0 97 47 99 127h61zM355 -200h-84v84h84v-84z
" />
    <glyph glyph-name="abrevedotbelow" unicode="&#x1eb7;" horiz-adv-x="451" 
d="M386 0h-74v37c-58 -43 -139 -45 -154 -45c-83 0 -108 81 -108 122c0 79 100 125 260 130v38c0 62 -31 101 -82 101c-72 0 -115 -29 -140 -47l-6 66c55 32 103 40 147 40c90 0 157 -65 157 -159v-283zM310 132v62c-31 -1 -187 -8 -187 -78c0 -35 34 -63 84 -63
c14 0 47 2 73 19c30 18 30 42 30 60zM386 703c-3 -117 -75 -193 -161 -193c-82 0 -157 73 -160 193h61c2 -78 46 -127 100 -127c50 0 97 47 99 127h61zM268 -200h-84v84h84v-84z" />
    <glyph glyph-name="Abrevegrave" unicode="&#x1eb0;" horiz-adv-x="625" 
d="M598 0h-87l-71 202h-268l-70 -202h-76l243 694h86zM421 258l-70 207c-17 51 -37 111 -44 152h-1c-7 -45 -67 -219 -115 -359h230zM473 933c-3 -117 -75 -193 -161 -193c-82 0 -157 73 -160 193h61c2 -78 46 -127 100 -127c50 0 97 47 99 127h61zM455 968l-175 122h-111
l197 -122h89z" />
    <glyph glyph-name="abrevegrave" unicode="&#x1eb1;" horiz-adv-x="451" 
d="M386 0h-74v37c-58 -43 -139 -45 -154 -45c-83 0 -108 81 -108 122c0 79 100 125 260 130v38c0 62 -31 101 -82 101c-72 0 -115 -29 -140 -47l-6 66c55 32 103 40 147 40c90 0 157 -65 157 -159v-283zM310 132v62c-31 -1 -187 -8 -187 -78c0 -35 34 -63 84 -63
c14 0 47 2 73 19c30 18 30 42 30 60zM386 703c-3 -117 -75 -193 -161 -193c-82 0 -157 73 -160 193h61c2 -78 46 -127 100 -127c50 0 97 47 99 127h61zM368 738l-175 122h-111l197 -122h89z" />
    <glyph glyph-name="Abrevehookabove" unicode="&#x1eb2;" horiz-adv-x="625" 
d="M598 0h-87l-71 202h-268l-70 -202h-76l243 694h86zM421 258l-70 207c-17 51 -37 111 -44 152h-1c-7 -45 -67 -219 -115 -359h230zM473 933c-3 -117 -75 -193 -161 -193c-82 0 -157 73 -160 193h61c2 -78 46 -127 100 -127c50 0 97 47 99 127h61zM403 1087
c0 -19 -9 -36 -25 -47l-4 -2c-38 -25 -58 -41 -58 -69v-20l-1 -1h-17v1v20c0 37 22 72 56 91c10 6 16 16 16 27c0 14 -5 27 -15 34c-12 9 -28 11 -48 11c-30 0 -58 -14 -75 -39h-1l-8 23v1c20 26 51 42 84 42c28 0 52 -5 71 -19c16 -12 25 -32 25 -53z" />
    <glyph glyph-name="abrevehookabove" unicode="&#x1eb3;" horiz-adv-x="451" 
d="M386 0h-74v37c-58 -43 -139 -45 -154 -45c-83 0 -108 81 -108 122c0 79 100 125 260 130v38c0 62 -31 101 -82 101c-72 0 -115 -29 -140 -47l-6 66c55 32 103 40 147 40c90 0 157 -65 157 -159v-283zM310 132v62c-31 -1 -187 -8 -187 -78c0 -35 34 -63 84 -63
c14 0 47 2 73 19c30 18 30 42 30 60zM386 703c-3 -117 -75 -193 -161 -193c-82 0 -157 73 -160 193h61c2 -78 46 -127 100 -127c50 0 97 47 99 127h61zM316 857c0 -19 -9 -36 -25 -47l-4 -2c-38 -25 -58 -41 -58 -69v-20l-1 -1h-17v1v20c0 37 22 72 56 91c10 6 16 16 16 27
c0 14 -5 27 -15 34c-12 9 -28 11 -48 11c-30 0 -58 -14 -75 -39h-1l-8 23v1c20 26 51 42 84 42c28 0 52 -5 71 -19c16 -12 25 -32 25 -53z" />
    <glyph glyph-name="Abrevetilde" unicode="&#x1eb4;" horiz-adv-x="625" 
d="M598 0h-87l-71 202h-268l-70 -202h-76l243 694h86zM421 258l-70 207c-17 51 -37 111 -44 152h-1c-7 -45 -67 -219 -115 -359h230zM473 933c-3 -117 -75 -193 -161 -193c-82 0 -157 73 -160 193h61c2 -78 46 -127 100 -127c50 0 97 47 99 127h61zM469 1105
c-2 -79 -51 -117 -92 -117c-27 0 -46 14 -73 33c-20 15 -38 23 -53 23c-28 0 -34 -32 -34 -56h-61c2 79 51 117 92 117c27 0 46 -14 73 -33c20 -15 38 -23 53 -23c28 0 34 32 34 56h61z" />
    <glyph glyph-name="abrevetilde" unicode="&#x1eb5;" horiz-adv-x="451" 
d="M386 0h-74v37c-58 -43 -139 -45 -154 -45c-83 0 -108 81 -108 122c0 79 100 125 260 130v38c0 62 -31 101 -82 101c-72 0 -115 -29 -140 -47l-6 66c55 32 103 40 147 40c90 0 157 -65 157 -159v-283zM310 132v62c-31 -1 -187 -8 -187 -78c0 -35 34 -63 84 -63
c14 0 47 2 73 19c30 18 30 42 30 60zM386 703c-3 -117 -75 -193 -161 -193c-82 0 -157 73 -160 193h61c2 -78 46 -127 100 -127c50 0 97 47 99 127h61zM382 875c-2 -79 -51 -117 -92 -117c-27 0 -46 14 -73 33c-20 15 -38 23 -53 23c-28 0 -34 -32 -34 -56h-61
c2 79 51 117 92 117c27 0 46 -14 73 -33c20 -15 38 -23 53 -23c28 0 34 32 34 56h61z" />
    <glyph glyph-name="Acaron" unicode="&#x1cd;" horiz-adv-x="625" 
d="M598 0h-87l-71 202h-268l-70 -202h-76l243 694h86zM421 258l-70 207c-17 51 -37 111 -44 152h-1c-7 -45 -67 -219 -115 -359h230zM468 864l-126 -134h-60l-126 134h59l97 -97l97 97h59z" />
    <glyph glyph-name="acaron" unicode="&#x1ce;" horiz-adv-x="451" 
d="M386 0h-74v37c-58 -43 -139 -45 -154 -45c-83 0 -108 81 -108 122c0 79 100 125 260 130v38c0 62 -31 101 -82 101c-72 0 -115 -29 -140 -47l-6 66c55 32 103 40 147 40c90 0 157 -65 157 -159v-283zM310 132v62c-31 -1 -187 -8 -187 -78c0 -35 34 -63 84 -63
c14 0 47 2 73 19c30 18 30 42 30 60zM380 692l-125 -172h-60l-125 172h59l96 -123l96 123h59z" />
    <glyph glyph-name="Acircumflex" unicode="&#xc2;" horiz-adv-x="625" 
d="M598 0h-87l-71 202h-268l-70 -202h-76l243 694h86zM421 258l-70 207c-17 51 -37 111 -44 152h-1c-7 -45 -67 -219 -115 -359h230zM468 730h-59l-97 97l-97 -97h-59l126 134h60z" />
    <glyph glyph-name="acircumflex" unicode="&#xe2;" horiz-adv-x="451" 
d="M386 0h-74v37c-58 -43 -139 -45 -154 -45c-83 0 -108 81 -108 122c0 79 100 125 260 130v38c0 62 -31 101 -82 101c-72 0 -115 -29 -140 -47l-6 66c55 32 103 40 147 40c90 0 157 -65 157 -159v-283zM310 132v62c-31 -1 -187 -8 -187 -78c0 -35 34 -63 84 -63
c14 0 47 2 73 19c30 18 30 42 30 60zM380 520h-59l-96 123l-96 -123h-59l125 172h60z" />
    <glyph glyph-name="Acircumflexacute" unicode="&#x1ea4;" horiz-adv-x="625" 
d="M598 0h-87l-71 202h-268l-70 -202h-76l243 694h86zM421 258l-70 207c-17 51 -37 111 -44 152h-1c-7 -45 -67 -219 -115 -359h230zM468 730h-59l-97 97l-97 -97h-59l126 134h60zM455 1021l-197 -122h-89l175 122h111z" />
    <glyph glyph-name="acircumflexacute" unicode="&#x1ea5;" horiz-adv-x="451" 
d="M386 0h-74v37c-58 -43 -139 -45 -154 -45c-83 0 -108 81 -108 122c0 79 100 125 260 130v38c0 62 -31 101 -82 101c-72 0 -115 -29 -140 -47l-6 66c55 32 103 40 147 40c90 0 157 -65 157 -159v-283zM310 132v62c-31 -1 -187 -8 -187 -78c0 -35 34 -63 84 -63
c14 0 47 2 73 19c30 18 30 42 30 60zM381 520h-59l-97 97l-97 -97h-59l126 134h60zM368 811l-197 -122h-89l175 122h111z" />
    <glyph glyph-name="Acircumflexdotbelow" unicode="&#x1eac;" horiz-adv-x="625" 
d="M598 0h-87l-71 202h-268l-70 -202h-76l243 694h86zM421 258l-70 207c-17 51 -37 111 -44 152h-1c-7 -45 -67 -219 -115 -359h230zM468 730h-59l-97 97l-97 -97h-59l126 134h60zM355 -200h-84v84h84v-84z" />
    <glyph glyph-name="acircumflexdotbelow" unicode="&#x1ead;" horiz-adv-x="451" 
d="M386 0h-74v37c-58 -43 -139 -45 -154 -45c-83 0 -108 81 -108 122c0 79 100 125 260 130v38c0 62 -31 101 -82 101c-72 0 -115 -29 -140 -47l-6 66c55 32 103 40 147 40c90 0 157 -65 157 -159v-283zM310 132v62c-31 -1 -187 -8 -187 -78c0 -35 34 -63 84 -63
c14 0 47 2 73 19c30 18 30 42 30 60zM380 520h-59l-96 123l-96 -123h-59l125 172h60zM268 -200h-84v84h84v-84z" />
    <glyph glyph-name="Acircumflexgrave" unicode="&#x1ea6;" horiz-adv-x="625" 
d="M598 0h-87l-71 202h-268l-70 -202h-76l243 694h86zM421 258l-70 207c-17 51 -37 111 -44 152h-1c-7 -45 -67 -219 -115 -359h230zM468 730h-59l-97 97l-97 -97h-59l126 134h60zM455 899l-175 122h-111l197 -122h89z" />
    <glyph glyph-name="acircumflexgrave" unicode="&#x1ea7;" horiz-adv-x="451" 
d="M386 0h-74v37c-58 -43 -139 -45 -154 -45c-83 0 -108 81 -108 122c0 79 100 125 260 130v38c0 62 -31 101 -82 101c-72 0 -115 -29 -140 -47l-6 66c55 32 103 40 147 40c90 0 157 -65 157 -159v-283zM310 132v62c-31 -1 -187 -8 -187 -78c0 -35 34 -63 84 -63
c14 0 47 2 73 19c30 18 30 42 30 60zM381 520h-59l-97 97l-97 -97h-59l126 134h60zM368 689l-175 122h-111l197 -122h89z" />
    <glyph glyph-name="Acircumflexhookabove" unicode="&#x1ea8;" horiz-adv-x="625" 
d="M598 0h-87l-71 202h-268l-70 -202h-76l243 694h86zM421 258l-70 207c-17 51 -37 111 -44 152h-1c-7 -45 -67 -219 -115 -359h230zM468 730h-59l-97 97l-97 -97h-59l126 134h60zM492 1018c0 -19 -9 -36 -25 -47l-4 -2c-38 -25 -58 -41 -58 -69v-20l-1 -1h-17v1v20
c0 37 22 72 56 91c10 6 16 16 16 27c0 14 -5 27 -15 34c-12 9 -28 11 -48 11c-30 0 -58 -14 -75 -39h-1l-8 23v1c20 26 51 42 84 42c28 0 52 -5 71 -19c16 -12 25 -32 25 -53z" />
    <glyph glyph-name="acircumflexhookabove" unicode="&#x1ea9;" horiz-adv-x="451" 
d="M386 0h-74v37c-58 -43 -139 -45 -154 -45c-83 0 -108 81 -108 122c0 79 100 125 260 130v38c0 62 -31 101 -82 101c-72 0 -115 -29 -140 -47l-6 66c55 32 103 40 147 40c90 0 157 -65 157 -159v-283zM310 132v62c-31 -1 -187 -8 -187 -78c0 -35 34 -63 84 -63
c14 0 47 2 73 19c30 18 30 42 30 60zM381 520h-59l-97 97l-97 -97h-59l126 134h60zM405 808c0 -19 -9 -36 -25 -47l-4 -2c-38 -25 -58 -41 -58 -69v-20l-1 -1h-17v1v20c0 37 22 72 56 91c10 6 16 16 16 27c0 14 -5 27 -15 34c-12 9 -28 11 -48 11c-30 0 -58 -14 -75 -39h-1
l-8 23v1c20 26 51 42 84 42c28 0 52 -5 71 -19c16 -12 25 -32 25 -53z" />
    <glyph glyph-name="Acircumflextilde" unicode="&#x1eaa;" horiz-adv-x="625" 
d="M598 0h-87l-71 202h-268l-70 -202h-76l243 694h86zM421 258l-70 207c-17 51 -37 111 -44 152h-1c-7 -45 -67 -219 -115 -359h230zM468 730h-59l-97 97l-97 -97h-59l126 134h60zM469 1036c-2 -79 -51 -117 -92 -117c-27 0 -46 14 -73 33c-20 15 -38 23 -53 23
c-28 0 -34 -32 -34 -56h-61c2 79 51 117 92 117c27 0 46 -14 73 -33c20 -15 38 -23 53 -23c28 0 34 32 34 56h61z" />
    <glyph glyph-name="acircumflextilde" unicode="&#x1eab;" horiz-adv-x="451" 
d="M386 0h-74v37c-58 -43 -139 -45 -154 -45c-83 0 -108 81 -108 122c0 79 100 125 260 130v38c0 62 -31 101 -82 101c-72 0 -115 -29 -140 -47l-6 66c55 32 103 40 147 40c90 0 157 -65 157 -159v-283zM310 132v62c-31 -1 -187 -8 -187 -78c0 -35 34 -63 84 -63
c14 0 47 2 73 19c30 18 30 42 30 60zM381 520h-59l-97 97l-97 -97h-59l126 134h60zM382 826c-2 -79 -51 -117 -92 -117c-27 0 -46 14 -73 33c-20 15 -38 23 -53 23c-28 0 -34 -32 -34 -56h-61c2 79 51 117 92 117c27 0 46 -14 73 -33c20 -15 38 -23 53 -23c28 0 34 32 34 56
h61z" />
    <glyph glyph-name="acute" unicode="&#xb4;" 
d="M368 694l-139 -176h-61l124 176h76z" />
    <glyph glyph-name="uni0301" unicode="&#x301;" horiz-adv-x="0" 
d="M-93 694l-139 -176h-61l124 176h76z" />
    <glyph glyph-name="Adblgrave" unicode="&#x200;" horiz-adv-x="625" 
d="M598 0h-87l-71 202h-268l-70 -202h-76l243 694h86zM421 258l-70 207c-17 51 -37 111 -44 152h-1c-7 -45 -67 -219 -115 -359h230zM422 740h-61l-74 176h76zM265 740h-61l-74 176h76z" />
    <glyph glyph-name="adblgrave" unicode="&#x201;" horiz-adv-x="451" 
d="M386 0h-74v37c-58 -43 -139 -45 -154 -45c-83 0 -108 81 -108 122c0 79 100 125 260 130v38c0 62 -31 101 -82 101c-72 0 -115 -29 -140 -47l-6 66c55 32 103 40 147 40c90 0 157 -65 157 -159v-283zM310 132v62c-31 -1 -187 -8 -187 -78c0 -35 34 -63 84 -63
c14 0 47 2 73 19c30 18 30 42 30 60zM361 518h-61l-74 176h76zM204 518h-61l-74 176h76z" />
    <glyph glyph-name="Adieresis" unicode="&#xc4;" horiz-adv-x="625" 
d="M598 0h-87l-71 202h-268l-70 -202h-76l243 694h86zM421 258l-70 207c-17 51 -37 111 -44 152h-1c-7 -45 -67 -219 -115 -359h230zM268 730h-76v75h76v-75zM432 730h-76v75h76v-75z" />
    <glyph glyph-name="adieresis" unicode="&#xe4;" horiz-adv-x="451" 
d="M386 0h-74v37c-58 -43 -139 -45 -154 -45c-83 0 -108 81 -108 122c0 79 100 125 260 130v38c0 62 -31 101 -82 101c-72 0 -115 -29 -140 -47l-6 66c55 32 103 40 147 40c90 0 157 -65 157 -159v-283zM310 132v62c-31 -1 -187 -8 -187 -78c0 -35 34 -63 84 -63
c14 0 47 2 73 19c30 18 30 42 30 60zM193 569h-76v75h76v-75zM333 569h-76v75h76v-75z" />
    <glyph glyph-name="Adotbelow" unicode="&#x1ea0;" horiz-adv-x="625" 
d="M598 0h-87l-71 202h-268l-70 -202h-76l243 694h86zM421 258l-70 207c-17 51 -37 111 -44 152h-1c-7 -45 -67 -219 -115 -359h230zM355 -200h-84v84h84v-84z" />
    <glyph glyph-name="adotbelow" unicode="&#x1ea1;" horiz-adv-x="451" 
d="M386 0h-74v37c-58 -43 -139 -45 -154 -45c-83 0 -108 81 -108 122c0 79 100 125 260 130v38c0 62 -31 101 -82 101c-72 0 -115 -29 -140 -47l-6 66c55 32 103 40 147 40c90 0 157 -65 157 -159v-283zM310 132v62c-31 -1 -187 -8 -187 -78c0 -35 34 -63 84 -63
c14 0 47 2 73 19c30 18 30 42 30 60zM268 -200h-84v84h84v-84z" />
    <glyph glyph-name="AE" unicode="&#xc6;" horiz-adv-x="809" 
d="M769 0h-376v222h-206l-85 -222h-76l265 694h465v-65h-143c-12 0 -24 1 -36 1h-101v-239h254v-61h-254v-263c11 1 31 1 107 1l186 1v-69zM393 278v352h-50l-134 -352h184z" />
    <glyph glyph-name="ae" unicode="&#xe6;" horiz-adv-x="679" 
d="M652 219h-275c1 -99 61 -166 132 -166c36 0 87 12 132 52c0 -4 3 -37 3 -37s3 -23 3 -27c-43 -34 -93 -49 -139 -49c-93 0 -148 66 -152 71c-26 -35 -66 -48 -89 -55c-51 -16 -112 -16 -116 -16c-91 0 -109 90 -109 124c0 96 148 130 259 130v36c0 64 -34 101 -82 101
c-62 0 -104 -21 -141 -47l-6 66c59 35 112 40 148 40c63 0 106 -30 133 -71c42 51 96 71 140 71c159 0 159 -190 159 -223zM585 274c-11 80 -54 107 -92 107c-44 0 -91 -39 -109 -107h201zM305 125c0 17 0 32 -2 50l-1 17c-43 -2 -187 -9 -187 -75c0 -34 32 -64 83 -64
c9 0 107 0 107 72z" />
    <glyph glyph-name="AEacute" unicode="&#x1fc;" horiz-adv-x="809" 
d="M769 0h-376v222h-206l-85 -222h-76l265 694h465v-65h-143c-12 0 -24 1 -36 1h-101v-239h254v-61h-254v-263c11 1 31 1 107 1l186 1v-69zM393 278v352h-50l-134 -352h184zM595 862l-197 -122h-89l175 122h111z" />
    <glyph glyph-name="aeacute" unicode="&#x1fd;" horiz-adv-x="679" 
d="M652 219h-275c1 -99 61 -166 132 -166c36 0 87 12 132 52c0 -4 3 -37 3 -37s3 -23 3 -27c-43 -34 -93 -49 -139 -49c-93 0 -148 66 -152 71c-26 -35 -66 -48 -89 -55c-51 -16 -112 -16 -116 -16c-91 0 -109 90 -109 124c0 96 148 130 259 130v36c0 64 -34 101 -82 101
c-62 0 -104 -21 -141 -47l-6 66c59 35 112 40 148 40c63 0 106 -30 133 -71c42 51 96 71 140 71c159 0 159 -190 159 -223zM585 274c-11 80 -54 107 -92 107c-44 0 -91 -39 -109 -107h201zM305 125c0 17 0 32 -2 50l-1 17c-43 -2 -187 -9 -187 -75c0 -34 32 -64 83 -64
c9 0 107 0 107 72zM472 694l-139 -176h-61l124 176h76z" />
    <glyph glyph-name="Agrave" unicode="&#xc0;" horiz-adv-x="625" 
d="M598 0h-87l-71 202h-268l-70 -202h-76l243 694h86zM421 258l-70 207c-17 51 -37 111 -44 152h-1c-7 -45 -67 -219 -115 -359h230zM407 740h-89l-197 122h111z" />
    <glyph glyph-name="agrave" unicode="&#xe0;" horiz-adv-x="451" 
d="M386 0h-74v37c-58 -43 -139 -45 -154 -45c-83 0 -108 81 -108 122c0 79 100 125 260 130v38c0 62 -31 101 -82 101c-72 0 -115 -29 -140 -47l-6 66c55 32 103 40 147 40c90 0 157 -65 157 -159v-283zM310 132v62c-31 -1 -187 -8 -187 -78c0 -35 34 -63 84 -63
c14 0 47 2 73 19c30 18 30 42 30 60zM292 518h-61l-139 176h76z" />
    <glyph glyph-name="Ahookabove" unicode="&#x1ea2;" horiz-adv-x="625" 
d="M598 0h-87l-71 202h-268l-70 -202h-76l243 694h86zM421 258l-70 207c-17 51 -37 111 -44 152h-1c-7 -45 -67 -219 -115 -359h230zM402 869c0 -19 -9 -36 -25 -47l-4 -2c-38 -25 -58 -41 -58 -69v-20l-1 -1h-17v1v20c0 37 22 72 56 91c10 6 16 16 16 27c0 14 -5 27 -15 34
c-12 9 -28 11 -48 11c-30 0 -58 -14 -75 -39h-1l-8 23v1c20 26 51 42 84 42c28 0 52 -5 71 -19c16 -12 25 -32 25 -53z" />
    <glyph glyph-name="ahookabove" unicode="&#x1ea3;" horiz-adv-x="451" 
d="M386 0h-74v37c-58 -43 -139 -45 -154 -45c-83 0 -108 81 -108 122c0 79 100 125 260 130v38c0 62 -31 101 -82 101c-72 0 -115 -29 -140 -47l-6 66c55 32 103 40 147 40c90 0 157 -65 157 -159v-283zM310 132v62c-31 -1 -187 -8 -187 -78c0 -35 34 -63 84 -63
c14 0 47 2 73 19c30 18 30 42 30 60zM315 640c0 -19 -9 -36 -25 -47l-4 -2c-38 -25 -58 -41 -58 -69v-20l-1 -1h-17v1v20c0 37 22 72 56 91c10 6 16 16 16 27c0 14 -5 27 -15 34c-12 9 -28 11 -48 11c-30 0 -58 -14 -75 -39h-1l-8 23v1c20 26 51 42 84 42c28 0 52 -5 71 -19
c16 -12 25 -32 25 -53z" />
    <glyph glyph-name="Alpha" unicode="&#x391;" horiz-adv-x="625" 
d="M598 0h-87l-71 202h-268l-70 -202h-76l243 694h86zM421 258l-70 207c-17 51 -37 111 -44 152h-1c-7 -45 -67 -219 -115 -359h230z" />
    <glyph glyph-name="Amacron" unicode="&#x100;" horiz-adv-x="625" 
d="M598 0h-87l-71 202h-268l-70 -202h-76l243 694h86zM421 258l-70 207c-17 51 -37 111 -44 152h-1c-7 -45 -67 -219 -115 -359h230zM482 750h-339v64h339v-64z" />
    <glyph glyph-name="amacron" unicode="&#x101;" horiz-adv-x="451" 
d="M386 0h-74v37c-58 -43 -139 -45 -154 -45c-83 0 -108 81 -108 122c0 79 100 125 260 130v38c0 62 -31 101 -82 101c-72 0 -115 -29 -140 -47l-6 66c55 32 103 40 147 40c90 0 157 -65 157 -159v-283zM310 132v62c-31 -1 -187 -8 -187 -78c0 -35 34 -63 84 -63
c14 0 47 2 73 19c30 18 30 42 30 60zM395 574h-339v64h339v-64z" />
    <glyph glyph-name="anglearc" unicode="&#x2222;" horiz-adv-x="731" 
d="M678 17c0 -12 -12 -20 -23 -16l-135 53c-18 -40 -40 -77 -68 -112c-3 -4 -8 -6 -13 -6c-9 0 -17 8 -17 17c0 4 1 8 4 11c25 31 46 66 62 103l-425 167c-7 3 -11 9 -11 16s4 13 11 16l425 167c-16 37 -37 72 -62 103c-3 3 -4 7 -4 11c0 9 8 17 17 17c5 0 10 -2 13 -6
c28 -35 50 -72 68 -112l135 53c11 4 23 -4 23 -16c0 -7 -4 -13 -11 -16l-135 -53c18 -52 28 -108 28 -164s-10 -112 -28 -164l135 -53c7 -3 11 -9 11 -16zM526 250c0 52 -9 103 -26 152l-385 -152l385 -151c17 48 26 99 26 151z" />
    <glyph glyph-name="angleleft" unicode="&#x2329;" horiz-adv-x="366" 
d="M313 -231c0 -8 -8 -18 -17 -18c-14 0 -18 15 -22 26l-77 212l-85 234c-3 8 -9 18 -9 27c0 10 6 22 10 31c47 142 104 282 153 423c6 15 10 41 25 45l5 1c8 0 16 -7 17 -16c0 -6 -3 -12 -5 -18l-48 -132l-110 -303l-7 -19c-1 -4 -3 -8 -3 -12c1 -9 6 -19 9 -27l20 -54
l130 -357c4 -13 11 -27 14 -41v-2z" />
    <glyph glyph-name="angleright" unicode="&#x232a;" horiz-adv-x="366" 
d="M262 251c0 -10 -6 -22 -10 -31l-103 -284l-51 -141c-6 -16 -10 -42 -27 -44c-14 0 -18 10 -18 17s3 16 5 22l133 365l31 84c1 4 3 8 3 12c-1 9 -6 19 -9 27l-21 56l-130 359l-8 23c-2 5 -4 10 -5 15c0 8 5 16 13 18l5 1c18 0 24 -33 30 -49l132 -363l21 -58
c3 -9 9 -19 9 -29z" />
    <glyph glyph-name="Aogonek" unicode="&#x104;" horiz-adv-x="625" 
d="M621 -187c-40 -19 -65 -25 -98 -25c-67 0 -98 42 -99 85c-3 51 37 99 87 127l-71 202h-268l-70 -202h-76l243 694h86l243 -694h-23c-46 -26 -89 -60 -88 -104c1 -30 25 -36 53 -38c22 -1 45 5 67 14zM421 258l-70 207c-17 51 -37 111 -44 152h-1
c-7 -45 -67 -219 -115 -359h230z" />
    <glyph glyph-name="aogonek" unicode="&#x105;" horiz-adv-x="451" 
d="M422 -187c-40 -19 -65 -25 -98 -25c-67 0 -98 42 -99 85c-3 51 37 99 87 127v37c-58 -43 -139 -45 -154 -45c-83 0 -108 81 -108 122c0 79 100 125 260 130v38c0 62 -31 101 -82 101c-72 0 -115 -29 -140 -47l-6 66c55 32 103 40 147 40c90 0 157 -65 157 -159v-283h-11
c-46 -26 -88 -60 -87 -104c1 -30 25 -36 53 -38c22 -1 45 5 67 14zM310 132v62c-31 -1 -187 -8 -187 -78c0 -35 34 -63 84 -63c14 0 47 2 73 19c30 18 30 42 30 60z" />
    <glyph glyph-name="Aring" unicode="&#xc5;" horiz-adv-x="625" 
d="M598 0h-87l-71 202h-268l-70 -202h-76l243 694h86zM421 258l-70 207c-17 51 -37 111 -44 152h-1c-7 -45 -67 -219 -115 -359h230zM359 782c0 32 -27 39 -47 39c-22 0 -47 -8 -47 -39c0 -32 27 -39 47 -39c22 0 47 8 47 39zM417 782c0 -46 -45 -88 -105 -88
s-105 42 -105 88s45 88 105 88s105 -42 105 -88z" />
    <glyph glyph-name="aring" unicode="&#xe5;" horiz-adv-x="451" 
d="M386 0h-74v37c-58 -43 -139 -45 -154 -45c-83 0 -108 81 -108 122c0 79 100 125 260 130v38c0 62 -31 101 -82 101c-72 0 -115 -29 -140 -47l-6 66c55 32 103 40 147 40c90 0 157 -65 157 -159v-283zM310 132v62c-31 -1 -187 -8 -187 -78c0 -35 34 -63 84 -63
c14 0 47 2 73 19c30 18 30 42 30 60zM272 595c0 32 -27 39 -47 39c-22 0 -47 -8 -47 -39c0 -32 27 -39 47 -39c22 0 47 8 47 39zM330 595c0 -46 -45 -88 -105 -88s-105 42 -105 88s45 88 105 88s105 -42 105 -88z" />
    <glyph glyph-name="Aringacute" unicode="&#x1fa;" horiz-adv-x="625" 
d="M598 0h-87l-71 202h-268l-70 -202h-76l243 694h86zM421 258l-70 207c-17 51 -37 111 -44 152h-1c-7 -45 -67 -219 -115 -359h230zM359 782c0 32 -27 39 -47 39c-22 0 -47 -8 -47 -39c0 -32 27 -39 47 -39c22 0 47 8 47 39zM417 782c0 -46 -45 -88 -105 -88
s-105 42 -105 88s45 88 105 88s105 -42 105 -88zM455 1027l-197 -122h-89l175 122h111z" />
    <glyph glyph-name="aringacute" unicode="&#x1fb;" horiz-adv-x="451" 
d="M386 0h-74v37c-58 -43 -139 -45 -154 -45c-83 0 -108 81 -108 122c0 79 100 125 260 130v38c0 62 -31 101 -82 101c-72 0 -115 -29 -140 -47l-6 66c55 32 103 40 147 40c90 0 157 -65 157 -159v-283zM310 132v62c-31 -1 -187 -8 -187 -78c0 -35 34 -63 84 -63
c14 0 47 2 73 19c30 18 30 42 30 60zM272 595c0 32 -27 39 -47 39c-22 0 -47 -8 -47 -39c0 -32 27 -39 47 -39c22 0 47 8 47 39zM330 595c0 -46 -45 -88 -105 -88s-105 42 -105 88s45 88 105 88s105 -42 105 -88zM368 840l-197 -122h-89l175 122h111z" />
    <glyph glyph-name="uni2193" unicode="&#x2193;" 
d="M444 38c-111 -26 -194 -119 -209 -233c-14 114 -97 207 -209 233v35c82 -20 150 -71 192 -139v743c0 23 35 23 35 0v-743c42 68 110 119 191 139v-35z" />
    <glyph glyph-name="uni2190" unicode="&#x2190;" horiz-adv-x="940" 
d="M887 250c-1 -15 -14 -17 -27 -17l-719 -1c64 -43 129 -154 137 -239h-35c-16 109 -94 214 -191 257v1c97 43 175 148 191 257h35c-7 -78 -67 -191 -137 -239l721 -1c11 0 25 -2 25 -18z" />
    <glyph glyph-name="uni2192" unicode="&#x2192;" horiz-adv-x="940" 
d="M887 250c-97 -43 -175 -148 -191 -257h-35c7 78 67 191 137 239l-719 1c-13 0 -26 2 -27 17c0 16 14 18 25 18l721 1c-64 43 -129 154 -137 239h35c16 -109 94 -214 191 -257v-1z" />
    <glyph glyph-name="uni2191" unicode="&#x2191;" 
d="M444 427c-81 20 -149 70 -191 139v-743c0 -23 -35 -23 -35 0v743c-42 -69 -110 -119 -192 -139v35c112 26 195 119 209 232c15 -113 98 -206 209 -232v-35z" />
    <glyph glyph-name="asterisk.math" unicode="&#x2217;" 
d="M408 159c0 -14 -11 -28 -27 -28c-12 0 -23 10 -33 17l-92 64c0 -45 5 -89 5 -134v-22c-3 -11 -14 -19 -25 -20c-16 0 -28 11 -28 29v11c0 45 5 91 5 136l-92 -64c-10 -7 -21 -17 -33 -17c-16 0 -27 14 -27 28c0 25 46 42 70 55l40 23c8 5 15 10 24 13v2
c-9 3 -16 8 -24 13l-40 23l-39 22s-31 16 -31 33c0 14 11 28 27 28c12 0 23 -10 33 -17l92 -64c0 45 -5 89 -5 134v22c3 11 14 19 25 20c17 0 28 -12 28 -30v-10c0 -45 -5 -91 -5 -136l92 64c10 7 21 17 33 17c16 0 27 -14 27 -28c0 -25 -46 -42 -70 -55l-40 -23
c-8 -5 -15 -10 -24 -13v-2c9 -3 16 -8 24 -13l40 -23l39 -22s31 -16 31 -33z" />
    <glyph glyph-name="Atilde" unicode="&#xc3;" horiz-adv-x="625" 
d="M598 0h-87l-71 202h-268l-70 -202h-76l243 694h86zM421 258l-70 207c-17 51 -37 111 -44 152h-1c-7 -45 -67 -219 -115 -359h230zM469 847c-2 -79 -51 -117 -92 -117c-27 0 -46 14 -73 33c-20 15 -38 23 -53 23c-28 0 -34 -32 -34 -56h-61c2 79 51 117 92 117
c27 0 46 -14 73 -33c20 -15 38 -23 53 -23c28 0 34 32 34 56h61z" />
    <glyph glyph-name="atilde" unicode="&#xe3;" horiz-adv-x="451" 
d="M386 0h-74v37c-58 -43 -139 -45 -154 -45c-83 0 -108 81 -108 122c0 79 100 125 260 130v38c0 62 -31 101 -82 101c-72 0 -115 -29 -140 -47l-6 66c55 32 103 40 147 40c90 0 157 -65 157 -159v-283zM310 132v62c-31 -1 -187 -8 -187 -78c0 -35 34 -63 84 -63
c14 0 47 2 73 19c30 18 30 42 30 60zM382 665c-2 -79 -51 -117 -92 -117c-27 0 -46 14 -73 33c-20 15 -38 23 -53 23c-28 0 -34 -32 -34 -56h-61c2 79 51 117 92 117c27 0 46 -14 73 -33c20 -15 38 -23 53 -23c28 0 34 32 34 56h61z" />
    <glyph glyph-name="baht" unicode="&#xe3f;" horiz-adv-x="626" 
d="M573 188c0 -98 -99 -188 -235 -188h-1v-64h-64v64h-184v694h184v64h64v-65c124 -9 210 -89 210 -173c0 -43 -26 -119 -156 -157c117 -22 182 -99 182 -175zM469 519c0 54 -55 100 -132 114v-236c88 17 132 72 132 122zM273 391v247h-103v-247h103zM494 189
c0 66 -66 127 -157 139v-271c96 10 157 70 157 132zM273 56v274h-103v-274h103z" />
    <glyph glyph-name="Beta" unicode="&#x392;" horiz-adv-x="626" 
d="M573 188c0 -98 -99 -188 -235 -188h-249v694h223c137 0 235 -84 235 -174c0 -43 -26 -119 -156 -157c117 -22 182 -99 182 -175zM469 519c0 66 -81 119 -184 119h-115v-247h106c129 0 193 68 193 128zM494 189c0 74 -83 141 -191 141h-133v-274h140c111 0 184 65 184 133
z" />
    <glyph glyph-name="blanksymbol" unicode="&#x2422;" horiz-adv-x="484" 
d="M450 216c0 -127 -78 -224 -174 -224c-41 0 -87 16 -125 53v-45h-76v478l-31 -30l-44 47l75 70v129h74v-60l48 44l43 -46l-91 -86v-161c33 27 89 53 152 53c89 0 149 -106 149 -222zM374 216c0 118 -67 161 -126 161c-44 0 -75 -23 -97 -51v-198c0 -14 0 -29 27 -53
c20 -17 41 -22 61 -22c55 0 135 37 135 163z" />
    <glyph glyph-name="breve" unicode="&#x2d8;" 
d="M396 703c-3 -117 -75 -193 -161 -193c-82 0 -157 73 -160 193h61c2 -78 46 -127 100 -127c50 0 97 47 99 127h61z" />
    <glyph glyph-name="uni032E" unicode="&#x32e;" horiz-adv-x="0" 
d="M-65 -61c-3 -117 -75 -193 -161 -193c-82 0 -157 73 -160 193h61c2 -78 46 -127 100 -127c50 0 97 47 99 127h61z" />
    <glyph glyph-name="uni032F" unicode="&#x32f;" horiz-adv-x="0" 
d="M-65 -254h-61c-2 78 -46 127 -100 127c-50 0 -97 -47 -99 -127h-61c3 117 75 193 161 193c82 0 157 -73 160 -193z" />
    <glyph glyph-name="uni0306" unicode="&#x306;" horiz-adv-x="0" 
d="M-65 703c-3 -117 -75 -193 -161 -193c-82 0 -157 73 -160 193h61c2 -78 46 -127 100 -127c50 0 97 47 99 127h61z" />
    <glyph glyph-name="uni0311" unicode="&#x311;" horiz-adv-x="0" 
d="M-65 510h-61c-2 78 -46 127 -100 127c-50 0 -97 -47 -99 -127h-61c3 117 75 193 161 193c82 0 157 -73 160 -193z" />
    <glyph glyph-name="brokenbar" unicode="&#xa6;" horiz-adv-x="278" 
d="M159 343c0 -15 -6 -32 -20 -32s-20 17 -20 32v374c0 14 0 33 20 33s20 -19 20 -33v-374zM159 -217c0 -14 0 -33 -20 -33s-20 19 -20 33v374c0 15 6 32 20 32s20 -17 20 -32v-374z" />
    <glyph glyph-name="bullet" unicode="&#x2022;" horiz-adv-x="731" 
d="M493 142h-254v254h254v-254z" />
    <glyph glyph-name="Cacute" unicode="&#x106;" horiz-adv-x="601" 
d="M547 47c-28 -18 -56 -35 -88 -45c-32 -9 -65 -10 -98 -10c-82 0 -158 40 -212 103c-59 69 -88 158 -88 248c0 91 29 180 88 249c54 63 130 103 212 103c30 0 60 -2 89 -8c30 -6 59 -15 87 -26l-14 -80c-25 15 -50 30 -78 38c-27 9 -55 12 -84 12c-61 0 -116 -36 -152 -84
c-45 -58 -65 -131 -65 -204c0 -72 20 -144 65 -203c36 -49 91 -84 152 -84c32 0 64 1 95 11c32 10 58 29 85 48zM521 862l-197 -122h-89l175 122h111z" />
    <glyph glyph-name="cacute" unicode="&#x107;" horiz-adv-x="418" 
d="M391 40c-39 -26 -87 -48 -154 -48c-117 0 -204 103 -204 223c0 114 78 227 208 227c11 0 53 0 86 -12c12 -4 58 -24 58 -31l-11 -62c-46 31 -77 42 -132 42c-100 0 -133 -91 -133 -163c0 -93 51 -161 129 -161c54 0 104 18 147 51zM363 694l-139 -176h-61l124 176h76z
" />
    <glyph glyph-name="caron" unicode="&#x2c7;" 
d="M390 692l-125 -172h-60l-125 172h59l96 -123l96 123h59z" />
    <glyph glyph-name="uni030C" unicode="&#x30c;" horiz-adv-x="0" 
d="M-71 692l-125 -172h-60l-125 172h59l96 -123l96 123h59z" />
    <glyph glyph-name="Ccaron" unicode="&#x10c;" horiz-adv-x="601" 
d="M547 47c-28 -18 -56 -35 -88 -45c-32 -9 -65 -10 -98 -10c-82 0 -158 40 -212 103c-59 69 -88 158 -88 248c0 91 29 180 88 249c54 63 130 103 212 103c30 0 60 -2 89 -8c30 -6 59 -15 87 -26l-14 -80c-25 15 -50 30 -78 38c-27 9 -55 12 -84 12c-61 0 -116 -36 -152 -84
c-45 -58 -65 -131 -65 -204c0 -72 20 -144 65 -203c36 -49 91 -84 152 -84c32 0 64 1 95 11c32 10 58 29 85 48zM486 864l-126 -134h-60l-126 134h59l97 -97l97 97h59z" />
    <glyph glyph-name="ccaron" unicode="&#x10d;" horiz-adv-x="418" 
d="M391 40c-39 -26 -87 -48 -154 -48c-117 0 -204 103 -204 223c0 114 78 227 208 227c11 0 53 0 86 -12c12 -4 58 -24 58 -31l-11 -62c-46 31 -77 42 -132 42c-100 0 -133 -91 -133 -163c0 -93 51 -161 129 -161c54 0 104 18 147 51zM385 692l-125 -172h-60l-125 172h59
l96 -123l96 123h59z" />
    <glyph glyph-name="Ccedilla" unicode="&#xc7;" horiz-adv-x="601" 
d="M553 40c-64 -42 -101 -56 -181 -56c-185 0 -310 172 -310 363c0 193 128 363 309 363c61 0 113 -11 172 -35l-14 -80c-62 43 -114 51 -159 51c-132 0 -224 -140 -224 -299c0 -150 83 -299 227 -299c71 0 113 13 173 60c1 -10 4 -26 4 -35zM376 -34l-62 -168h-68l69 168
h61z" />
    <glyph glyph-name="ccedilla" unicode="&#xe7;" horiz-adv-x="418" 
d="M391 40c-39 -26 -87 -48 -154 -48c-117 0 -204 103 -204 223c0 114 78 227 208 227c11 0 53 0 86 -12c12 -4 58 -24 58 -31l-11 -62c-46 31 -77 42 -132 42c-100 0 -133 -91 -133 -163c0 -93 51 -161 129 -161c54 0 104 18 147 51zM275 -34l-62 -168h-68l69 168h61z" />
    <glyph glyph-name="Ccircumflex" unicode="&#x108;" horiz-adv-x="601" 
d="M547 47c-28 -18 -56 -35 -88 -45c-32 -9 -65 -10 -98 -10c-82 0 -158 40 -212 103c-59 69 -88 158 -88 248c0 91 29 180 88 249c54 63 130 103 212 103c30 0 60 -2 89 -8c30 -6 59 -15 87 -26l-14 -80c-25 15 -50 30 -78 38c-27 9 -55 12 -84 12c-61 0 -116 -36 -152 -84
c-45 -58 -65 -131 -65 -204c0 -72 20 -144 65 -203c36 -49 91 -84 152 -84c32 0 64 1 95 11c32 10 58 29 85 48zM486 730h-59l-97 97l-97 -97h-59l126 134h60z" />
    <glyph glyph-name="ccircumflex" unicode="&#x109;" horiz-adv-x="418" 
d="M391 40c-39 -26 -87 -48 -154 -48c-117 0 -204 103 -204 223c0 114 78 227 208 227c11 0 53 0 86 -12c12 -4 58 -24 58 -31l-11 -62c-46 31 -77 42 -132 42c-100 0 -133 -91 -133 -163c0 -93 51 -161 129 -161c54 0 104 18 147 51zM385 520h-59l-96 123l-96 -123h-59
l125 172h60z" />
    <glyph glyph-name="Cdotaccent" unicode="&#x10a;" horiz-adv-x="601" 
d="M547 47c-28 -18 -56 -35 -88 -45c-32 -9 -65 -10 -98 -10c-82 0 -158 40 -212 103c-59 69 -88 158 -88 248c0 91 29 180 88 249c54 63 130 103 212 103c30 0 60 -2 89 -8c30 -6 59 -15 87 -26l-14 -80c-25 15 -50 30 -78 38c-27 9 -55 12 -84 12c-61 0 -116 -36 -152 -84
c-45 -58 -65 -131 -65 -204c0 -72 20 -144 65 -203c36 -49 91 -84 152 -84c32 0 64 1 95 11c32 10 58 29 85 48zM372 730h-84v84h84v-84z" />
    <glyph glyph-name="cdotaccent" unicode="&#x10b;" horiz-adv-x="418" 
d="M391 40c-39 -26 -87 -48 -154 -48c-117 0 -204 103 -204 223c0 114 78 227 208 227c11 0 53 0 86 -12c12 -4 58 -24 58 -31l-11 -62c-46 31 -77 42 -132 42c-100 0 -133 -91 -133 -163c0 -93 51 -161 129 -161c54 0 104 18 147 51zM272 564h-84v84h84v-84z" />
    <glyph glyph-name="cedilla" unicode="&#xb8;" horiz-adv-x="418" 
d="M265 -18l-62 -168h-68l69 168h61z" />
    <glyph glyph-name="cent" unicode="&#xa2;" horiz-adv-x="418" 
d="M391 40c-34 -23 -75 -42 -129 -47v-57h-64v60c-97 20 -165 113 -165 219c0 101 61 201 165 223v57h64v-53c18 -1 43 -4 65 -12c12 -4 58 -24 58 -31l-11 -62c-40 27 -69 39 -112 41v-322c45 5 86 22 123 50zM198 62v310c-66 -22 -89 -96 -89 -156c0 -76 34 -135 89 -154z
" />
    <glyph glyph-name="centigrade" unicode="&#x2103;" horiz-adv-x="810" 
d="M762 46c0 -6 -4 -9 -9 -12c-59 -29 -100 -50 -166 -50c-202 0 -308 188 -308 359c0 164 102 346 284 357h12c62 0 120 -11 177 -34l-11 -63c-50 27 -100 45 -160 45c-163 0 -234 -176 -234 -307c0 -138 78 -304 238 -304c45 0 87 7 126 28c16 9 30 20 46 28
c1 -16 5 -31 5 -47zM209 579c0 -54 -41 -97 -94 -104h-9c-66 0 -106 52 -106 105c0 54 41 97 94 104h9c66 0 106 -52 106 -105zM174 579v8c-6 35 -34 62 -70 62s-69 -32 -69 -69v-8c6 -35 34 -62 70 -62s69 32 69 69z" />
    <glyph glyph-name="Chi" unicode="&#x3a7;" horiz-adv-x="625" 
d="M611 0h-99l-207 305l-200 -305h-92l251 366l-238 328h99l180 -260l175 260h92l-226 -328z" />
    <glyph glyph-name="circumflex" unicode="&#x2c6;" 
d="M390 520h-59l-96 123l-96 -123h-59l125 172h60z" />
    <glyph glyph-name="uni0302" unicode="&#x302;" horiz-adv-x="0" 
d="M-71 520h-59l-96 123l-96 -123h-59l125 172h60z" />
    <glyph glyph-name="colonmonetary" unicode="&#x20a1;" horiz-adv-x="601" 
d="M553 40c-64 -42 -101 -56 -181 -56h-10v-80h-64v90c-143 38 -236 189 -236 353c0 166 95 315 236 353v90h64v-80h9c61 0 113 -11 172 -35l-14 -80c-62 43 -114 51 -159 51h-8v-598h11c71 0 113 13 173 60c1 -10 4 -26 4 -35zM298 63v568c-92 -40 -152 -156 -152 -284
c0 -122 55 -243 152 -284z" />
    <glyph glyph-name="uni0326" unicode="&#x326;" horiz-adv-x="0" 
d="M-189 -129l-37 -113h-36l23 112h-22v72h72v-71z" />
    <glyph glyph-name="copyright" unicode="&#xa9;" horiz-adv-x="694" 
d="M694 347c0 -192 -155 -347 -347 -347s-347 155 -347 347s155 347 347 347s347 -155 347 -347zM660 347c0 173 -140 313 -313 313s-313 -140 -313 -313s140 -313 313 -313s313 140 313 313zM494 139c-44 -28 -69 -38 -123 -38c-125 0 -210 117 -210 246
c0 131 87 246 209 246c42 0 77 -7 117 -23l-10 -55c-42 30 -77 35 -107 35c-90 0 -152 -95 -152 -203c0 -101 56 -203 154 -203c48 0 76 9 117 41c1 -7 3 -17 3 -24z" />
    <glyph glyph-name="currency" unicode="&#xa4;" horiz-adv-x="731" 
d="M587 28c-12 -12 -24 0 -34 10l-73 73c-31 -26 -71 -41 -114 -41c-44 0 -84 15 -115 41l-73 -73c-11 -11 -22 -22 -35 -9c-12 12 0 24 10 33l73 74c-25 31 -41 71 -41 114s16 83 41 114l-73 73c-10 11 -22 22 -9 35c12 12 24 0 34 -10l73 -73c31 26 71 41 115 41
c43 0 83 -15 114 -41l72 72c11 11 22 22 35 9c12 -12 0 -24 -10 -33l-72 -72c26 -32 41 -71 41 -115s-15 -84 -41 -115l72 -73c11 -10 22 -21 10 -34zM512 250c0 81 -66 146 -146 146c-81 0 -147 -65 -147 -146s66 -146 147 -146c80 0 146 65 146 146z" />
    <glyph glyph-name="dagger" unicode="&#x2020;" horiz-adv-x="444" 
d="M387 430c0 -5 -2 -33 -37 -33c-21 0 -50 8 -69 14c-19 5 -39 9 -50 10c2 -27 5 -48 10 -71c14 -71 14 -78 14 -132c0 -96 -5 -199 -9 -262c-2 -51 -5 -104 -11 -154c-2 -13 -2 -18 -14 -18c-11 0 -12 6 -13 20c-9 95 -20 263 -20 414c0 53 0 61 14 133c5 25 8 45 10 70
c-20 -2 -45 -9 -48 -10c-21 -6 -50 -14 -71 -14c-31 0 -37 21 -37 34c0 5 2 33 37 33c21 0 50 -8 69 -14c19 -5 39 -9 50 -10c-1 29 -4 61 -11 107c-4 24 -13 82 -13 117c0 9 0 41 34 41c33 0 33 -33 33 -41c0 -37 -6 -74 -11 -111c-11 -65 -12 -93 -13 -113
c20 2 45 9 48 10c21 6 50 14 71 14c31 0 37 -21 37 -34z" />
    <glyph glyph-name="daggerdbl" unicode="&#x2021;" horiz-adv-x="444" 
d="M387 477c0 -5 -2 -33 -37 -33c-21 0 -50 8 -69 14c-19 5 -39 9 -50 10c1 -26 6 -54 13 -95c7 -35 11 -64 11 -84c0 -14 -4 -39 -34 -39c-11 0 -33 4 -33 39c0 28 7 68 13 101c3 14 10 48 11 78c-20 -2 -45 -9 -48 -10c-21 -6 -50 -14 -71 -14c-31 0 -37 21 -37 34
c0 5 2 33 37 33c21 0 50 -8 69 -14c19 -5 39 -9 50 -10c-1 26 -6 54 -13 95c-7 35 -11 64 -11 84c0 36 23 39 33 39c34 0 34 -32 34 -39c0 -28 -7 -68 -13 -101c-3 -14 -10 -48 -11 -78c20 2 45 9 48 10c21 6 50 14 71 14c31 0 37 -21 37 -34zM387 22c0 -15 -10 -33 -34 -33
c-5 0 -23 0 -56 9c-40 11 -43 12 -66 14c2 -30 7 -61 10 -72c6 -34 14 -77 14 -106c0 -14 -4 -39 -34 -39c-11 0 -33 4 -33 39c0 5 0 28 11 84c7 42 11 66 13 94c-17 -2 -24 -3 -63 -13c-11 -4 -35 -10 -59 -10s-34 18 -34 33c0 13 9 33 34 33c7 0 24 0 56 -9
c40 -11 43 -12 66 -14c-2 30 -7 61 -10 72c-6 34 -14 77 -14 106c0 14 4 39 34 39c11 0 33 -4 33 -39c0 -5 0 -28 -11 -84c-7 -42 -11 -66 -13 -94c22 2 29 4 55 12c31 8 48 11 68 11c21 0 33 -16 33 -33z" />
    <glyph glyph-name="dblbracketleft" unicode="&#x27e6;" horiz-adv-x="379" 
d="M358 -248h-246v998h246v-35h-94v-928h94v-35zM229 -213v928h-82v-928h82z" />
    <glyph glyph-name="dblbracketright" unicode="&#x27e7;" horiz-adv-x="379" 
d="M266 -248h-245v35h93v928h-93v35h245v-998zM231 -213v928h-82v-928h82z" />
    <glyph glyph-name="uni030F" unicode="&#x30f;" horiz-adv-x="0" 
d="M-90 518h-61l-74 176h76zM-247 518h-61l-74 176h76z" />
    <glyph glyph-name="dblverticalbar" unicode="&#x2016;" horiz-adv-x="380" 
d="M159 -217c0 -14 0 -33 -20 -33s-20 19 -20 33v934c0 14 0 33 20 33s20 -19 20 -33v-934zM261 -217c0 -14 0 -33 -20 -33s-20 19 -20 33v934c0 14 0 33 20 33s20 -19 20 -33v-934z" />
    <glyph glyph-name="Dcaron" unicode="&#x10e;" horiz-adv-x="678" 
d="M625 341c0 -187 -126 -341 -290 -341h-246v694h246c164 0 290 -160 290 -353zM543 341c0 174 -96 297 -230 297h-142v-582h142c135 0 230 118 230 285zM398 864l-126 -134h-60l-126 134h59l97 -97l97 97h59z" />
    <glyph glyph-name="dcaron" unicode="&#x10f;" horiz-adv-x="484" 
d="M408 0h-76v50c-24 -21 -70 -58 -139 -58c-89 0 -160 99 -160 223s72 223 163 223c56 0 107 -24 138 -50v306h74v-694zM332 134v195c-21 30 -51 48 -88 48c-55 0 -135 -37 -135 -163c0 -121 71 -161 125 -161c23 0 47 8 67 25c31 27 31 42 31 56zM516 623l-37 -113h-36
l23 112h-22v72h72v-71z" />
    <glyph glyph-name="Dcroat" unicode="&#x110;" horiz-adv-x="678" 
d="M625 341c0 -187 -126 -341 -290 -341h-246v315h-76v64h76v315h246c164 0 290 -160 290 -353zM543 341c0 174 -96 297 -230 297h-142v-259h92v-64h-92v-259h142c135 0 230 118 230 285z" />
    <glyph glyph-name="dcroat" unicode="&#x111;" horiz-adv-x="484" 
d="M484 530h-76v-530h-76v50c-24 -21 -70 -58 -139 -58c-89 0 -160 99 -160 223s72 223 163 223c56 0 107 -24 138 -50v142h-140v64h140v100h74v-100h76v-64zM332 134v195c-21 30 -51 48 -88 48c-55 0 -135 -37 -135 -163c0 -121 71 -161 125 -161c23 0 47 8 67 25
c31 27 31 42 31 56z" />
    <glyph glyph-name="Ddotbelow" unicode="&#x1e0c;" horiz-adv-x="678" 
d="M625 341c0 -187 -126 -341 -290 -341h-246v694h246c164 0 290 -160 290 -353zM543 341c0 174 -96 297 -230 297h-142v-582h142c135 0 230 118 230 285zM284 -200h-84v84h84v-84z" />
    <glyph glyph-name="ddotbelow" unicode="&#x1e0d;" horiz-adv-x="484" 
d="M408 0h-76v50c-24 -21 -70 -58 -139 -58c-89 0 -160 99 -160 223s72 223 163 223c56 0 107 -24 138 -50v306h74v-694zM332 134v195c-21 30 -51 48 -88 48c-55 0 -135 -37 -135 -163c0 -121 71 -161 125 -161c23 0 47 8 67 25c31 27 31 42 31 56zM284 -200h-84v84h84v-84z
" />
    <glyph glyph-name="degree" unicode="&#xb0;" horiz-adv-x="353" 
d="M307 564c0 -72 -59 -131 -131 -131s-130 59 -130 131s58 130 130 130s131 -58 131 -130zM273 564c0 53 -43 96 -97 96c-53 0 -96 -43 -96 -96c0 -54 43 -97 96 -97c54 0 97 43 97 97z" />
    <glyph glyph-name="Delta" unicode="&#x394;" horiz-adv-x="784" 
d="M744 0h-705l308 694h89zM617 79l-145 328c-31 70 -72 162 -88 213c-14 -48 -55 -139 -84 -206l-148 -335h465z" />
    <glyph glyph-name="diameter" unicode="&#x2300;" horiz-adv-x="731" 
d="M678 546c0 -5 -2 -9 -5 -12l-86 -86c47 -52 76 -122 76 -198c0 -165 -133 -298 -298 -298c-76 0 -145 28 -198 75l-86 -86c-3 -3 -7 -5 -12 -5c-9 0 -17 8 -17 17c0 5 2 9 5 12l86 86c-47 53 -76 123 -76 199c0 165 133 298 298 298c76 0 146 -29 198 -76l86 86
c3 3 7 5 12 5c9 0 17 -8 17 -17zM629 250c0 67 -25 128 -66 174l-372 -373c47 -40 107 -65 174 -65c146 0 264 118 264 264zM539 448c-46 41 -107 66 -174 66c-146 0 -264 -118 -264 -264c0 -67 25 -128 66 -175z" />
    <glyph glyph-name="dieresis" unicode="&#xa8;" 
d="M203 569h-76v75h76v-75zM343 569h-76v75h76v-75z" />
    <glyph glyph-name="uni0308" unicode="&#x308;" horiz-adv-x="0" 
d="M-258 569h-76v75h76v-75zM-118 569h-76v75h76v-75z" />
    <glyph glyph-name="discount" unicode="&#x2052;" 
d="M416 731c0 -3 0 -6 -1 -8c-17 -39 -37 -77 -54 -116l-262 -566l-12 -27c-3 -6 -8 -12 -15 -13h-2c-9 0 -18 8 -18 18c0 6 4 12 6 17l58 125l255 551c5 13 12 34 24 37c2 1 5 1 5 1c10 0 16 -9 16 -19zM170 676c0 -10 -3 -22 -14 -25h-61c-12 0 -25 1 -25 21v57
c0 13 5 19 16 21c3 1 7 1 11 1h47c14 0 26 -5 26 -24v-51zM400 27c0 -19 -8 -26 -24 -26h-53c-13 0 -23 4 -23 23v63c2 6 7 11 13 13c3 1 6 1 10 1h51c21 0 26 -10 26 -29v-45z" />
    <glyph glyph-name="divide" unicode="&#xf7;" horiz-adv-x="731" 
d="M678 250c0 -17 -15 -17 -30 -17h-566c-15 0 -30 0 -30 17c0 18 17 18 34 18h558c17 0 34 0 34 -18zM405 332h-80v80h80v-80zM405 90h-80v80h80v-80z" />
    <glyph glyph-name="divorced" unicode="&#x26ae;" 
d="M654 253c0 -96 -53 -206 -155 -217h-11c-108 0 -166 119 -166 215c0 97 55 204 155 215c4 0 8 1 12 1c106 0 165 -123 165 -214zM147 250c0 -96 -55 -203 -156 -214h-11c-107 0 -164 121 -164 214c0 94 51 205 153 216c4 0 8 1 12 1c109 0 166 -123 166 -217zM265 -104
h-60v710h60v-710zM88 248v27c-6 64 -41 136 -109 136c-88 0 -108 -107 -108 -166v-11c8 -66 37 -143 110 -143c84 0 107 96 107 157zM598 249c0 69 -29 162 -114 162c-68 0 -98 -80 -103 -136v-27c0 -67 30 -157 106 -157c73 0 105 77 110 142c1 5 1 11 1 16z" />
    <glyph glyph-name="Dlinebelow" unicode="&#x1e0e;" horiz-adv-x="678" 
d="M625 341c0 -187 -126 -341 -290 -341h-246v694h246c164 0 290 -160 290 -353zM543 341c0 174 -96 297 -230 297h-142v-582h142c135 0 230 118 230 285zM412 -190h-339v64h339v-64z" />
    <glyph glyph-name="dlinebelow" unicode="&#x1e0f;" horiz-adv-x="484" 
d="M408 0h-76v50c-24 -21 -70 -58 -139 -58c-89 0 -160 99 -160 223s72 223 163 223c56 0 107 -24 138 -50v306h74v-694zM332 134v195c-21 30 -51 48 -88 48c-55 0 -135 -37 -135 -163c0 -121 71 -161 125 -161c23 0 47 8 67 25c31 27 31 42 31 56zM412 -190h-339v64h339
v-64z" />
    <glyph glyph-name="dong" unicode="&#x20ab;" horiz-adv-x="484" 
d="M460 538h-72v-503h-73v47c-22 -20 -66 -55 -132 -55c-84 0 -152 94 -152 212s69 212 155 212c53 0 102 -23 131 -48v135h-133v61h133v95h71v-95h72v-61zM460 -64h-429v64h429v-64zM315 162v185c-20 29 -48 46 -83 46c-52 0 -128 -35 -128 -155c0 -115 67 -153 118 -153
c22 0 45 8 64 24c29 25 29 40 29 53z" />
    <glyph glyph-name="dotaccent" unicode="&#x2d9;" horiz-adv-x="261" 
d="M173 564h-84v84h84v-84z" />
    <glyph glyph-name="uni0307" unicode="&#x307;" horiz-adv-x="0" 
d="M-183 564h-84v84h84v-84z" />
    <glyph glyph-name="uni0323" unicode="&#x323;" horiz-adv-x="0" 
d="M-183 -200h-84v84h84v-84z" />
    <glyph glyph-name="dotlessi" unicode="&#x131;" horiz-adv-x="223" 
d="M148 0h-74v430h74v-430z" />
    <glyph glyph-name="uni0237" unicode="&#x237;" horiz-adv-x="249" 
d="M174 -60c0 -89 -56 -143 -119 -143c-42 0 -81 14 -113 34l20 61c19 -21 42 -31 69 -31s69 10 69 70v499h74v-490z" />
    <glyph glyph-name="Eacute" unicode="&#xc9;" horiz-adv-x="561" 
d="M521 0h-433v692h420v-65h-171c-12 0 -24 1 -36 1h-129v-238h310v-61h-310v-262l134 1l215 1v-69zM471 862l-197 -122h-89l175 122h111z" />
    <glyph glyph-name="eacute" unicode="&#xe9;" horiz-adv-x="418" 
d="M391 219h-290c3 -112 72 -166 136 -166c40 0 95 13 143 52c0 -4 3 -37 3 -37s3 -23 3 -27c-50 -36 -105 -49 -150 -49c-115 0 -206 101 -206 225c0 127 88 225 192 225c43 0 100 -16 135 -73c32 -53 34 -117 34 -150zM325 274c-18 105 -88 107 -103 107
c-56 0 -100 -52 -113 -107h216zM342 694l-139 -176h-61l124 176h76z" />
    <glyph glyph-name="Ebreve" unicode="&#x114;" horiz-adv-x="561" 
d="M521 0h-433v692h420v-65h-171c-12 0 -24 1 -36 1h-129v-238h310v-61h-310v-262l134 1l215 1v-69zM441 933c-3 -117 -75 -193 -161 -193c-82 0 -157 73 -160 193h61c2 -78 46 -127 100 -127c50 0 97 47 99 127h61z" />
    <glyph glyph-name="ebreve" unicode="&#x115;" horiz-adv-x="418" 
d="M391 219h-290c3 -112 72 -166 136 -166c40 0 95 13 143 52c0 -4 3 -37 3 -37s3 -23 3 -27c-50 -36 -105 -49 -150 -49c-115 0 -206 101 -206 225c0 127 88 225 192 225c43 0 100 -16 135 -73c32 -53 34 -117 34 -150zM325 274c-18 105 -88 107 -103 107
c-56 0 -100 -52 -113 -107h216zM370 703c-3 -117 -75 -193 -161 -193c-82 0 -157 73 -160 193h61c2 -78 46 -127 100 -127c50 0 97 47 99 127h61z" />
    <glyph glyph-name="Ecaron" unicode="&#x11a;" horiz-adv-x="561" 
d="M521 0h-433v692h420v-65h-171c-12 0 -24 1 -36 1h-129v-238h310v-61h-310v-262l134 1l215 1v-69zM436 864l-126 -134h-60l-126 134h59l97 -97l97 97h59z" />
    <glyph glyph-name="ecaron" unicode="&#x11b;" horiz-adv-x="418" 
d="M391 219h-290c3 -112 72 -166 136 -166c40 0 95 13 143 52c0 -4 3 -37 3 -37s3 -23 3 -27c-50 -36 -105 -49 -150 -49c-115 0 -206 101 -206 225c0 127 88 225 192 225c43 0 100 -16 135 -73c32 -53 34 -117 34 -150zM325 274c-18 105 -88 107 -103 107
c-56 0 -100 -52 -113 -107h216zM364 692l-125 -172h-60l-125 172h59l96 -123l96 123h59z" />
    <glyph glyph-name="Ecircumflex" unicode="&#xca;" horiz-adv-x="561" 
d="M521 0h-433v692h420v-65h-171c-12 0 -24 1 -36 1h-129v-238h310v-61h-310v-262l134 1l215 1v-69zM436 730h-59l-97 97l-97 -97h-59l126 134h60z" />
    <glyph glyph-name="ecircumflex" unicode="&#xea;" horiz-adv-x="418" 
d="M391 219h-290c3 -112 72 -166 136 -166c40 0 95 13 143 52c0 -4 3 -37 3 -37s3 -23 3 -27c-50 -36 -105 -49 -150 -49c-115 0 -206 101 -206 225c0 127 88 225 192 225c43 0 100 -16 135 -73c32 -53 34 -117 34 -150zM325 274c-18 105 -88 107 -103 107
c-56 0 -100 -52 -113 -107h216zM364 520h-59l-96 123l-96 -123h-59l125 172h60z" />
    <glyph glyph-name="Ecircumflexacute" unicode="&#x1ebe;" horiz-adv-x="561" 
d="M521 0h-433v692h420v-65h-171c-12 0 -24 1 -36 1h-129v-238h310v-61h-310v-262l134 1l215 1v-69zM436 730h-59l-97 97l-97 -97h-59l126 134h60zM423 1021l-197 -122h-89l175 122h111z" />
    <glyph glyph-name="ecircumflexacute" unicode="&#x1ebf;" horiz-adv-x="418" 
d="M391 219h-290c3 -112 72 -166 136 -166c40 0 95 13 143 52c0 -4 3 -37 3 -37s3 -23 3 -27c-50 -36 -105 -49 -150 -49c-115 0 -206 101 -206 225c0 127 88 225 192 225c43 0 100 -16 135 -73c32 -53 34 -117 34 -150zM325 274c-18 105 -88 107 -103 107
c-56 0 -100 -52 -113 -107h216zM365 520h-59l-97 97l-97 -97h-59l126 134h60zM352 811l-197 -122h-89l175 122h111z" />
    <glyph glyph-name="Ecircumflexdotbelow" unicode="&#x1ec6;" horiz-adv-x="561" 
d="M521 0h-433v692h420v-65h-171c-12 0 -24 1 -36 1h-129v-238h310v-61h-310v-262l134 1l215 1v-69zM436 730h-59l-97 97l-97 -97h-59l126 134h60zM323 -200h-84v84h84v-84z" />
    <glyph glyph-name="ecircumflexdotbelow" unicode="&#x1ec7;" horiz-adv-x="418" 
d="M391 219h-290c3 -112 72 -166 136 -166c40 0 95 13 143 52c0 -4 3 -37 3 -37s3 -23 3 -27c-50 -36 -105 -49 -150 -49c-115 0 -206 101 -206 225c0 127 88 225 192 225c43 0 100 -16 135 -73c32 -53 34 -117 34 -150zM325 274c-18 105 -88 107 -103 107
c-56 0 -100 -52 -113 -107h216zM364 520h-59l-96 123l-96 -123h-59l125 172h60zM251 -200h-84v84h84v-84z" />
    <glyph glyph-name="Ecircumflexgrave" unicode="&#x1ec0;" horiz-adv-x="561" 
d="M521 0h-433v692h420v-65h-171c-12 0 -24 1 -36 1h-129v-238h310v-61h-310v-262l134 1l215 1v-69zM436 730h-59l-97 97l-97 -97h-59l126 134h60zM423 899l-175 122h-111l197 -122h89z" />
    <glyph glyph-name="ecircumflexgrave" unicode="&#x1ec1;" horiz-adv-x="418" 
d="M391 219h-290c3 -112 72 -166 136 -166c40 0 95 13 143 52c0 -4 3 -37 3 -37s3 -23 3 -27c-50 -36 -105 -49 -150 -49c-115 0 -206 101 -206 225c0 127 88 225 192 225c43 0 100 -16 135 -73c32 -53 34 -117 34 -150zM325 274c-18 105 -88 107 -103 107
c-56 0 -100 -52 -113 -107h216zM365 520h-59l-97 97l-97 -97h-59l126 134h60zM352 689l-175 122h-111l197 -122h89z" />
    <glyph glyph-name="Ecircumflexhookabove" unicode="&#x1ec2;" horiz-adv-x="561" 
d="M521 0h-433v692h420v-65h-171c-12 0 -24 1 -36 1h-129v-238h310v-61h-310v-262l134 1l215 1v-69zM436 730h-59l-97 97l-97 -97h-59l126 134h60zM460 1018c0 -19 -9 -36 -25 -47l-4 -2c-38 -25 -58 -41 -58 -69v-20l-1 -1h-17v1v20c0 37 22 72 56 91c10 6 16 16 16 27
c0 14 -5 27 -15 34c-12 9 -28 11 -48 11c-30 0 -58 -14 -75 -39h-1l-8 23v1c20 26 51 42 84 42c28 0 52 -5 71 -19c16 -12 25 -32 25 -53z" />
    <glyph glyph-name="ecircumflexhookabove" unicode="&#x1ec3;" horiz-adv-x="418" 
d="M391 219h-290c3 -112 72 -166 136 -166c40 0 95 13 143 52c0 -4 3 -37 3 -37s3 -23 3 -27c-50 -36 -105 -49 -150 -49c-115 0 -206 101 -206 225c0 127 88 225 192 225c43 0 100 -16 135 -73c32 -53 34 -117 34 -150zM325 274c-18 105 -88 107 -103 107
c-56 0 -100 -52 -113 -107h216zM365 520h-59l-97 97l-97 -97h-59l126 134h60zM389 808c0 -19 -9 -36 -25 -47l-4 -2c-38 -25 -58 -41 -58 -69v-20l-1 -1h-17v1v20c0 37 22 72 56 91c10 6 16 16 16 27c0 14 -5 27 -15 34c-12 9 -28 11 -48 11c-30 0 -58 -14 -75 -39h-1l-8 23
v1c20 26 51 42 84 42c28 0 52 -5 71 -19c16 -12 25 -32 25 -53z" />
    <glyph glyph-name="Ecircumflextilde" unicode="&#x1ec4;" horiz-adv-x="561" 
d="M521 0h-433v692h420v-65h-171c-12 0 -24 1 -36 1h-129v-238h310v-61h-310v-262l134 1l215 1v-69zM436 730h-59l-97 97l-97 -97h-59l126 134h60zM437 1036c-2 -79 -51 -117 -92 -117c-27 0 -46 14 -73 33c-20 15 -38 23 -53 23c-28 0 -34 -32 -34 -56h-61
c2 79 51 117 92 117c27 0 46 -14 73 -33c20 -15 38 -23 53 -23c28 0 34 32 34 56h61z" />
    <glyph glyph-name="ecircumflextilde" unicode="&#x1ec5;" horiz-adv-x="418" 
d="M391 219h-290c3 -112 72 -166 136 -166c40 0 95 13 143 52c0 -4 3 -37 3 -37s3 -23 3 -27c-50 -36 -105 -49 -150 -49c-115 0 -206 101 -206 225c0 127 88 225 192 225c43 0 100 -16 135 -73c32 -53 34 -117 34 -150zM325 274c-18 105 -88 107 -103 107
c-56 0 -100 -52 -113 -107h216zM365 520h-59l-97 97l-97 -97h-59l126 134h60zM366 826c-2 -79 -51 -117 -92 -117c-27 0 -46 14 -73 33c-20 15 -38 23 -53 23c-28 0 -34 -32 -34 -56h-61c2 79 51 117 92 117c27 0 46 -14 73 -33c20 -15 38 -23 53 -23c28 0 34 32 34 56h61z
" />
    <glyph glyph-name="Edblgrave" unicode="&#x204;" horiz-adv-x="561" 
d="M521 0h-433v692h420v-65h-171c-12 0 -24 1 -36 1h-129v-238h310v-61h-310v-262l134 1l215 1v-69zM416 740h-61l-74 176h76zM259 740h-61l-74 176h76z" />
    <glyph glyph-name="edblgrave" unicode="&#x205;" horiz-adv-x="418" 
d="M391 219h-290c3 -112 72 -166 136 -166c40 0 95 13 143 52c0 -4 3 -37 3 -37s3 -23 3 -27c-50 -36 -105 -49 -150 -49c-115 0 -206 101 -206 225c0 127 88 225 192 225c43 0 100 -16 135 -73c32 -53 34 -117 34 -150zM325 274c-18 105 -88 107 -103 107
c-56 0 -100 -52 -113 -107h216zM345 518h-61l-74 176h76zM188 518h-61l-74 176h76z" />
    <glyph glyph-name="Edieresis" unicode="&#xcb;" horiz-adv-x="561" 
d="M521 0h-433v692h420v-65h-171c-12 0 -24 1 -36 1h-129v-238h310v-61h-310v-262l134 1l215 1v-69zM236 730h-76v75h76v-75zM400 730h-76v75h76v-75z" />
    <glyph glyph-name="edieresis" unicode="&#xeb;" horiz-adv-x="418" 
d="M391 219h-290c3 -112 72 -166 136 -166c40 0 95 13 143 52c0 -4 3 -37 3 -37s3 -23 3 -27c-50 -36 -105 -49 -150 -49c-115 0 -206 101 -206 225c0 127 88 225 192 225c43 0 100 -16 135 -73c32 -53 34 -117 34 -150zM325 274c-18 105 -88 107 -103 107
c-56 0 -100 -52 -113 -107h216zM177 569h-76v75h76v-75zM317 569h-76v75h76v-75z" />
    <glyph glyph-name="Edotaccent" unicode="&#x116;" horiz-adv-x="561" 
d="M521 0h-433v692h420v-65h-171c-12 0 -24 1 -36 1h-129v-238h310v-61h-310v-262l134 1l215 1v-69zM323 730h-84v84h84v-84z" />
    <glyph glyph-name="edotaccent" unicode="&#x117;" horiz-adv-x="418" 
d="M391 219h-290c3 -112 72 -166 136 -166c40 0 95 13 143 52c0 -4 3 -37 3 -37s3 -23 3 -27c-50 -36 -105 -49 -150 -49c-115 0 -206 101 -206 225c0 127 88 225 192 225c43 0 100 -16 135 -73c32 -53 34 -117 34 -150zM325 274c-18 105 -88 107 -103 107
c-56 0 -100 -52 -113 -107h216zM251 564h-84v84h84v-84z" />
    <glyph glyph-name="Edotbelow" unicode="&#x1eb8;" horiz-adv-x="561" 
d="M521 0h-433v692h420v-65h-171c-12 0 -24 1 -36 1h-129v-238h310v-61h-310v-262l134 1l215 1v-69zM323 -200h-84v84h84v-84z" />
    <glyph glyph-name="edotbelow" unicode="&#x1eb9;" horiz-adv-x="418" 
d="M391 219h-290c3 -112 72 -166 136 -166c40 0 95 13 143 52c0 -4 3 -37 3 -37s3 -23 3 -27c-50 -36 -105 -49 -150 -49c-115 0 -206 101 -206 225c0 127 88 225 192 225c43 0 100 -16 135 -73c32 -53 34 -117 34 -150zM325 274c-18 105 -88 107 -103 107
c-56 0 -100 -52 -113 -107h216zM251 -200h-84v84h84v-84z" />
    <glyph glyph-name="Egrave" unicode="&#xc8;" horiz-adv-x="561" 
d="M521 0h-433v692h420v-65h-171c-12 0 -24 1 -36 1h-129v-238h310v-61h-310v-262l134 1l215 1v-69zM375 740h-89l-197 122h111z" />
    <glyph glyph-name="egrave" unicode="&#xe8;" horiz-adv-x="418" 
d="M391 219h-290c3 -112 72 -166 136 -166c40 0 95 13 143 52c0 -4 3 -37 3 -37s3 -23 3 -27c-50 -36 -105 -49 -150 -49c-115 0 -206 101 -206 225c0 127 88 225 192 225c43 0 100 -16 135 -73c32 -53 34 -117 34 -150zM325 274c-18 105 -88 107 -103 107
c-56 0 -100 -52 -113 -107h216zM276 518h-61l-139 176h76z" />
    <glyph glyph-name="Ehookabove" unicode="&#x1eba;" horiz-adv-x="561" 
d="M521 0h-433v692h420v-65h-171c-12 0 -24 1 -36 1h-129v-238h310v-61h-310v-262l134 1l215 1v-69zM370 869c0 -19 -9 -36 -25 -47l-4 -2c-38 -25 -58 -41 -58 -69v-20l-1 -1h-17v1v20c0 37 22 72 56 91c10 6 16 16 16 27c0 14 -5 27 -15 34c-12 9 -28 11 -48 11
c-30 0 -58 -14 -75 -39h-1l-8 23v1c20 26 51 42 84 42c28 0 52 -5 71 -19c16 -12 25 -32 25 -53z" />
    <glyph glyph-name="ehookabove" unicode="&#x1ebb;" horiz-adv-x="418" 
d="M391 219h-290c3 -112 72 -166 136 -166c40 0 95 13 143 52c0 -4 3 -37 3 -37s3 -23 3 -27c-50 -36 -105 -49 -150 -49c-115 0 -206 101 -206 225c0 127 88 225 192 225c43 0 100 -16 135 -73c32 -53 34 -117 34 -150zM325 274c-18 105 -88 107 -103 107
c-56 0 -100 -52 -113 -107h216zM299 640c0 -19 -9 -36 -25 -47l-4 -2c-38 -25 -58 -41 -58 -69v-20l-1 -1h-17v1v20c0 37 22 72 56 91c10 6 16 16 16 27c0 14 -5 27 -15 34c-12 9 -28 11 -48 11c-30 0 -58 -14 -75 -39h-1l-8 23v1c20 26 51 42 84 42c28 0 52 -5 71 -19
c16 -12 25 -32 25 -53z" />
    <glyph glyph-name="ellipsis" unicode="&#x2026;" horiz-adv-x="592" 
d="M171 0h-80v80h80v-80zM336 0h-80v80h80v-80zM501 0h-80v80h80v-80z" />
    <glyph glyph-name="Emacron" unicode="&#x112;" horiz-adv-x="561" 
d="M521 0h-433v692h420v-65h-171c-12 0 -24 1 -36 1h-129v-238h310v-61h-310v-262l134 1l215 1v-69zM450 750h-339v64h339v-64z" />
    <glyph glyph-name="emacron" unicode="&#x113;" horiz-adv-x="418" 
d="M391 219h-290c3 -112 72 -166 136 -166c40 0 95 13 143 52c0 -4 3 -37 3 -37s3 -23 3 -27c-50 -36 -105 -49 -150 -49c-115 0 -206 101 -206 225c0 127 88 225 192 225c43 0 100 -16 135 -73c32 -53 34 -117 34 -150zM325 274c-18 105 -88 107 -103 107
c-56 0 -100 -52 -113 -107h216zM379 574h-339v64h339v-64z" />
    <glyph glyph-name="emdash" unicode="&#x2014;" horiz-adv-x="940" 
d="M939 235h-939v61h939v-61z" />
    <glyph glyph-name="endash" unicode="&#x2013;" 
d="M469 235h-469v61h469v-61z" />
    <glyph glyph-name="Eng" unicode="&#x14a;" horiz-adv-x="663" 
d="M574 347c0 -177 -55 -363 -209 -363v76c116 0 125 152 125 287s-9 287 -125 287c-99 0 -175 -77 -193 -174v-460h-84v694h84v-69c49 52 116 85 193 85c154 0 209 -185 209 -363z" />
    <glyph glyph-name="eng" unicode="&#x14b;" horiz-adv-x="484" 
d="M409 0c0 -103 -50 -205 -143 -205v64c57 0 67 74 67 141v284c0 34 -3 93 -91 93c-68 0 -92 -72 -92 -135v-242h-76v433h73v-62c28 34 70 67 134 67c113 0 128 -83 128 -146v-292z" />
    <glyph glyph-name="Eogonek" unicode="&#x118;" horiz-adv-x="561" 
d="M526 -187c-40 -19 -65 -25 -98 -25c-67 0 -98 42 -99 85c-3 51 37 99 87 127h-328v692h420v-65h-171c-12 0 -24 1 -36 1h-129v-238h310v-61h-310v-262l134 1l215 1v-69h-42c-46 -26 -88 -60 -87 -104c1 -30 25 -36 53 -38c22 -1 45 5 67 14z" />
    <glyph glyph-name="eogonek" unicode="&#x119;" horiz-adv-x="418" 
d="M391 219h-290c3 -112 72 -166 136 -166c40 0 95 13 143 52c0 -4 3 -37 3 -37s3 -23 3 -27c-25 -18 -51 -29 -76 -37c-46 -26 -89 -64 -88 -108c1 -30 25 -36 53 -38c22 -1 45 5 67 14l14 -59c-40 -19 -65 -25 -98 -25c-67 0 -98 42 -99 85c-3 47 32 89 77 119
c-115 0 -206 101 -206 225c0 127 88 225 192 225c43 0 100 -16 135 -73c32 -53 34 -117 34 -150zM325 274c-18 105 -88 107 -103 107c-56 0 -100 -52 -113 -107h216z" />
    <glyph glyph-name="Epsilon" unicode="&#x395;" horiz-adv-x="561" 
d="M521 0h-433v692h420v-65h-171c-12 0 -24 1 -36 1h-129v-238h310v-61h-310v-262l134 1l215 1v-69z" />
    <glyph glyph-name="Ereversed" unicode="&#x18e;" horiz-adv-x="561" 
d="M521 0h-433v69l215 -1l134 -1v262h-310v61h310v238h-129c-12 0 -24 -1 -36 -1h-171v65h420v-692z" />
    <glyph glyph-name="ereversed" unicode="&#x258;" horiz-adv-x="418" 
d="M391 217c0 -124 -91 -225 -206 -225c-45 0 -100 13 -150 49c0 4 3 27 3 27s3 33 3 37c48 -39 103 -52 143 -52c64 0 133 54 136 166h-290c0 33 2 97 34 150c35 57 92 73 135 73c104 0 192 -98 192 -225zM312 274c-13 55 -57 107 -113 107c-15 0 -85 -2 -103 -107h216z
" />
    <glyph glyph-name="estimated" unicode="&#x212e;" horiz-adv-x="627" 
d="M600 356h-502c0 -42 3 -82 16 -122c35 -108 121 -191 230 -191c61 0 124 11 182 30c23 8 43 18 65 26l3 -36s1 -5 1 -8c0 -10 -12 -12 -19 -15c-73 -32 -157 -47 -236 -47c-184 0 -307 175 -308 340c0 38 3 76 12 113c34 133 142 250 285 250c63 0 127 -21 173 -61
c78 -69 98 -180 98 -279zM538 402c-3 21 -5 43 -9 64c-23 100 -94 180 -203 180h-8c-122 -6 -207 -139 -216 -244h436z" />
    <glyph glyph-name="Eta" unicode="&#x397;" horiz-adv-x="663" 
d="M574 0h-84v330h-318v-330h-84v694h84v-303h318v303h84v-694z" />
    <glyph glyph-name="Eth" unicode="&#xd0;" horiz-adv-x="678" 
d="M625 341c0 -187 -126 -341 -290 -341h-246v315h-76v64h76v315h246c164 0 290 -160 290 -353zM543 341c0 174 -96 297 -230 297h-142v-259h92v-64h-92v-259h142c135 0 230 118 230 285z" />
    <glyph glyph-name="eth" unicode="&#xf0;" 
d="M430 213c-3 -139 -101 -221 -196 -221c-102 0 -195 93 -195 222c0 126 89 228 196 228c32 0 70 -9 109 -36c-27 69 -70 129 -124 177l-84 -66l-30 39l75 59c-31 23 -65 43 -101 59l27 41c43 -17 82 -40 117 -67l84 66l30 -39l-76 -59c109 -101 171 -248 168 -403z
M377 218c0 95 -57 174 -143 174c-73 0 -142 -59 -142 -169s64 -179 143 -179c84 0 142 79 142 174z" />
    <glyph glyph-name="Etilde" unicode="&#x1ebc;" horiz-adv-x="561" 
d="M521 0h-433v692h420v-65h-171c-12 0 -24 1 -36 1h-129v-238h310v-61h-310v-262l134 1l215 1v-69zM437 847c-2 -79 -51 -117 -92 -117c-27 0 -46 14 -73 33c-20 15 -38 23 -53 23c-28 0 -34 -32 -34 -56h-61c2 79 51 117 92 117c27 0 46 -14 73 -33c20 -15 38 -23 53 -23
c28 0 34 32 34 56h61z" />
    <glyph glyph-name="etilde" unicode="&#x1ebd;" horiz-adv-x="418" 
d="M391 219h-290c3 -112 72 -166 136 -166c40 0 95 13 143 52c0 -4 3 -37 3 -37s3 -23 3 -27c-50 -36 -105 -49 -150 -49c-115 0 -206 101 -206 225c0 127 88 225 192 225c43 0 100 -16 135 -73c32 -53 34 -117 34 -150zM325 274c-18 105 -88 107 -103 107
c-56 0 -100 -52 -113 -107h216zM366 665c-2 -79 -51 -117 -92 -117c-27 0 -46 14 -73 33c-20 15 -38 23 -53 23c-28 0 -34 -32 -34 -56h-61c2 79 51 117 92 117c27 0 46 -14 73 -33c20 -15 38 -23 53 -23c28 0 34 32 34 56h61z" />
    <glyph glyph-name="eturned" unicode="&#x1dd;" horiz-adv-x="418" 
d="M391 217c0 -127 -88 -225 -192 -225c-43 0 -100 16 -135 73c-32 53 -34 117 -34 150h290c-3 112 -72 166 -136 166c-40 0 -95 -13 -143 -52c0 4 -3 37 -3 37s-3 23 -3 27c50 36 105 49 150 49c115 0 206 -101 206 -225zM312 160h-216c18 -105 88 -107 103 -107
c56 0 100 52 113 107z" />
    <glyph glyph-name="Euro" unicode="&#x20ac;" horiz-adv-x="563" 
d="M516 40c-49 -45 -77 -56 -143 -56c-75 0 -140 45 -183 106c-35 50 -57 106 -68 165h-75l10 56h58c-1 12 -1 24 -1 36s0 24 1 36h-68l10 56h65c11 59 33 116 68 165c43 61 108 106 183 106c51 0 87 -9 132 -34l-14 -80c-34 36 -69 50 -118 50c-54 0 -96 -40 -124 -87
c-22 -37 -35 -78 -43 -120h257l-10 -56h-254c-1 -12 -1 -24 -1 -36s0 -24 1 -36h242l-10 -56h-225c8 -42 21 -82 43 -119c28 -48 70 -88 124 -88c65 0 93 12 137 60z" />
    <glyph glyph-name="exclamdown" unicode="&#xa1;" horiz-adv-x="300" 
d="M190 420h-80v80h80v-80zM190 -195h-80l8 526h64z" />
    <glyph glyph-name="florin" unicode="&#x192;" horiz-adv-x="287" 
d="M325 628c-36 13 -64 13 -74 13c-31 0 -85 -12 -85 -83v-128h103v-58h-101v-372h-74v372h-69v58h69v97c0 99 65 175 158 175c22 0 50 -3 73 -8v-66z" />
    <glyph glyph-name="fraction" unicode="&#x2044;" horiz-adv-x="520" 
d="M468 674l-377 -654h-39l376 654h40z" />
    <glyph glyph-name="fraction.alt" unicode="&#x2215;" horiz-adv-x="0" 
d="M208 674l-377 -654h-39l376 654h40z" />
    <glyph glyph-name="Gacute" unicode="&#x1f4;" horiz-adv-x="627" 
d="M558 41c-62 -33 -129 -49 -197 -49c-82 0 -158 40 -212 103c-59 69 -88 158 -88 248c0 91 29 180 88 249c54 63 130 103 212 103c33 0 65 -3 98 -11c32 -8 62 -21 91 -37l-14 -80c-25 20 -52 38 -82 49s-61 15 -93 15c-61 0 -116 -36 -152 -84c-45 -58 -64 -131 -64 -204
c0 -72 19 -144 64 -203c36 -49 91 -84 152 -84c41 0 82 6 121 19v154h-121v62h197v-250zM504 862l-197 -122h-89l175 122h111z" />
    <glyph glyph-name="gacute" unicode="&#x1f5;" 
d="M456 376c-28 3 -31 4 -63 4c-15 0 -57 -3 -60 -3h-3c9 -12 31 -47 31 -95c0 -86 -69 -156 -152 -156c-41 0 -72 17 -87 28c0 0 -10 -14 -10 -34c0 -51 40 -51 55 -51h81c42 0 195 -1 195 -139c0 -74 -91 -134 -209 -134c-117 0 -208 60 -208 133c0 19 7 68 59 100
c-11 14 -25 39 -25 74c0 30 10 57 28 82c-2 2 -32 43 -32 97c0 84 66 156 153 156c23 0 57 -5 90 -31c40 19 89 30 146 31zM290 282c0 80 -48 101 -82 101c-26 0 -81 -14 -81 -101c0 -80 48 -101 82 -101c26 0 81 14 81 101zM372 -72c0 68 -101 68 -125 68h-81
c-69 0 -69 -62 -69 -67c0 -45 62 -78 138 -78c75 0 137 34 137 77zM335 694l-139 -176h-61l124 176h76z" />
    <glyph glyph-name="Gamma" unicode="&#x393;" horiz-adv-x="509" 
d="M469 627h-152c-12 0 -24 1 -36 1h-109v-628h-84v692h381v-65z" />
    <glyph glyph-name="Gbreve" unicode="&#x11e;" horiz-adv-x="627" 
d="M558 41c-62 -33 -129 -49 -197 -49c-82 0 -158 40 -212 103c-59 69 -88 158 -88 248c0 91 29 180 88 249c54 63 130 103 212 103c33 0 65 -3 98 -11c32 -8 62 -21 91 -37l-14 -80c-25 20 -52 38 -82 49s-61 15 -93 15c-61 0 -116 -36 -152 -84c-45 -58 -64 -131 -64 -204
c0 -72 19 -144 64 -203c36 -49 91 -84 152 -84c41 0 82 6 121 19v154h-121v62h197v-250zM474 933c-3 -117 -75 -193 -161 -193c-82 0 -157 73 -160 193h61c2 -78 46 -127 100 -127c50 0 97 47 99 127h61z" />
    <glyph glyph-name="gbreve" unicode="&#x11f;" 
d="M456 376c-28 3 -31 4 -63 4c-15 0 -57 -3 -60 -3h-3c9 -12 31 -47 31 -95c0 -86 -69 -156 -152 -156c-41 0 -72 17 -87 28c0 0 -10 -14 -10 -34c0 -51 40 -51 55 -51h81c42 0 195 -1 195 -139c0 -74 -91 -134 -209 -134c-117 0 -208 60 -208 133c0 19 7 68 59 100
c-11 14 -25 39 -25 74c0 30 10 57 28 82c-2 2 -32 43 -32 97c0 84 66 156 153 156c23 0 57 -5 90 -31c40 19 89 30 146 31zM290 282c0 80 -48 101 -82 101c-26 0 -81 -14 -81 -101c0 -80 48 -101 82 -101c26 0 81 14 81 101zM372 -72c0 68 -101 68 -125 68h-81
c-69 0 -69 -62 -69 -67c0 -45 62 -78 138 -78c75 0 137 34 137 77zM363 703c-3 -117 -75 -193 -161 -193c-82 0 -157 73 -160 193h61c2 -78 46 -127 100 -127c50 0 97 47 99 127h61z" />
    <glyph glyph-name="Gcaron" unicode="&#x1e6;" horiz-adv-x="627" 
d="M558 41c-62 -33 -129 -49 -197 -49c-82 0 -158 40 -212 103c-59 69 -88 158 -88 248c0 91 29 180 88 249c54 63 130 103 212 103c33 0 65 -3 98 -11c32 -8 62 -21 91 -37l-14 -80c-25 20 -52 38 -82 49s-61 15 -93 15c-61 0 -116 -36 -152 -84c-45 -58 -64 -131 -64 -204
c0 -72 19 -144 64 -203c36 -49 91 -84 152 -84c41 0 82 6 121 19v154h-121v62h197v-250zM469 864l-126 -134h-60l-126 134h59l97 -97l97 97h59z" />
    <glyph glyph-name="gcaron" unicode="&#x1e7;" 
d="M456 376c-28 3 -31 4 -63 4c-15 0 -57 -3 -60 -3h-3c9 -12 31 -47 31 -95c0 -86 -69 -156 -152 -156c-41 0 -72 17 -87 28c0 0 -10 -14 -10 -34c0 -51 40 -51 55 -51h81c42 0 195 -1 195 -139c0 -74 -91 -134 -209 -134c-117 0 -208 60 -208 133c0 19 7 68 59 100
c-11 14 -25 39 -25 74c0 30 10 57 28 82c-2 2 -32 43 -32 97c0 84 66 156 153 156c23 0 57 -5 90 -31c40 19 89 30 146 31zM290 282c0 80 -48 101 -82 101c-26 0 -81 -14 -81 -101c0 -80 48 -101 82 -101c26 0 81 14 81 101zM372 -72c0 68 -101 68 -125 68h-81
c-69 0 -69 -62 -69 -67c0 -45 62 -78 138 -78c75 0 137 34 137 77zM357 692l-125 -172h-60l-125 172h59l96 -123l96 123h59z" />
    <glyph glyph-name="Gcircumflex" unicode="&#x11c;" horiz-adv-x="627" 
d="M558 41c-62 -33 -129 -49 -197 -49c-82 0 -158 40 -212 103c-59 69 -88 158 -88 248c0 91 29 180 88 249c54 63 130 103 212 103c33 0 65 -3 98 -11c32 -8 62 -21 91 -37l-14 -80c-25 20 -52 38 -82 49s-61 15 -93 15c-61 0 -116 -36 -152 -84c-45 -58 -64 -131 -64 -204
c0 -72 19 -144 64 -203c36 -49 91 -84 152 -84c41 0 82 6 121 19v154h-121v62h197v-250zM469 730h-59l-97 97l-97 -97h-59l126 134h60z" />
    <glyph glyph-name="gcircumflex" unicode="&#x11d;" 
d="M456 376c-28 3 -31 4 -63 4c-15 0 -57 -3 -60 -3h-3c9 -12 31 -47 31 -95c0 -86 -69 -156 -152 -156c-41 0 -72 17 -87 28c0 0 -10 -14 -10 -34c0 -51 40 -51 55 -51h81c42 0 195 -1 195 -139c0 -74 -91 -134 -209 -134c-117 0 -208 60 -208 133c0 19 7 68 59 100
c-11 14 -25 39 -25 74c0 30 10 57 28 82c-2 2 -32 43 -32 97c0 84 66 156 153 156c23 0 57 -5 90 -31c40 19 89 30 146 31zM290 282c0 80 -48 101 -82 101c-26 0 -81 -14 -81 -101c0 -80 48 -101 82 -101c26 0 81 14 81 101zM372 -72c0 68 -101 68 -125 68h-81
c-69 0 -69 -62 -69 -67c0 -45 62 -78 138 -78c75 0 137 34 137 77zM357 520h-59l-96 123l-96 -123h-59l125 172h60z" />
    <glyph glyph-name="Gcommaaccent" unicode="&#x122;" horiz-adv-x="627" 
d="M558 41c-62 -33 -129 -49 -197 -49c-82 0 -158 40 -212 103c-59 69 -88 158 -88 248c0 91 29 180 88 249c54 63 130 103 212 103c33 0 65 -3 98 -11c32 -8 62 -21 91 -37l-14 -80c-25 20 -52 38 -82 49s-61 15 -93 15c-61 0 -116 -36 -152 -84c-45 -58 -64 -131 -64 -204
c0 -72 19 -144 64 -203c36 -49 91 -84 152 -84c41 0 82 6 121 19v154h-121v62h197v-250zM350 -129l-37 -113h-36l23 112h-22v72h72v-71z" />
    <glyph glyph-name="gcommaaccent" unicode="&#x123;" 
d="M239 714l-23 -112h22v-72h-72v71l37 113h36zM456 376c-28 3 -31 4 -63 4c-15 0 -57 -3 -60 -3h-3c9 -12 31 -47 31 -95c0 -86 -69 -156 -152 -156c-41 0 -72 17 -87 28c0 0 -10 -14 -10 -34c0 -51 40 -51 55 -51h81c42 0 195 -1 195 -139c0 -74 -91 -134 -209 -134
c-117 0 -208 60 -208 133c0 19 7 68 59 100c-11 14 -25 39 -25 74c0 30 10 57 28 82c-2 2 -32 43 -32 97c0 84 66 156 153 156c23 0 57 -5 90 -31c40 19 89 30 146 31zM290 282c0 80 -48 101 -82 101c-26 0 -81 -14 -81 -101c0 -80 48 -101 82 -101c26 0 81 14 81 101z
M372 -72c0 68 -101 68 -125 68h-81c-69 0 -69 -62 -69 -67c0 -45 62 -78 138 -78c75 0 137 34 137 77z" />
    <glyph glyph-name="Gdotaccent" unicode="&#x120;" horiz-adv-x="627" 
d="M558 41c-62 -33 -129 -49 -197 -49c-82 0 -158 40 -212 103c-59 69 -88 158 -88 248c0 91 29 180 88 249c54 63 130 103 212 103c33 0 65 -3 98 -11c32 -8 62 -21 91 -37l-14 -80c-25 20 -52 38 -82 49s-61 15 -93 15c-61 0 -116 -36 -152 -84c-45 -58 -64 -131 -64 -204
c0 -72 19 -144 64 -203c36 -49 91 -84 152 -84c41 0 82 6 121 19v154h-121v62h197v-250zM356 730h-84v84h84v-84z" />
    <glyph glyph-name="gdotaccent" unicode="&#x121;" 
d="M456 376c-28 3 -31 4 -63 4c-15 0 -57 -3 -60 -3h-3c9 -12 31 -47 31 -95c0 -86 -69 -156 -152 -156c-41 0 -72 17 -87 28c0 0 -10 -14 -10 -34c0 -51 40 -51 55 -51h81c42 0 195 -1 195 -139c0 -74 -91 -134 -209 -134c-117 0 -208 60 -208 133c0 19 7 68 59 100
c-11 14 -25 39 -25 74c0 30 10 57 28 82c-2 2 -32 43 -32 97c0 84 66 156 153 156c23 0 57 -5 90 -31c40 19 89 30 146 31zM290 282c0 80 -48 101 -82 101c-26 0 -81 -14 -81 -101c0 -80 48 -101 82 -101c26 0 81 14 81 101zM372 -72c0 68 -101 68 -125 68h-81
c-69 0 -69 -62 -69 -67c0 -45 62 -78 138 -78c75 0 137 34 137 77zM244 564h-84v84h84v-84z" />
    <glyph glyph-name="germandbls" unicode="&#xdf;" horiz-adv-x="451" 
d="M424 174c0 -103 -73 -182 -166 -182c-39 0 -75 12 -82 15l22 58c29 -12 57 -12 60 -12c49 0 91 41 91 121c0 100 -54 193 -148 195v61c85 2 122 65 122 120c0 60 -41 91 -87 91c-8 0 -87 0 -87 -98v-543h-74v545c0 103 85 157 161 157c90 0 162 -68 162 -152
c0 -45 -20 -109 -89 -151c38 -25 115 -99 115 -225z" />
    <glyph glyph-name="uni0300" unicode="&#x300;" horiz-adv-x="0" 
d="M-159 518h-61l-139 176h76z" />
    <glyph glyph-name="guillemotleft" unicode="&#xab;" 
d="M261 0h-61l-96 219l96 218h61l-81 -218zM418 0h-61l-96 219l96 218h61l-81 -218z" />
    <glyph glyph-name="guillemotright" unicode="&#xbb;" 
d="M366 219l-96 -219h-61l81 219l-81 218h61zM209 219l-96 -219h-61l81 219l-81 218h61z" />
    <glyph glyph-name="guilsinglleft" unicode="&#x2039;" horiz-adv-x="313" 
d="M261 0h-61l-96 219l96 218h61l-81 -218z" />
    <glyph glyph-name="guilsinglright" unicode="&#x203a;" horiz-adv-x="313" 
d="M209 219l-96 -219h-61l81 219l-81 218h61z" />
    <glyph glyph-name="Hbar" unicode="&#x126;" horiz-adv-x="663" 
d="M625 489h-51v-489h-84v330h-318v-330h-84v489h-51v64h51v141h84v-141h318v141h84v-141h51v-64zM490 391v98h-318v-98h318z" />
    <glyph glyph-name="hbar" unicode="&#x127;" horiz-adv-x="484" 
d="M409 0h-76v284c0 34 -3 93 -91 93c-68 0 -92 -72 -92 -135v-242h-76v530h-76v64h76v100h74v-100h94v-64h-94v-157c29 34 70 65 133 65c113 0 128 -83 128 -146v-292z" />
    <glyph glyph-name="Hbrevebelow" unicode="&#x1e2a;" horiz-adv-x="663" 
d="M574 0h-84v330h-318v-330h-84v694h84v-303h318v303h84v-694zM492 -61c-3 -117 -75 -193 -161 -193c-82 0 -157 73 -160 193h61c2 -78 46 -127 100 -127c50 0 97 47 99 127h61z" />
    <glyph glyph-name="hbrevebelow" unicode="&#x1e2b;" horiz-adv-x="484" 
d="M409 0h-76v284c0 34 -3 93 -91 93c-68 0 -92 -72 -92 -135v-242h-76v694h74v-321c29 34 70 65 133 65c113 0 128 -83 128 -146v-292zM403 -61c-3 -117 -75 -193 -161 -193c-82 0 -157 73 -160 193h61c2 -78 46 -127 100 -127c50 0 97 47 99 127h61z" />
    <glyph glyph-name="Hcircumflex" unicode="&#x124;" horiz-adv-x="663" 
d="M574 0h-84v330h-318v-330h-84v694h84v-303h318v303h84v-694zM487 730h-59l-97 97l-97 -97h-59l126 134h60z" />
    <glyph glyph-name="hcircumflex" unicode="&#x125;" horiz-adv-x="484" 
d="M409 0h-76v284c0 34 -3 93 -91 93c-68 0 -92 -72 -92 -135v-242h-76v694h74v-321c29 34 70 65 133 65c113 0 128 -83 128 -146v-292zM398 730h-59l-97 97l-97 -97h-59l126 134h60z" />
    <glyph glyph-name="Hdieresis" unicode="&#x1e26;" horiz-adv-x="663" 
d="M574 0h-84v330h-318v-330h-84v694h84v-303h318v303h84v-694zM287 730h-76v75h76v-75zM451 730h-76v75h76v-75z" />
    <glyph glyph-name="hdieresis" unicode="&#x1e27;" horiz-adv-x="484" 
d="M409 0h-76v284c0 34 -3 93 -91 93c-68 0 -92 -72 -92 -135v-242h-76v694h74v-321c29 34 70 65 133 65c113 0 128 -83 128 -146v-292zM198 730h-76v75h76v-75zM362 730h-76v75h76v-75z" />
    <glyph glyph-name="Hdotbelow" unicode="&#x1e24;" horiz-adv-x="663" 
d="M574 0h-84v330h-318v-330h-84v694h84v-303h318v303h84v-694zM374 -200h-84v84h84v-84z" />
    <glyph glyph-name="hdotbelow" unicode="&#x1e25;" horiz-adv-x="484" 
d="M409 0h-76v284c0 34 -3 93 -91 93c-68 0 -92 -72 -92 -135v-242h-76v694h74v-321c29 34 70 65 133 65c113 0 128 -83 128 -146v-292zM284 -200h-84v84h84v-84z" />
    <glyph glyph-name="uni0309" unicode="&#x309;" horiz-adv-x="0" 
d="M-136 640c0 -19 -9 -36 -25 -47l-4 -2c-38 -25 -58 -41 -58 -69v-20l-1 -1h-17v1v20c0 37 22 72 56 91c10 6 16 16 16 27c0 14 -5 27 -15 34c-12 9 -28 11 -48 11c-30 0 -58 -14 -75 -39h-1l-8 23v1c20 26 51 42 84 42c28 0 52 -5 71 -19c16 -12 25 -32 25 -53z" />
    <glyph glyph-name="hungarumlaut" unicode="&#x2dd;" 
d="M234 694l-74 -176h-61l59 176h76zM391 694l-74 -176h-61l59 176h76z" />
    <glyph glyph-name="uni030B" unicode="&#x30b;" horiz-adv-x="0" 
d="M-227 694l-74 -176h-61l59 176h76zM-70 694l-74 -176h-61l59 176h76z" />
    <glyph glyph-name="Iacute" unicode="&#xcd;" horiz-adv-x="259" 
d="M171 0h-84v694h84v-694zM373 862l-197 -122h-89l175 122h111z" />
    <glyph glyph-name="iacute" unicode="&#xed;" horiz-adv-x="223" 
d="M148 0h-74v430h74v-430zM274 694l-139 -176h-61l124 176h76z" />
    <glyph glyph-name="Ibreve" unicode="&#x12c;" horiz-adv-x="259" 
d="M171 0h-84v694h84v-694zM290 933c-3 -117 -75 -193 -161 -193c-82 0 -157 73 -160 193h61c2 -78 46 -127 100 -127c50 0 97 47 99 127h61z" />
    <glyph glyph-name="ibreve" unicode="&#x12d;" horiz-adv-x="223" 
d="M148 0h-74v430h74v-430zM272 703c-3 -117 -75 -193 -161 -193c-82 0 -157 73 -160 193h61c2 -78 46 -127 100 -127c50 0 97 47 99 127h61z" />
    <glyph glyph-name="Icaron" unicode="&#x1cf;" horiz-adv-x="259" 
d="M171 0h-84v694h84v-694zM285 864l-126 -134h-60l-126 134h59l97 -97l97 97h59z" />
    <glyph glyph-name="icaron" unicode="&#x1d0;" horiz-adv-x="223" 
d="M148 0h-74v430h74v-430zM266 692l-125 -172h-60l-125 172h59l96 -123l96 123h59z" />
    <glyph glyph-name="Icircumflex" unicode="&#xce;" horiz-adv-x="259" 
d="M171 0h-84v694h84v-694zM285 730h-59l-97 97l-97 -97h-59l126 134h60z" />
    <glyph glyph-name="icircumflex" unicode="&#xee;" horiz-adv-x="223" 
d="M148 0h-74v430h74v-430zM266 520h-59l-96 123l-96 -123h-59l125 172h60z" />
    <glyph glyph-name="Idblgrave" unicode="&#x208;" horiz-adv-x="259" 
d="M171 0h-84v694h84v-694zM265 740h-61l-74 176h76zM108 740h-61l-74 176h76z" />
    <glyph glyph-name="idblgrave" unicode="&#x209;" horiz-adv-x="223" 
d="M148 0h-74v430h74v-430zM247 518h-61l-74 176h76zM90 518h-61l-74 176h76z" />
    <glyph glyph-name="Idieresis" unicode="&#xcf;" horiz-adv-x="259" 
d="M171 0h-84v694h84v-694zM85 730h-76v75h76v-75zM249 730h-76v75h76v-75z" />
    <glyph glyph-name="idieresis" unicode="&#xef;" horiz-adv-x="223" 
d="M148 0h-74v430h74v-430zM79 569h-76v75h76v-75zM219 569h-76v75h76v-75z" />
    <glyph glyph-name="Idieresisacute" unicode="&#x1e2e;" horiz-adv-x="259" 
d="M171 0h-84v694h84v-694zM85 730h-76v75h76v-75zM249 730h-76v75h76v-75zM320 973l-197 -122h-89l175 122h111z" />
    <glyph glyph-name="idieresisacute" unicode="&#x1e2f;" horiz-adv-x="223" 
d="M148 0h-74v430h74v-430zM79 569h-76v75h76v-75zM219 569h-76v75h76v-75zM302 823l-197 -122h-89l175 122h111z" />
    <glyph glyph-name="Idotaccent" unicode="&#x130;" horiz-adv-x="259" 
d="M171 0h-84v694h84v-694zM172 730h-84v84h84v-84z" />
    <glyph glyph-name="Idotbelow" unicode="&#x1eca;" horiz-adv-x="259" 
d="M171 0h-84v694h84v-694zM172 -200h-84v84h84v-84z" />
    <glyph glyph-name="idotbelow" unicode="&#x1ecb;" horiz-adv-x="223" 
d="M148 0h-74v430h74v-430zM154 564h-84v84h84v-84zM154 -200h-84v84h84v-84z" />
    <glyph glyph-name="Igrave" unicode="&#xcc;" horiz-adv-x="259" 
d="M171 0h-84v694h84v-694zM171 740h-89l-197 122h111z" />
    <glyph glyph-name="igrave" unicode="&#xec;" horiz-adv-x="223" 
d="M148 0h-74v430h74v-430zM148 518h-61l-139 176h76z" />
    <glyph glyph-name="Ihookabove" unicode="&#x1ec8;" horiz-adv-x="259" 
d="M171 0h-84v694h84v-694zM219 869c0 -19 -9 -36 -25 -47l-4 -2c-38 -25 -58 -41 -58 -69v-20l-1 -1h-17v1v20c0 37 22 72 56 91c10 6 16 16 16 27c0 14 -5 27 -15 34c-12 9 -28 11 -48 11c-30 0 -58 -14 -75 -39h-1l-8 23v1c20 26 51 42 84 42c28 0 52 -5 71 -19
c16 -12 25 -32 25 -53z" />
    <glyph glyph-name="ihookabove" unicode="&#x1ec9;" horiz-adv-x="223" 
d="M148 0h-74v430h74v-430zM201 640c0 -19 -9 -36 -25 -47l-4 -2c-38 -25 -58 -41 -58 -69v-20l-1 -1h-17v1v20c0 37 22 72 56 91c10 6 16 16 16 27c0 14 -5 27 -15 34c-12 9 -28 11 -48 11c-30 0 -58 -14 -75 -39h-1l-8 23v1c20 26 51 42 84 42c28 0 52 -5 71 -19
c16 -12 25 -32 25 -53z" />
    <glyph glyph-name="Imacron" unicode="&#x12a;" horiz-adv-x="259" 
d="M171 0h-84v694h84v-694zM299 750h-339v64h339v-64z" />
    <glyph glyph-name="imacron" unicode="&#x12b;" horiz-adv-x="223" 
d="M148 0h-74v430h74v-430zM281 574h-339v64h339v-64z" />
    <glyph glyph-name="infinity" unicode="&#x221e;" horiz-adv-x="940" 
d="M429 207l-42 58c-43 59 -92 123 -165 123c-75 0 -108 -87 -108 -172c0 -90 29 -182 107 -182c97 0 161 83 208 173zM826 216c0 89 -29 181 -107 181c-97 0 -161 -83 -208 -173l42 -58c43 -59 92 -123 165 -123c75 0 108 87 108 173zM888 216c0 -124 -84 -234 -201 -234
c-85 0 -145 70 -195 139l-20 27c-50 -90 -118 -169 -217 -169c-119 0 -203 111 -203 237c0 123 84 233 201 233c85 0 145 -70 195 -139l20 -27c50 90 118 169 217 169c119 0 203 -111 203 -236z" />
    <glyph glyph-name="interrobang" unicode="&#x203d;" horiz-adv-x="444" 
d="M262 0h-80v80h80v-80zM378 547c0 -72 -28 -101 -47 -121c-40 -43 -77 -114 -77 -206v-51h-64v53c0 10 0 34 5 66l-4 352c-39 -4 -85 -19 -130 -52l-22 62c19 12 76 44 151 52v25h64v-26c88 -13 124 -77 124 -154zM302 550c0 44 -10 77 -49 88l-3 -204c8 12 16 23 25 35
c15 19 27 34 27 81z" />
    <glyph glyph-name="Iogonek" unicode="&#x12e;" horiz-adv-x="259" 
d="M218 -187c-40 -19 -65 -25 -98 -25c-67 0 -98 42 -99 85c-3 51 37 99 87 127h-21v694h84v-694c-46 -26 -88 -60 -87 -104c1 -30 25 -36 53 -38c22 -1 45 5 67 14z" />
    <glyph glyph-name="iogonek" unicode="&#x12f;" horiz-adv-x="223" 
d="M153 574h-84v84h84v-84zM195 -187c-40 -19 -65 -25 -98 -25c-67 0 -98 42 -99 85c-3 51 37 99 87 127h-11v430h74v-430c-46 -26 -88 -60 -87 -104c1 -30 25 -36 53 -38c22 -1 45 5 67 14z" />
    <glyph glyph-name="Iota" unicode="&#x399;" horiz-adv-x="259" 
d="M171 0h-84v694h84v-694z" />
    <glyph glyph-name="Itilde" unicode="&#x128;" horiz-adv-x="259" 
d="M171 0h-84v694h84v-694zM286 847c-2 -79 -51 -117 -92 -117c-27 0 -46 14 -73 33c-20 15 -38 23 -53 23c-28 0 -34 -32 -34 -56h-61c2 79 51 117 92 117c27 0 46 -14 73 -33c20 -15 38 -23 53 -23c28 0 34 32 34 56h61z" />
    <glyph glyph-name="itilde" unicode="&#x129;" horiz-adv-x="223" 
d="M148 0h-74v430h74v-430zM268 665c-2 -79 -51 -117 -92 -117c-27 0 -46 14 -73 33c-20 15 -38 23 -53 23c-28 0 -34 -32 -34 -56h-61c2 79 51 117 92 117c27 0 46 -14 73 -33c20 -15 38 -23 53 -23c28 0 34 32 34 56h61z" />
    <glyph glyph-name="jcaron" unicode="&#x1f0;" horiz-adv-x="249" 
d="M174 -60c0 -89 -56 -143 -119 -143c-42 0 -81 14 -113 34l20 61c19 -21 42 -31 69 -31s69 10 69 70v499h74v-490zM287 692l-125 -172h-60l-125 172h59l96 -123l96 123h59z" />
    <glyph glyph-name="Jcircumflex" unicode="&#x134;" horiz-adv-x="443" 
d="M365 149c0 -109 -68 -165 -165 -165c-42 0 -99 9 -161 42l13 73c27 -30 70 -54 121 -54c90 0 110 59 110 107v542h82v-545zM480 730h-59l-97 97l-97 -97h-59l126 134h60z" />
    <glyph glyph-name="jcircumflex" unicode="&#x135;" horiz-adv-x="249" 
d="M174 -60c0 -89 -56 -143 -119 -143c-42 0 -81 14 -113 34l20 61c19 -21 42 -31 69 -31s69 10 69 70v499h74v-490zM287 520h-59l-96 123l-96 -123h-59l125 172h60z" />
    <glyph glyph-name="Kappa" unicode="&#x39a;" horiz-adv-x="651" 
d="M611 0h-93l-225 358l-121 -133v-225h-84v694h84v-363l330 363h96l-249 -275z" />
    <glyph glyph-name="Kcommaaccent" unicode="&#x136;" horiz-adv-x="651" 
d="M611 0h-93l-225 358l-121 -133v-225h-84v694h84v-363l330 363h96l-249 -275zM362 -129l-37 -113h-36l23 112h-22v72h72v-71z" />
    <glyph glyph-name="kcommaaccent" unicode="&#x137;" horiz-adv-x="458" 
d="M441 0h-85l-141 211l-67 -71v-140h-73v694h74v-450l175 186h96l-155 -165zM266 -129l-37 -113h-36l23 112h-22v72h72v-71z" />
    <glyph glyph-name="Lacute" unicode="&#x139;" horiz-adv-x="509" 
d="M469 0h-381v694h84v-630h53c12 0 24 1 36 1h208v-65zM374 862l-197 -122h-89l175 122h111z" />
    <glyph glyph-name="lacute" unicode="&#x13a;" horiz-adv-x="223" 
d="M148 0h-74v694h74v-694zM360 862l-197 -122h-89l175 122h111z" />
    <glyph glyph-name="Lambda" unicode="&#x39b;" horiz-adv-x="572" 
d="M545 0h-88l-91 295c-21 67 -81 269 -87 321l-1 -1c-4 -36 -22 -100 -34 -140l-46 -158l-97 -317h-75l217 694h85z" />
    <glyph glyph-name="Lcaron" unicode="&#x13d;" horiz-adv-x="509" 
d="M469 0h-381v694h84v-630h53c12 0 24 1 36 1h208v-65zM297 623l-37 -113h-36l23 112h-22v72h72v-71z" />
    <glyph glyph-name="lcaron" unicode="&#x13e;" horiz-adv-x="223" 
d="M148 0h-74v694h74v-694zM256 623l-37 -113h-36l23 112h-22v72h72v-71z" />
    <glyph glyph-name="Lcommaaccent" unicode="&#x13b;" horiz-adv-x="509" 
d="M469 0h-381v694h84v-630h53c12 0 24 1 36 1h208v-65zM291 -129l-37 -113h-36l23 112h-22v72h72v-71z" />
    <glyph glyph-name="lcommaaccent" unicode="&#x13c;" horiz-adv-x="223" 
d="M148 0h-74v694h74v-694zM148 -129l-37 -113h-36l23 112h-22v72h72v-71z" />
    <glyph glyph-name="Ldot" unicode="&#x13f;" horiz-adv-x="509" 
d="M469 0h-381v694h84v-630h53c12 0 24 1 36 1h208v-65zM426 321h-84v84h84v-84z" />
    <glyph glyph-name="ldot" unicode="&#x140;" horiz-adv-x="283" 
d="M148 0h-74v694h74v-694zM294 321h-84v84h84v-84z" />
    <glyph glyph-name="Ldotbelow" unicode="&#x1e36;" horiz-adv-x="509" 
d="M469 0h-381v694h84v-630h53c12 0 24 1 36 1h208v-65zM297 -200h-84v84h84v-84z" />
    <glyph glyph-name="ldotbelow" unicode="&#x1e37;" horiz-adv-x="223" 
d="M148 0h-74v694h74v-694zM154 -200h-84v84h84v-84z" />
    <glyph glyph-name="Ldotbelowmacron" unicode="&#x1e38;" horiz-adv-x="509" 
d="M469 0h-381v694h84v-630h53c12 0 24 1 36 1h208v-65zM297 -200h-84v84h84v-84zM300 750h-339v64h339v-64z" />
    <glyph glyph-name="ldotbelowmacron" unicode="&#x1e39;" horiz-adv-x="223" 
d="M148 0h-74v694h74v-694zM154 -200h-84v84h84v-84zM293 750h-339v64h339v-64z" />
    <glyph glyph-name="uni0332" unicode="&#x332;" horiz-adv-x="0" 
d="M-56 -190h-339v64h339v-64z" />
    <glyph glyph-name="lira" unicode="&#x20a4;" horiz-adv-x="625" 
d="M562 144c0 -84 -53 -160 -132 -160c-33 0 -67 7 -99 15c-74 19 -167 43 -201 0l-60 46c49 62 96 128 107 205h-115v64h114c0 5 -2 10 -3 15c-1 6 -3 11 -5 16c-4 12 -9 24 -14 35h-92v64h72c-22 128 61 250 185 250c105 0 181 -97 181 -208h-76c0 69 -42 132 -105 132
c-80 0 -129 -87 -107 -174h163v-64h-139l4 -9l6 -22c4 -11 6 -23 7 -35h122v-64h-121c-6 -54 -27 -104 -54 -151c51 -1 100 -14 150 -26c26 -7 53 -13 80 -13c37 0 56 42 56 84h76z" />
    <glyph glyph-name="logicalnot" unicode="&#xac;" horiz-adv-x="731" 
d="M678 160c0 -9 -8 -17 -17 -17s-17 8 -17 17v162h-575c-9 0 -17 8 -17 17s8 17 17 17h592c9 0 17 -8 17 -17v-179z" />
    <glyph glyph-name="longs" unicode="&#x17f;" horiz-adv-x="267" 
d="M305 628c-36 13 -64 13 -74 13c-31 0 -83 -12 -83 -83v-558h-74v527c0 99 65 175 158 175c22 0 50 -3 73 -8v-66z" />
    <glyph glyph-name="Lslash" unicode="&#x141;" horiz-adv-x="587" 
d="M545 0h-381v291l-66 -56l-37 43l103 87v329h84v-257l133 111l38 -45l-171 -142v-297h53c12 0 24 1 36 1h208v-65z" />
    <glyph glyph-name="lslash" unicode="&#x142;" horiz-adv-x="303" 
d="M304 448l-109 -95v-353h-74v291l-60 -54l-38 45l98 88v324h74v-264l69 62z" />
    <glyph glyph-name="macron" unicode="&#xaf;" 
d="M405 574h-339v64h339v-64z" />
    <glyph glyph-name="uni0331" unicode="&#x331;" horiz-adv-x="0" 
d="M-56 -190h-339v64h339v-64z" />
    <glyph glyph-name="uni0304" unicode="&#x304;" horiz-adv-x="0" 
d="M-56 574h-339v64h339v-64z" />
    <glyph glyph-name="married" unicode="&#x26ad;" 
d="M549 251c0 -103 -75 -215 -192 -215c-41 0 -95 15 -122 45h-1c-28 -30 -78 -45 -118 -45c-115 0 -196 105 -196 214c0 114 83 216 200 216c41 0 84 -18 115 -45c26 28 73 43 110 45h9c115 0 195 -107 195 -215zM195 122c0 5 -5 11 -7 15c-20 34 -30 75 -30 114
c0 38 9 78 28 111c3 5 9 12 9 18c0 17 -57 31 -81 31c-91 0 -137 -80 -139 -152v-7c0 -75 45 -161 139 -161c27 0 81 16 81 31zM494 250c0 77 -45 161 -140 161c-27 0 -80 -16 -80 -30c0 -7 6 -14 9 -19c19 -33 28 -74 28 -111c0 -41 -11 -79 -30 -115c-2 -4 -7 -10 -7 -14
c0 -17 55 -31 80 -31c87 0 140 79 140 159zM253 254c0 30 -9 54 -18 82h-1c-9 -30 -17 -53 -17 -85c0 -28 4 -58 18 -83c9 28 18 55 18 86z" />
    <glyph glyph-name="Mdotbelow" unicode="&#x1e42;" horiz-adv-x="820" 
d="M729 0h-79v615h-1c-6 -29 -31 -103 -41 -133l-44 -131l-119 -335h-74l-132 377c-61 175 -70 220 -70 220h-1v-613h-78v694h117l148 -420l29 -89c16 -51 22 -72 25 -92h1c6 32 33 113 41 139l48 141l114 321h116v-694zM452 -200h-84v84h84v-84z" />
    <glyph glyph-name="mdotbelow" unicode="&#x1e43;" horiz-adv-x="745" 
d="M670 0h-76v284c0 29 0 93 -91 93c-71 0 -93 -76 -93 -135v-242h-76v284c0 29 0 93 -91 93c-71 0 -93 -76 -93 -135v-242h-76v433h73v-62c23 28 66 67 134 67c60 0 102 -23 120 -76c20 29 65 76 140 76c112 0 129 -79 129 -146v-292zM415 -200h-84v84h84v-84z" />
    <glyph glyph-name="uni2127" unicode="&#x2127;" horiz-adv-x="679" 
d="M638 626h-78c-12 0 -24 1 -36 1h-48c13 -57 45 -114 81 -181c38 -71 71 -140 71 -213c0 -138 -127 -249 -287 -249c-159 0 -287 111 -287 249c0 75 35 147 72 215c35 63 66 122 80 179h-48c-12 0 -24 -1 -36 -1h-78v68h231c-1 -81 -28 -143 -72 -238
c-31 -67 -65 -144 -65 -222c0 -114 92 -189 203 -189c110 0 203 75 203 189c0 66 -24 133 -62 215c-48 104 -74 165 -75 245h231v-68z" />
    <glyph glyph-name="minus" unicode="&#x2212;" horiz-adv-x="731" 
d="M678 250c0 -17 -15 -17 -30 -17h-566c-15 0 -30 0 -30 17c0 18 17 18 34 18h558c17 0 34 0 34 -18z" />
    <glyph glyph-name="Mu" unicode="&#x39c;" horiz-adv-x="820" 
d="M729 0h-79v615h-1c-6 -29 -31 -103 -41 -133l-44 -131l-119 -335h-74l-132 377c-61 175 -70 220 -70 220h-1v-613h-78v694h117l148 -420l29 -89c16 -51 22 -72 25 -92h1c6 32 33 113 41 139l48 141l114 321h116v-694z" />
    <glyph glyph-name="uni00B5" unicode="&#xb5;" horiz-adv-x="484" 
d="M402 0h-58v54c-56 -53 -122 -62 -162 -62c-10 0 -28 1 -41 5v-191h-60v624h60v-315c0 -48 9 -76 81 -76c60 0 120 32 120 117v274h60v-430z" />
    <glyph glyph-name="multiply" unicode="&#xd7;" horiz-adv-x="731" 
d="M587 28c-12 -12 -24 0 -34 10l-188 187l-187 -187c-11 -11 -22 -22 -35 -9c-12 12 0 24 10 33l188 188l-188 187c-10 11 -22 22 -9 35c12 12 24 0 34 -10l187 -187l187 186c11 11 22 22 35 9c12 -12 0 -24 -10 -33l-187 -187l187 -188c11 -10 22 -21 10 -34z" />
    <glyph glyph-name="uni266A" unicode="&#x266a;" horiz-adv-x="575" 
d="M523 136c0 -11 -3 -26 -17 -26h-3c-10 1 -15 11 -15 20v8c-1 11 -1 21 -3 32c-14 122 -78 235 -122 348v-311l-1 -86v-25c-11 -80 -84 -120 -155 -120c-73 0 -155 48 -155 133c0 82 85 120 157 120c44 0 88 -13 119 -42v499c0 12 0 28 15 30h3c14 0 17 -15 17 -26
c0 -187 160 -357 160 -554z" />
    <glyph glyph-name="Nacute" unicode="&#x143;" horiz-adv-x="663" 
d="M574 0h-123l-18 37l-214 465l-52 116l-1 -1v-617h-78v694h123l18 -37l214 -465l52 -116l1 1v617h78v-694zM522 862l-197 -122h-89l175 122h111z" />
    <glyph glyph-name="nacute" unicode="&#x144;" horiz-adv-x="484" 
d="M409 0h-76v284c0 34 -3 93 -91 93c-68 0 -92 -72 -92 -135v-242h-76v433h73v-62c28 34 70 67 134 67c113 0 128 -83 128 -146v-292zM375 694l-139 -176h-61l124 176h76z" />
    <glyph glyph-name="naira" unicode="&#x20a6;" horiz-adv-x="663" 
d="M617 250h-43v-250h-123l-18 37l-98 213h-169v-250h-78v250h-43v64h43v66h-43v64h43v250h123l18 -37l98 -213h169v250h78v-250h43v-64h-43v-66h43v-64zM246 444l-27 58l-52 116l-1 -1v-173h80zM305 314l-30 66h-109v-66h139zM496 314v66h-140l31 -66h109zM496 77v173h-80
l27 -58l52 -116z" />
    <glyph glyph-name="uni00A0" unicode="&#xa0;" 
 />
    <glyph glyph-name="Ncaron" unicode="&#x147;" horiz-adv-x="663" 
d="M574 0h-123l-18 37l-214 465l-52 116l-1 -1v-617h-78v694h123l18 -37l214 -465l52 -116l1 1v617h78v-694zM487 864l-126 -134h-60l-126 134h59l97 -97l97 97h59z" />
    <glyph glyph-name="ncaron" unicode="&#x148;" horiz-adv-x="484" 
d="M409 0h-76v284c0 34 -3 93 -91 93c-68 0 -92 -72 -92 -135v-242h-76v433h73v-62c28 34 70 67 134 67c113 0 128 -83 128 -146v-292zM397 692l-125 -172h-60l-125 172h59l96 -123l96 123h59z" />
    <glyph glyph-name="Ncommaaccent" unicode="&#x145;" horiz-adv-x="663" 
d="M574 0h-123l-18 37l-214 465l-52 116l-1 -1v-617h-78v694h123l18 -37l214 -465l52 -116l1 1v617h78v-694zM368 -129l-37 -113h-36l23 112h-22v72h72v-71z" />
    <glyph glyph-name="ncommaaccent" unicode="&#x146;" horiz-adv-x="484" 
d="M409 0h-76v284c0 34 -3 93 -91 93c-68 0 -92 -72 -92 -135v-242h-76v433h73v-62c28 34 70 67 134 67c113 0 128 -83 128 -146v-292zM279 -129l-37 -113h-36l23 112h-22v72h72v-71z" />
    <glyph glyph-name="Ndotaccent" unicode="&#x1e44;" horiz-adv-x="663" 
d="M574 0h-123l-18 37l-214 465l-52 116l-1 -1v-617h-78v694h123l18 -37l214 -465l52 -116l1 1v617h78v-694zM374 730h-84v84h84v-84z" />
    <glyph glyph-name="ndotaccent" unicode="&#x1e45;" horiz-adv-x="484" 
d="M409 0h-76v284c0 34 -3 93 -91 93c-68 0 -92 -72 -92 -135v-242h-76v433h73v-62c28 34 70 67 134 67c113 0 128 -83 128 -146v-292zM284 564h-84v84h84v-84z" />
    <glyph glyph-name="Ndotbelow" unicode="&#x1e46;" horiz-adv-x="663" 
d="M574 0h-123l-18 37l-214 465l-52 116l-1 -1v-617h-78v694h123l18 -37l214 -465l52 -116l1 1v617h78v-694zM374 -200h-84v84h84v-84z" />
    <glyph glyph-name="ndotbelow" unicode="&#x1e47;" horiz-adv-x="484" 
d="M409 0h-76v284c0 34 -3 93 -91 93c-68 0 -92 -72 -92 -135v-242h-76v433h73v-62c28 34 70 67 134 67c113 0 128 -83 128 -146v-292zM284 -200h-84v84h84v-84z" />
    <glyph glyph-name="Ntilde" unicode="&#xd1;" horiz-adv-x="663" 
d="M574 0h-123l-18 37l-214 465l-52 116l-1 -1v-617h-78v694h123l18 -37l214 -465l52 -116l1 1v617h78v-694zM488 847c-2 -79 -51 -117 -92 -117c-27 0 -46 14 -73 33c-20 15 -38 23 -53 23c-28 0 -34 -32 -34 -56h-61c2 79 51 117 92 117c27 0 46 -14 73 -33
c20 -15 38 -23 53 -23c28 0 34 32 34 56h61z" />
    <glyph glyph-name="ntilde" unicode="&#xf1;" horiz-adv-x="484" 
d="M409 0h-76v284c0 34 -3 93 -91 93c-68 0 -92 -72 -92 -135v-242h-76v433h73v-62c28 34 70 67 134 67c113 0 128 -83 128 -146v-292zM399 665c-2 -79 -51 -117 -92 -117c-27 0 -46 14 -73 33c-20 15 -38 23 -53 23c-28 0 -34 -32 -34 -56h-61c2 79 51 117 92 117
c27 0 46 -14 73 -33c20 -15 38 -23 53 -23c28 0 34 32 34 56h61z" />
    <glyph glyph-name="Nu" unicode="&#x39d;" horiz-adv-x="663" 
d="M574 0h-123l-18 37l-214 465l-52 116l-1 -1v-617h-78v694h123l18 -37l214 -465l52 -116l1 1v617h78v-694z" />
    <glyph glyph-name="numero" unicode="&#x2116;" horiz-adv-x="767" 
d="M686 399c0 -56 -28 -133 -88 -133c-61 0 -88 77 -88 133c0 66 27 142 88 142c60 0 88 -83 88 -142zM684 165h-172v48h172v-48zM421 1h-93l-155 554c-8 27 -10 34 -14 71v-625h-61v683h93l153 -545c6 -26 15 -76 15 -76v621h62v-683zM639 398c0 40 -7 89 -41 89
c-33 0 -42 -49 -42 -89c0 -35 12 -78 42 -78c26 0 41 43 41 78z" />
    <glyph glyph-name="Oacute" unicode="&#xd3;" horiz-adv-x="693" 
d="M640 346c0 -209 -139 -362 -294 -362s-294 153 -294 362c0 207 137 364 294 364s294 -156 294 -364zM556 359c0 184 -106 288 -210 288s-210 -104 -210 -288c0 -189 100 -312 210 -312c109 0 210 122 210 312zM537 862l-197 -122h-89l175 122h111z" />
    <glyph glyph-name="oacute" unicode="&#xf3;" 
d="M442 214c0 -124 -94 -222 -208 -222c-111 0 -207 95 -207 222c0 125 93 228 208 228c112 0 207 -100 207 -228zM366 222c0 112 -67 158 -132 158c-60 0 -131 -42 -131 -158c0 -109 61 -168 131 -168c67 0 132 55 132 168zM368 694l-139 -176h-61l124 176h76z" />
    <glyph glyph-name="Obreve" unicode="&#x14e;" horiz-adv-x="693" 
d="M640 346c0 -209 -139 -362 -294 -362s-294 153 -294 362c0 207 137 364 294 364s294 -156 294 -364zM556 359c0 184 -106 288 -210 288s-210 -104 -210 -288c0 -189 100 -312 210 -312c109 0 210 122 210 312zM507 933c-3 -117 -75 -193 -161 -193
c-82 0 -157 73 -160 193h61c2 -78 46 -127 100 -127c50 0 97 47 99 127h61z" />
    <glyph glyph-name="obreve" unicode="&#x14f;" 
d="M442 214c0 -124 -94 -222 -208 -222c-111 0 -207 95 -207 222c0 125 93 228 208 228c112 0 207 -100 207 -228zM366 222c0 112 -67 158 -132 158c-60 0 -131 -42 -131 -158c0 -109 61 -168 131 -168c67 0 132 55 132 168zM396 703c-3 -117 -75 -193 -161 -193
c-82 0 -157 73 -160 193h61c2 -78 46 -127 100 -127c50 0 97 47 99 127h61z" />
    <glyph glyph-name="Ocaron" unicode="&#x1d1;" horiz-adv-x="693" 
d="M640 346c0 -209 -139 -362 -294 -362s-294 153 -294 362c0 207 137 364 294 364s294 -156 294 -364zM556 359c0 184 -106 288 -210 288s-210 -104 -210 -288c0 -189 100 -312 210 -312c109 0 210 122 210 312zM502 864l-126 -134h-60l-126 134h59l97 -97l97 97h59z" />
    <glyph glyph-name="ocaron" unicode="&#x1d2;" 
d="M442 214c0 -124 -94 -222 -208 -222c-111 0 -207 95 -207 222c0 125 93 228 208 228c112 0 207 -100 207 -228zM366 222c0 112 -67 158 -132 158c-60 0 -131 -42 -131 -158c0 -109 61 -168 131 -168c67 0 132 55 132 168zM390 692l-125 -172h-60l-125 172h59l96 -123
l96 123h59z" />
    <glyph glyph-name="Ocircumflex" unicode="&#xd4;" horiz-adv-x="693" 
d="M640 346c0 -209 -139 -362 -294 -362s-294 153 -294 362c0 207 137 364 294 364s294 -156 294 -364zM556 359c0 184 -106 288 -210 288s-210 -104 -210 -288c0 -189 100 -312 210 -312c109 0 210 122 210 312zM502 730h-59l-97 97l-97 -97h-59l126 134h60z" />
    <glyph glyph-name="ocircumflex" unicode="&#xf4;" 
d="M442 214c0 -124 -94 -222 -208 -222c-111 0 -207 95 -207 222c0 125 93 228 208 228c112 0 207 -100 207 -228zM366 222c0 112 -67 158 -132 158c-60 0 -131 -42 -131 -158c0 -109 61 -168 131 -168c67 0 132 55 132 168zM390 520h-59l-96 123l-96 -123h-59l125 172h60z
" />
    <glyph glyph-name="Ocircumflexacute" unicode="&#x1ed0;" horiz-adv-x="693" 
d="M640 346c0 -209 -139 -362 -294 -362s-294 153 -294 362c0 207 137 364 294 364s294 -156 294 -364zM556 359c0 184 -106 288 -210 288s-210 -104 -210 -288c0 -189 100 -312 210 -312c109 0 210 122 210 312zM502 730h-59l-97 97l-97 -97h-59l126 134h60zM489 1021
l-197 -122h-89l175 122h111z" />
    <glyph glyph-name="ocircumflexacute" unicode="&#x1ed1;" 
d="M442 214c0 -124 -94 -222 -208 -222c-111 0 -207 95 -207 222c0 125 93 228 208 228c112 0 207 -100 207 -228zM366 222c0 112 -67 158 -132 158c-60 0 -131 -42 -131 -158c0 -109 61 -168 131 -168c67 0 132 55 132 168zM391 520h-59l-97 97l-97 -97h-59l126 134h60z
M378 811l-197 -122h-89l175 122h111z" />
    <glyph glyph-name="Ocircumflexdotbelow" unicode="&#x1ed8;" horiz-adv-x="693" 
d="M640 346c0 -209 -139 -362 -294 -362s-294 153 -294 362c0 207 137 364 294 364s294 -156 294 -364zM556 359c0 184 -106 288 -210 288s-210 -104 -210 -288c0 -189 100 -312 210 -312c109 0 210 122 210 312zM502 730h-59l-97 97l-97 -97h-59l126 134h60zM389 -200h-84
v84h84v-84z" />
    <glyph glyph-name="ocircumflexdotbelow" unicode="&#x1ed9;" 
d="M442 214c0 -124 -94 -222 -208 -222c-111 0 -207 95 -207 222c0 125 93 228 208 228c112 0 207 -100 207 -228zM366 222c0 112 -67 158 -132 158c-60 0 -131 -42 -131 -158c0 -109 61 -168 131 -168c67 0 132 55 132 168zM390 520h-59l-96 123l-96 -123h-59l125 172h60z
M277 -200h-84v84h84v-84z" />
    <glyph glyph-name="Ocircumflexgrave" unicode="&#x1ed2;" horiz-adv-x="693" 
d="M640 346c0 -209 -139 -362 -294 -362s-294 153 -294 362c0 207 137 364 294 364s294 -156 294 -364zM556 359c0 184 -106 288 -210 288s-210 -104 -210 -288c0 -189 100 -312 210 -312c109 0 210 122 210 312zM502 730h-59l-97 97l-97 -97h-59l126 134h60zM489 899
l-175 122h-111l197 -122h89z" />
    <glyph glyph-name="ocircumflexgrave" unicode="&#x1ed3;" 
d="M442 214c0 -124 -94 -222 -208 -222c-111 0 -207 95 -207 222c0 125 93 228 208 228c112 0 207 -100 207 -228zM366 222c0 112 -67 158 -132 158c-60 0 -131 -42 -131 -158c0 -109 61 -168 131 -168c67 0 132 55 132 168zM391 520h-59l-97 97l-97 -97h-59l126 134h60z
M378 689l-175 122h-111l197 -122h89z" />
    <glyph glyph-name="Ocircumflexhookabove" unicode="&#x1ed4;" horiz-adv-x="693" 
d="M640 346c0 -209 -139 -362 -294 -362s-294 153 -294 362c0 207 137 364 294 364s294 -156 294 -364zM556 359c0 184 -106 288 -210 288s-210 -104 -210 -288c0 -189 100 -312 210 -312c109 0 210 122 210 312zM502 730h-59l-97 97l-97 -97h-59l126 134h60zM526 1018
c0 -19 -9 -36 -25 -47l-4 -2c-38 -25 -58 -41 -58 -69v-20l-1 -1h-17v1v20c0 37 22 72 56 91c10 6 16 16 16 27c0 14 -5 27 -15 34c-12 9 -28 11 -48 11c-30 0 -58 -14 -75 -39h-1l-8 23v1c20 26 51 42 84 42c28 0 52 -5 71 -19c16 -12 25 -32 25 -53z" />
    <glyph glyph-name="ocircumflexhookabove" unicode="&#x1ed5;" 
d="M442 214c0 -124 -94 -222 -208 -222c-111 0 -207 95 -207 222c0 125 93 228 208 228c112 0 207 -100 207 -228zM366 222c0 112 -67 158 -132 158c-60 0 -131 -42 -131 -158c0 -109 61 -168 131 -168c67 0 132 55 132 168zM391 520h-59l-97 97l-97 -97h-59l126 134h60z
M415 808c0 -19 -9 -36 -25 -47l-4 -2c-38 -25 -58 -41 -58 -69v-20l-1 -1h-17v1v20c0 37 22 72 56 91c10 6 16 16 16 27c0 14 -5 27 -15 34c-12 9 -28 11 -48 11c-30 0 -58 -14 -75 -39h-1l-8 23v1c20 26 51 42 84 42c28 0 52 -5 71 -19c16 -12 25 -32 25 -53z" />
    <glyph glyph-name="Ocircumflextilde" unicode="&#x1ed6;" horiz-adv-x="693" 
d="M640 346c0 -209 -139 -362 -294 -362s-294 153 -294 362c0 207 137 364 294 364s294 -156 294 -364zM556 359c0 184 -106 288 -210 288s-210 -104 -210 -288c0 -189 100 -312 210 -312c109 0 210 122 210 312zM502 730h-59l-97 97l-97 -97h-59l126 134h60zM503 1036
c-2 -79 -51 -117 -92 -117c-27 0 -46 14 -73 33c-20 15 -38 23 -53 23c-28 0 -34 -32 -34 -56h-61c2 79 51 117 92 117c27 0 46 -14 73 -33c20 -15 38 -23 53 -23c28 0 34 32 34 56h61z" />
    <glyph glyph-name="ocircumflextilde" unicode="&#x1ed7;" 
d="M442 214c0 -124 -94 -222 -208 -222c-111 0 -207 95 -207 222c0 125 93 228 208 228c112 0 207 -100 207 -228zM366 222c0 112 -67 158 -132 158c-60 0 -131 -42 -131 -158c0 -109 61 -168 131 -168c67 0 132 55 132 168zM391 520h-59l-97 97l-97 -97h-59l126 134h60z
M392 826c-2 -79 -51 -117 -92 -117c-27 0 -46 14 -73 33c-20 15 -38 23 -53 23c-28 0 -34 -32 -34 -56h-61c2 79 51 117 92 117c27 0 46 -14 73 -33c20 -15 38 -23 53 -23c28 0 34 32 34 56h61z" />
    <glyph glyph-name="Odblgrave" unicode="&#x20c;" horiz-adv-x="693" 
d="M640 346c0 -209 -139 -362 -294 -362s-294 153 -294 362c0 207 137 364 294 364s294 -156 294 -364zM556 359c0 184 -106 288 -210 288s-210 -104 -210 -288c0 -189 100 -312 210 -312c109 0 210 122 210 312zM482 740h-61l-74 176h76zM325 740h-61l-74 176h76z" />
    <glyph glyph-name="odblgrave" unicode="&#x20d;" 
d="M442 214c0 -124 -94 -222 -208 -222c-111 0 -207 95 -207 222c0 125 93 228 208 228c112 0 207 -100 207 -228zM366 222c0 112 -67 158 -132 158c-60 0 -131 -42 -131 -158c0 -109 61 -168 131 -168c67 0 132 55 132 168zM371 518h-61l-74 176h76zM214 518h-61l-74 176
h76z" />
    <glyph glyph-name="Odieresis" unicode="&#xd6;" horiz-adv-x="693" 
d="M640 346c0 -209 -139 -362 -294 -362s-294 153 -294 362c0 207 137 364 294 364s294 -156 294 -364zM556 359c0 184 -106 288 -210 288s-210 -104 -210 -288c0 -189 100 -312 210 -312c109 0 210 122 210 312zM302 730h-76v75h76v-75zM466 730h-76v75h76v-75z" />
    <glyph glyph-name="odieresis" unicode="&#xf6;" 
d="M442 214c0 -124 -94 -222 -208 -222c-111 0 -207 95 -207 222c0 125 93 228 208 228c112 0 207 -100 207 -228zM366 222c0 112 -67 158 -132 158c-60 0 -131 -42 -131 -158c0 -109 61 -168 131 -168c67 0 132 55 132 168zM203 569h-76v75h76v-75zM343 569h-76v75h76v-75z
" />
    <glyph glyph-name="Odotbelow" unicode="&#x1ecc;" horiz-adv-x="693" 
d="M640 346c0 -209 -139 -362 -294 -362s-294 153 -294 362c0 207 137 364 294 364s294 -156 294 -364zM556 359c0 184 -106 288 -210 288s-210 -104 -210 -288c0 -189 100 -312 210 -312c109 0 210 122 210 312zM389 -200h-84v84h84v-84z" />
    <glyph glyph-name="odotbelow" unicode="&#x1ecd;" 
d="M442 214c0 -124 -94 -222 -208 -222c-111 0 -207 95 -207 222c0 125 93 228 208 228c112 0 207 -100 207 -228zM366 222c0 112 -67 158 -132 158c-60 0 -131 -42 -131 -158c0 -109 61 -168 131 -168c67 0 132 55 132 168zM277 -200h-84v84h84v-84z" />
    <glyph glyph-name="OE" unicode="&#x152;" horiz-adv-x="913" 
d="M873 0h-385c-14 0 -29 0 -69 -7c-41 -6 -59 -9 -81 -9c-166 0 -313 154 -313 362c0 205 144 364 313 364c15 0 30 -1 79 -9c41 -7 58 -7 71 -7h372v-65l-335 1v-239h309v-61h-309v-263l348 2v-69zM443 348c0 84 0 178 -4 210c-7 57 -20 91 -99 91
c-126 0 -233 -123 -233 -290c0 -170 101 -314 233 -314c80 0 91 35 99 87c4 32 4 104 4 216z" />
    <glyph glyph-name="oe" unicode="&#x153;" horiz-adv-x="731" 
d="M704 219h-275c1 -99 61 -166 132 -166c36 0 87 12 132 52c0 -4 3 -27 3 -27s3 -33 3 -37c-43 -34 -93 -49 -139 -49c-53 0 -117 20 -169 94c-50 -76 -119 -94 -164 -94c-106 0 -200 97 -200 225c0 127 93 225 200 225c54 0 118 -25 163 -92c46 72 111 92 155 92
c159 0 159 -190 159 -223zM637 274c-11 80 -54 107 -92 107c-44 0 -91 -39 -109 -107h201zM353 223c0 111 -64 158 -126 158c-60 0 -127 -46 -127 -158c0 -119 66 -170 127 -170s126 50 126 170z" />
    <glyph glyph-name="ogonek" unicode="&#x2db;" 
d="M334 -187c-40 -19 -65 -25 -98 -25c-67 0 -98 42 -99 85c-3 51 37 99 87 127h63c-46 -26 -88 -60 -87 -104c1 -30 25 -36 53 -38c22 -1 45 5 67 14z" />
    <glyph glyph-name="Ograve" unicode="&#xd2;" horiz-adv-x="693" 
d="M640 346c0 -209 -139 -362 -294 -362s-294 153 -294 362c0 207 137 364 294 364s294 -156 294 -364zM556 359c0 184 -106 288 -210 288s-210 -104 -210 -288c0 -189 100 -312 210 -312c109 0 210 122 210 312zM441 740h-89l-197 122h111z" />
    <glyph glyph-name="ograve" unicode="&#xf2;" 
d="M442 214c0 -124 -94 -222 -208 -222c-111 0 -207 95 -207 222c0 125 93 228 208 228c112 0 207 -100 207 -228zM366 222c0 112 -67 158 -132 158c-60 0 -131 -42 -131 -158c0 -109 61 -168 131 -168c67 0 132 55 132 168zM302 518h-61l-139 176h76z" />
    <glyph glyph-name="ohm" unicode="&#x2126;" horiz-adv-x="679" 
d="M636 0h-231c1 81 28 143 72 238c31 67 65 144 65 222c0 114 -92 189 -203 189c-110 0 -203 -75 -203 -189c0 -66 24 -133 62 -215c48 -104 74 -165 75 -245h-231v68h78c12 0 24 -1 36 -1h48c-13 57 -45 114 -81 181c-38 71 -71 140 -71 213c0 138 127 249 287 249
c159 0 287 -111 287 -249c0 -75 -35 -147 -72 -215c-35 -63 -66 -122 -80 -179h48c12 0 24 1 36 1h78v-68z" />
    <glyph glyph-name="Ohookabove" unicode="&#x1ece;" horiz-adv-x="693" 
d="M640 346c0 -209 -139 -362 -294 -362s-294 153 -294 362c0 207 137 364 294 364s294 -156 294 -364zM556 359c0 184 -106 288 -210 288s-210 -104 -210 -288c0 -189 100 -312 210 -312c109 0 210 122 210 312zM436 869c0 -19 -9 -36 -25 -47l-4 -2
c-38 -25 -58 -41 -58 -69v-20l-1 -1h-17v1v20c0 37 22 72 56 91c10 6 16 16 16 27c0 14 -5 27 -15 34c-12 9 -28 11 -48 11c-30 0 -58 -14 -75 -39h-1l-8 23v1c20 26 51 42 84 42c28 0 52 -5 71 -19c16 -12 25 -32 25 -53z" />
    <glyph glyph-name="ohookabove" unicode="&#x1ecf;" 
d="M442 214c0 -124 -94 -222 -208 -222c-111 0 -207 95 -207 222c0 125 93 228 208 228c112 0 207 -100 207 -228zM366 222c0 112 -67 158 -132 158c-60 0 -131 -42 -131 -158c0 -109 61 -168 131 -168c67 0 132 55 132 168zM325 640c0 -19 -9 -36 -25 -47l-4 -2
c-38 -25 -58 -41 -58 -69v-20l-1 -1h-17v1v20c0 37 22 72 56 91c10 6 16 16 16 27c0 14 -5 27 -15 34c-12 9 -28 11 -48 11c-30 0 -58 -14 -75 -39h-1l-8 23v1c20 26 51 42 84 42c28 0 52 -5 71 -19c16 -12 25 -32 25 -53z" />
    <glyph glyph-name="Ohorn" unicode="&#x1a0;" horiz-adv-x="678" 
d="M640 346c0 -209 -139 -362 -294 -362s-294 153 -294 362c0 207 137 364 294 364c60 0 117 -23 164 -62l30 23h-24v78h79v-77l-62 -45c64 -65 107 -165 107 -281zM556 359c0 184 -106 288 -210 288s-210 -104 -210 -288c0 -189 100 -312 210 -312c109 0 210 122 210 312z
" />
    <glyph glyph-name="ohorn" unicode="&#x1a1;" horiz-adv-x="463" 
d="M450 432l-68 -59c34 -40 60 -96 60 -159c0 -124 -94 -222 -208 -222c-111 0 -207 95 -207 222c0 125 93 228 207 228c44 0 88 -17 127 -46l34 35h-24v79h79v-78zM366 222c0 112 -67 158 -132 158c-60 0 -131 -42 -131 -158c0 -109 61 -168 131 -168c67 0 132 55 132 168z
" />
    <glyph glyph-name="Ohornacute" unicode="&#x1eda;" horiz-adv-x="678" 
d="M640 346c0 -209 -139 -362 -294 -362s-294 153 -294 362c0 207 137 364 294 364c60 0 117 -23 164 -62l30 23h-24v78h79v-77l-62 -45c64 -65 107 -165 107 -281zM556 359c0 184 -106 288 -210 288s-210 -104 -210 -288c0 -189 100 -312 210 -312c109 0 210 122 210 312z
M511 862l-197 -122h-89l175 122h111z" />
    <glyph glyph-name="ohornacute" unicode="&#x1edb;" horiz-adv-x="463" 
d="M450 432l-68 -59c34 -40 60 -96 60 -159c0 -124 -94 -222 -208 -222c-111 0 -207 95 -207 222c0 125 93 228 207 228c44 0 88 -17 127 -46l34 35h-24v79h79v-78zM366 222c0 112 -67 158 -132 158c-60 0 -131 -42 -131 -158c0 -109 61 -168 131 -168c67 0 132 55 132 168z
M341 694l-139 -176h-61l124 176h76z" />
    <glyph glyph-name="Ohorndotbelow" unicode="&#x1ee2;" horiz-adv-x="678" 
d="M640 346c0 -209 -139 -362 -294 -362s-294 153 -294 362c0 207 137 364 294 364c60 0 117 -23 164 -62l30 23h-24v78h79v-77l-62 -45c64 -65 107 -165 107 -281zM556 359c0 184 -106 288 -210 288s-210 -104 -210 -288c0 -189 100 -312 210 -312c109 0 210 122 210 312z
M381 -200h-84v84h84v-84z" />
    <glyph glyph-name="ohorndotbelow" unicode="&#x1ee3;" horiz-adv-x="463" 
d="M450 432l-68 -59c34 -40 60 -96 60 -159c0 -124 -94 -222 -208 -222c-111 0 -207 95 -207 222c0 125 93 228 207 228c44 0 88 -17 127 -46l34 35h-24v79h79v-78zM366 222c0 112 -67 158 -132 158c-60 0 -131 -42 -131 -158c0 -109 61 -168 131 -168c67 0 132 55 132 168z
M274 -200h-84v84h84v-84z" />
    <glyph glyph-name="Ohorngrave" unicode="&#x1edc;" horiz-adv-x="678" 
d="M640 346c0 -209 -139 -362 -294 -362s-294 153 -294 362c0 207 137 364 294 364c60 0 117 -23 164 -62l30 23h-24v78h79v-77l-62 -45c64 -65 107 -165 107 -281zM556 359c0 184 -106 288 -210 288s-210 -104 -210 -288c0 -189 100 -312 210 -312c109 0 210 122 210 312z
M441 740h-89l-197 122h111z" />
    <glyph glyph-name="ohorngrave" unicode="&#x1edd;" horiz-adv-x="463" 
d="M450 432l-68 -59c34 -40 60 -96 60 -159c0 -124 -94 -222 -208 -222c-111 0 -207 95 -207 222c0 125 93 228 207 228c44 0 88 -17 127 -46l34 35h-24v79h79v-78zM366 222c0 112 -67 158 -132 158c-60 0 -131 -42 -131 -158c0 -109 61 -168 131 -168c67 0 132 55 132 168z
M301 518h-61l-139 176h76z" />
    <glyph glyph-name="Ohornhookabove" unicode="&#x1ede;" horiz-adv-x="678" 
d="M640 346c0 -209 -139 -362 -294 -362s-294 153 -294 362c0 207 137 364 294 364c60 0 117 -23 164 -62l30 23h-24v78h79v-77l-62 -45c64 -65 107 -165 107 -281zM556 359c0 184 -106 288 -210 288s-210 -104 -210 -288c0 -189 100 -312 210 -312c109 0 210 122 210 312z
M436 869c0 -19 -9 -36 -25 -47l-4 -2c-38 -25 -58 -41 -58 -69v-20l-1 -1h-17v1v20c0 37 22 72 56 91c10 6 16 16 16 27c0 14 -5 27 -15 34c-12 9 -28 11 -48 11c-30 0 -58 -14 -75 -39h-1l-8 23v1c20 26 51 42 84 42c28 0 52 -5 71 -19c16 -12 25 -32 25 -53z" />
    <glyph glyph-name="ohornhookabove" unicode="&#x1edf;" horiz-adv-x="463" 
d="M450 432l-68 -59c34 -40 60 -96 60 -159c0 -124 -94 -222 -208 -222c-111 0 -207 95 -207 222c0 125 93 228 207 228c44 0 88 -17 127 -46l34 35h-24v79h79v-78zM366 222c0 112 -67 158 -132 158c-60 0 -131 -42 -131 -158c0 -109 61 -168 131 -168c67 0 132 55 132 168z
M324 640c0 -19 -9 -36 -25 -47l-4 -2c-38 -25 -58 -41 -58 -69v-20l-1 -1h-17v1v20c0 37 22 72 56 91c10 6 16 16 16 27c0 14 -5 27 -15 34c-12 9 -28 11 -48 11c-30 0 -58 -14 -75 -39h-1l-8 23v1c20 26 51 42 84 42c28 0 52 -5 71 -19c16 -12 25 -32 25 -53z" />
    <glyph glyph-name="Ohorntilde" unicode="&#x1ee0;" horiz-adv-x="678" 
d="M640 346c0 -209 -139 -362 -294 -362s-294 153 -294 362c0 207 137 364 294 364c60 0 117 -23 164 -62l30 23h-24v78h79v-77l-62 -45c64 -65 107 -165 107 -281zM556 359c0 184 -106 288 -210 288s-210 -104 -210 -288c0 -189 100 -312 210 -312c109 0 210 122 210 312z
M503 847c-2 -79 -51 -117 -92 -117c-27 0 -46 14 -73 33c-20 15 -38 23 -53 23c-28 0 -34 -32 -34 -56h-61c2 79 51 117 92 117c27 0 46 -14 73 -33c20 -15 38 -23 53 -23c28 0 34 32 34 56h61z" />
    <glyph glyph-name="ohorntilde" unicode="&#x1ee1;" horiz-adv-x="463" 
d="M450 432l-68 -59c34 -40 60 -96 60 -159c0 -124 -94 -222 -208 -222c-111 0 -207 95 -207 222c0 125 93 228 207 228c44 0 88 -17 127 -46l34 35h-24v79h79v-78zM366 222c0 112 -67 158 -132 158c-60 0 -131 -42 -131 -158c0 -109 61 -168 131 -168c67 0 132 55 132 168z
M391 665c-2 -79 -51 -117 -92 -117c-27 0 -46 14 -73 33c-20 15 -38 23 -53 23c-28 0 -34 -32 -34 -56h-61c2 79 51 117 92 117c27 0 46 -14 73 -33c20 -15 38 -23 53 -23c28 0 34 32 34 56h61z" />
    <glyph glyph-name="Ohungarumlaut" unicode="&#x150;" horiz-adv-x="693" 
d="M640 346c0 -209 -139 -362 -294 -362s-294 153 -294 362c0 207 137 364 294 364s294 -156 294 -364zM556 359c0 184 -106 288 -210 288s-210 -104 -210 -288c0 -189 100 -312 210 -312c109 0 210 122 210 312zM345 916l-74 -176h-61l59 176h76zM502 916l-74 -176h-61
l59 176h76z" />
    <glyph glyph-name="ohungarumlaut" unicode="&#x151;" 
d="M442 214c0 -124 -94 -222 -208 -222c-111 0 -207 95 -207 222c0 125 93 228 208 228c112 0 207 -100 207 -228zM366 222c0 112 -67 158 -132 158c-60 0 -131 -42 -131 -158c0 -109 61 -168 131 -168c67 0 132 55 132 168zM234 694l-74 -176h-61l59 176h76zM391 694
l-74 -176h-61l59 176h76z" />
    <glyph glyph-name="Omacron" unicode="&#x14c;" horiz-adv-x="693" 
d="M640 346c0 -209 -139 -362 -294 -362s-294 153 -294 362c0 207 137 364 294 364s294 -156 294 -364zM556 359c0 184 -106 288 -210 288s-210 -104 -210 -288c0 -189 100 -312 210 -312c109 0 210 122 210 312zM516 750h-339v64h339v-64z" />
    <glyph glyph-name="omacron" unicode="&#x14d;" 
d="M442 214c0 -124 -94 -222 -208 -222c-111 0 -207 95 -207 222c0 125 93 228 208 228c112 0 207 -100 207 -228zM366 222c0 112 -67 158 -132 158c-60 0 -131 -42 -131 -158c0 -109 61 -168 131 -168c67 0 132 55 132 168zM405 574h-339v64h339v-64z" />
    <glyph glyph-name="Omega" unicode="&#x3a9;" horiz-adv-x="679" 
d="M636 0h-231c1 81 28 143 72 238c31 67 65 144 65 222c0 114 -92 189 -203 189c-110 0 -203 -75 -203 -189c0 -66 24 -133 62 -215c48 -104 74 -165 75 -245h-231v68h78c12 0 24 -1 36 -1h48c-13 57 -45 114 -81 181c-38 71 -71 140 -71 213c0 138 127 249 287 249
c159 0 287 -111 287 -249c0 -75 -35 -147 -72 -215c-35 -63 -66 -122 -80 -179h48c12 0 24 1 36 1h78v-68z" />
    <glyph glyph-name="Omicron" unicode="&#x39f;" horiz-adv-x="693" 
d="M640 346c0 -209 -139 -362 -294 -362s-294 153 -294 362c0 207 137 364 294 364s294 -156 294 -364zM556 359c0 184 -106 288 -210 288s-210 -104 -210 -288c0 -189 100 -312 210 -312c109 0 210 122 210 312z" />
    <glyph glyph-name="onehalf" unicode="&#xbd;" horiz-adv-x="738" 
d="M289 307h-225v35h85v308c-34 -12 -68 -13 -89 -14v35c47 1 92 6 131 39h13v-368h85v-35zM678 0h-270v38l124 109c39 32 89 74 89 130c0 46 -35 88 -97 88c-56 0 -78 -35 -94 -90l-28 33c20 58 61 95 132 95c91 0 144 -59 144 -125c0 -42 -27 -71 -47 -91
c-21 -21 -51 -42 -71 -60l-102 -86v-1h72c8 0 17 1 25 1h123v-41zM577 674l-377 -654h-39l376 654h40z" />
    <glyph glyph-name="onequarter" unicode="&#xbc;" horiz-adv-x="738" 
d="M289 307h-225v35h85v308c-34 -12 -68 -13 -89 -14v35c47 1 92 6 131 39h13v-368h85v-35zM678 103h-66v-103h-57v103h-177v36l171 255h63v-255h66v-36zM613 674l-376 -654h-39l376 654h39zM558 139v227c-1 -42 -83 -166 -125 -227h125z" />
    <glyph glyph-name="one.superior" unicode="&#xb9;" horiz-adv-x="350" 
d="M289 307h-225v35h85v308c-34 -12 -68 -13 -89 -14v35c47 1 92 6 131 39h13v-368h85v-35z" />
    <glyph glyph-name="Oogonek" unicode="&#x1ea;" horiz-adv-x="693" 
d="M640 346c0 -183 -106 -322 -236 -355c-40 -25 -73 -56 -72 -95c1 -30 25 -36 53 -38c22 -1 45 5 67 14l14 -59c-40 -19 -65 -25 -98 -25c-67 0 -98 42 -99 85c-3 43 25 83 63 111c-149 9 -280 159 -280 362c0 207 137 364 294 364s294 -156 294 -364zM556 359
c0 184 -106 288 -210 288s-210 -104 -210 -288c0 -189 100 -312 210 -312c109 0 210 122 210 312z" />
    <glyph glyph-name="oogonek" unicode="&#x1eb;" 
d="M442 214c0 -103 -65 -188 -152 -214h6c-46 -26 -88 -60 -87 -104c1 -30 25 -36 53 -38c22 -1 45 5 67 14l14 -59c-40 -19 -65 -25 -98 -25c-67 0 -98 42 -99 85c-3 47 31 91 75 119c-106 8 -194 100 -194 222c0 125 93 228 208 228c112 0 207 -100 207 -228zM366 222
c0 112 -67 159 -132 159c-60 0 -131 -43 -131 -159c0 -109 61 -167 132 -167c66 0 131 54 131 167z" />
    <glyph glyph-name="openbullet" unicode="&#x25e6;" horiz-adv-x="731" 
d="M493 142h-254v254h254v-254zM459 269c0 51 -42 93 -93 93s-93 -42 -93 -93s42 -93 93 -93s93 42 93 93z" />
    <glyph glyph-name="ordfeminine" unicode="&#xaa;" horiz-adv-x="349" 
d="M316 401h-62v26c-49 -30 -117 -32 -130 -32c-69 0 -90 57 -90 86c0 55 84 87 218 91v26c0 44 -26 71 -69 71c-60 0 -96 -20 -117 -33l-6 46c47 23 87 28 124 28c76 0 132 -45 132 -111v-198zM284 343c0 -12 -14 -22 -32 -22h-154c-18 0 -32 10 -32 22s14 22 32 22h154
c18 0 32 -10 32 -22zM252 493v44c-26 -1 -157 -6 -157 -55c0 -24 28 -44 70 -44c12 0 40 2 62 13c25 13 25 30 25 42z" />
    <glyph glyph-name="ordmasculine" unicode="&#xba;" horiz-adv-x="394" 
d="M371 551c0 -87 -79 -156 -174 -156c-94 0 -174 67 -174 156c0 87 78 159 174 159c94 0 174 -70 174 -159zM339 343c0 -12 -14 -22 -32 -22h-220c-18 0 -32 10 -32 22s14 22 32 22h220c18 0 32 -10 32 -22zM307 556c0 79 -56 112 -110 112c-51 0 -110 -30 -110 -112
c0 -76 51 -116 110 -116c56 0 110 37 110 116z" />
    <glyph glyph-name="Oslash" unicode="&#xd8;" horiz-adv-x="731" 
d="M678 346c0 -207 -146 -362 -313 -362c-36 0 -79 8 -121 29c-12 6 -15 6 -15 6s-2 -1 -8 -11l-38 -72l-56 30l49 92c-80 69 -124 175 -124 288c0 205 144 364 313 364c60 0 109 -21 137 -37l45 85l56 -30l-49 -92c31 -30 124 -120 124 -290zM472 617
c-24 15 -62 32 -107 32c-116 0 -229 -108 -229 -303c0 -46 5 -144 72 -226zM594 346c0 52 -8 150 -73 227l-263 -496c33 -20 68 -32 107 -32c113 0 229 102 229 301z" />
    <glyph glyph-name="oslash" unicode="&#xf8;" 
d="M442 214c0 -124 -94 -222 -208 -222c-33 0 -61 9 -77 16l-65 -120l-54 30l67 123c-45 36 -78 100 -78 173c0 125 93 228 208 228c35 0 66 -11 79 -17l63 118l54 -30l-66 -121c48 -45 77 -109 77 -178zM284 371c-15 7 -32 10 -49 10c-67 0 -132 -53 -132 -167
c0 -29 4 -75 34 -113zM366 214c0 31 -5 79 -34 117l-145 -269c15 -6 31 -9 47 -9c64 0 132 48 132 161z" />
    <glyph glyph-name="Oslashacute" unicode="&#x1fe;" horiz-adv-x="731" 
d="M678 346c0 -207 -146 -362 -313 -362c-36 0 -79 8 -121 29c-12 6 -15 6 -15 6s-2 -1 -8 -11l-38 -72l-56 30l49 92c-80 69 -124 175 -124 288c0 205 144 364 313 364c60 0 109 -21 137 -37l45 85l56 -30l-49 -92c31 -30 124 -120 124 -290zM472 617
c-24 15 -62 32 -107 32c-116 0 -229 -108 -229 -303c0 -46 5 -144 72 -226zM594 346c0 52 -8 150 -73 227l-263 -496c33 -20 68 -32 107 -32c113 0 229 102 229 301zM557 862l-197 -122h-89l175 122h111z" />
    <glyph glyph-name="oslashacute" unicode="&#x1ff;" 
d="M442 214c0 -124 -94 -222 -208 -222c-33 0 -61 9 -77 16l-65 -120l-54 30l67 123c-45 36 -78 100 -78 173c0 125 93 228 208 228c35 0 66 -11 79 -17l63 118l54 -30l-66 -121c48 -45 77 -109 77 -178zM284 371c-15 7 -32 10 -49 10c-67 0 -132 -53 -132 -167
c0 -29 4 -75 34 -113zM366 214c0 31 -5 79 -34 117l-145 -269c15 -6 31 -9 47 -9c64 0 132 48 132 161zM368 694l-139 -176h-61l124 176h76z" />
    <glyph glyph-name="Otilde" unicode="&#xd5;" horiz-adv-x="693" 
d="M640 346c0 -209 -139 -362 -294 -362s-294 153 -294 362c0 207 137 364 294 364s294 -156 294 -364zM556 359c0 184 -106 288 -210 288s-210 -104 -210 -288c0 -189 100 -312 210 -312c109 0 210 122 210 312zM503 847c-2 -79 -51 -117 -92 -117c-27 0 -46 14 -73 33
c-20 15 -38 23 -53 23c-28 0 -34 -32 -34 -56h-61c2 79 51 117 92 117c27 0 46 -14 73 -33c20 -15 38 -23 53 -23c28 0 34 32 34 56h61z" />
    <glyph glyph-name="otilde" unicode="&#xf5;" 
d="M442 214c0 -124 -94 -222 -208 -222c-111 0 -207 95 -207 222c0 125 93 228 208 228c112 0 207 -100 207 -228zM366 222c0 112 -67 158 -132 158c-60 0 -131 -42 -131 -158c0 -109 61 -168 131 -168c67 0 132 55 132 168zM392 665c-2 -79 -51 -117 -92 -117
c-27 0 -46 14 -73 33c-20 15 -38 23 -53 23c-28 0 -34 -32 -34 -56h-61c2 79 51 117 92 117c27 0 46 -14 73 -33c20 -15 38 -23 53 -23c28 0 34 32 34 56h61z" />
    <glyph glyph-name="paragraph" unicode="&#xb6;" horiz-adv-x="611" 
d="M582 674c0 -20 -19 -20 -33 -20h-50v-815c0 -14 0 -33 -20 -33s-20 19 -20 33v815h-70v-815c0 -14 0 -33 -20 -33s-20 19 -20 33v391c-128 5 -293 76 -293 233c0 126 110 231 250 231h243c14 0 33 0 33 -20z" />
    <glyph glyph-name="periodcentered" unicode="&#xb7;" horiz-adv-x="731" 
d="M406 307h-80v80h80v-80z" />
    <glyph glyph-name="permyriad" unicode="&#x2031;" horiz-adv-x="1389" 
d="M1355 146c0 -116 -61 -201 -130 -201c-67 0 -131 83 -131 201s64 201 131 201c68 0 130 -85 130 -201zM1024 146c0 -116 -61 -201 -130 -201c-67 0 -131 83 -131 201s64 201 131 201c68 0 130 -85 130 -201zM313 548c0 -116 -61 -201 -130 -201c-67 0 -131 83 -131 201
s64 201 131 201c68 0 130 -85 130 -201zM581 731c0 0 0 -6 -6 -16l-410 -752c-8 -14 -10 -18 -19 -18s-18 7 -18 18c0 6 4 12 6 16l409 752c5 10 10 18 21 18c8 0 17 -7 17 -18zM693 146c0 -116 -61 -201 -130 -201c-67 0 -131 83 -131 201s64 201 131 201
c68 0 130 -85 130 -201zM1282 146c0 67 -20 140 -57 140c-21 0 -55 -20 -55 -140c0 -121 34 -140 55 -140c37 0 57 73 57 140zM951 146c0 67 -20 140 -57 140c-21 0 -55 -20 -55 -140c0 -121 34 -140 55 -140c37 0 57 73 57 140zM240 548c0 67 -20 140 -57 140
c-21 0 -55 -20 -55 -140c0 -121 34 -140 55 -140c37 0 57 73 57 140zM620 146c0 67 -20 140 -57 140c-21 0 -55 -20 -55 -140c0 -121 34 -140 55 -140c37 0 57 73 57 140z" />
    <glyph glyph-name="perthousand" unicode="&#x2030;" horiz-adv-x="1094" 
d="M1033 146c0 -116 -61 -201 -130 -201c-67 0 -131 83 -131 201s64 201 131 201c68 0 130 -85 130 -201zM322 548c0 -116 -61 -201 -130 -201c-67 0 -131 83 -131 201s64 201 131 201c68 0 130 -85 130 -201zM702 146c0 -116 -61 -201 -130 -201c-67 0 -131 83 -131 201
s64 201 131 201c68 0 130 -85 130 -201zM590 731c0 0 0 -6 -6 -16l-410 -752c-8 -14 -10 -18 -19 -18s-18 7 -18 18c0 6 4 12 6 16l409 752c5 10 10 18 21 18c8 0 17 -7 17 -18zM960 146c0 67 -20 140 -57 140c-21 0 -55 -20 -55 -140c0 -121 34 -140 55 -140
c37 0 57 73 57 140zM249 548c0 67 -20 140 -57 140c-21 0 -55 -20 -55 -140c0 -121 34 -140 55 -140c37 0 57 73 57 140zM629 146c0 67 -20 140 -57 140c-21 0 -55 -20 -55 -140c0 -121 34 -140 55 -140c37 0 57 73 57 140z" />
    <glyph glyph-name="peso" unicode="&#x20b1;" horiz-adv-x="600" 
d="M547 492c0 -110 -98 -203 -218 -203h-156v-83h127v-64h-127v-142h-84v142h-69v64h69v488h234c130 0 224 -94 224 -202zM468 492c0 73 -51 146 -167 146h-130v-291h130c120 0 167 77 167 145z" />
    <glyph glyph-name="Phi" unicode="&#x3a6;" horiz-adv-x="679" 
d="M626 347c0 -114 -96 -222 -248 -241v-106h-81v107c-142 16 -245 122 -245 240s103 224 245 240v107h81v-106c152 -19 248 -127 248 -241zM297 168v358c-111 -19 -163 -98 -163 -179s52 -160 163 -179zM544 347c0 75 -46 161 -166 179v-358c119 18 166 104 166 179z" />
    <glyph glyph-name="Pi" unicode="&#x3a0;" horiz-adv-x="663" 
d="M574 0h-84v631h-318v-631h-84v692h486v-692z" />
    <glyph glyph-name="plusminus" unicode="&#xb1;" horiz-adv-x="731" 
d="M678 17c0 -17 -17 -17 -31 -17h-564c-15 0 -31 0 -31 18c0 17 17 17 31 17h265v261h-265c-15 0 -31 0 -31 18c0 17 17 17 31 17h265v265c0 15 0 31 18 31c17 0 17 -17 17 -31v-265h264c15 0 31 0 31 -18c0 -17 -17 -17 -31 -17h-264v-261h264c15 0 31 0 31 -18z" />
    <glyph glyph-name="Psi" unicode="&#x3a8;" horiz-adv-x="731" 
d="M678 552c-42 -2 -64 -36 -64 -129c-1 -144 -39 -287 -210 -316v-107h-81v107c-154 24 -206 159 -207 301c0 80 -8 141 -64 144v61h70c59 0 75 -37 75 -194c0 -67 6 -213 126 -248v523h81v-523c115 32 129 163 129 246c0 54 0 109 12 148c15 48 41 48 63 48h70v-61z" />
    <glyph glyph-name="published" unicode="&#x2117;" horiz-adv-x="694" 
d="M694 347c0 -192 -155 -347 -347 -347s-347 155 -347 347s155 347 347 347s347 -155 347 -347zM660 347c0 173 -140 313 -313 313s-313 -140 -313 -313s140 -313 313 -313s313 140 313 313zM521 446c0 -75 -66 -138 -147 -138h-106v-196h-57v470h159
c88 0 151 -63 151 -136zM468 446c0 49 -35 99 -113 99h-88v-198h88c81 0 113 52 113 99z" />
    <glyph glyph-name="questiondown" unicode="&#xbf;" horiz-adv-x="444" 
d="M248 420h-80v80h80v-80zM391 -150c-21 -13 -91 -53 -181 -53c-113 0 -158 70 -158 156c0 72 28 101 47 121c40 43 77 114 77 206v51h64v-53c0 -25 0 -138 -85 -247c-15 -19 -27 -34 -27 -81c0 -55 16 -92 82 -92c44 0 102 12 159 54z" />
    <glyph glyph-name="quillbracketleft" unicode="&#x2045;" horiz-adv-x="340" 
d="M286 -297c-101 0 -212 56 -212 176v224c0 80 65 142 142 147v2c-17 1 -35 6 -51 13c-61 23 -92 79 -92 141c0 11 1 23 1 34v171c0 23 0 46 12 67c37 60 130 72 200 72v-50h-35c-85 0 -117 -32 -117 -84v-177c0 -11 -1 -21 -1 -32c0 -87 75 -131 152 -131v-50
c-82 0 -151 -44 -151 -133v-232c6 -63 50 -109 114 -109c13 0 25 1 38 1v-50z" />
    <glyph glyph-name="quillbracketright" unicode="&#x2046;" horiz-adv-x="340" 
d="M265 -109c0 -23 0 -45 -12 -66c-36 -61 -129 -73 -199 -73v50h34c53 0 117 8 117 84v209c0 87 -74 131 -152 131v50c101 0 152 58 152 131v209c0 76 -64 84 -117 84h-34v50c70 0 163 -12 199 -73c12 -21 12 -43 12 -66v-206c0 -11 0 -22 -2 -33
c-10 -64 -75 -120 -141 -120v-2c18 0 37 -6 53 -13c62 -29 90 -77 90 -141v-205z" />
    <glyph glyph-name="quotedblbase" unicode="&#x201e;" horiz-adv-x="444" 
d="M171 1l-41 -126h-40l26 125h-25v80h80v-79zM354 1l-41 -126h-40l26 125h-25v80h80v-79z" />
    <glyph glyph-name="quotedblleft" unicode="&#x201c;" horiz-adv-x="444" 
d="M171 694l-26 -125h25v-80h-80v79l41 126h40zM354 694l-26 -125h25v-80h-80v79l41 126h40z" />
    <glyph glyph-name="quotedblright" unicode="&#x201d;" horiz-adv-x="444" 
d="M171 615l-41 -126h-40l26 125h-25v80h80v-79zM354 615l-41 -126h-40l26 125h-25v80h80v-79z" />
    <glyph glyph-name="quoteleft" unicode="&#x2018;" horiz-adv-x="261" 
d="M171 694l-26 -125h25v-80h-80v79l41 126h40z" />
    <glyph glyph-name="quoteright" unicode="&#x2019;" horiz-adv-x="261" 
d="M170 615l-41 -126h-40l26 125h-25v80h80v-79z" />
    <glyph glyph-name="quotesinglbase" unicode="&#x201a;" horiz-adv-x="261" 
d="M171 1l-41 -126h-40l26 125h-25v80h80v-79z" />
    <glyph glyph-name="Racute" unicode="&#x154;" horiz-adv-x="606" 
d="M579 0h-84l-177 317h-147v-317h-82v694h224c144 0 240 -91 240 -186c0 -19 -1 -127 -157 -181l-2 -1zM474 508c0 58 -45 130 -172 130h-131v-260h131c132 0 172 76 172 130zM494 862l-197 -122h-89l175 122h111z" />
    <glyph glyph-name="racute" unicode="&#x155;" horiz-adv-x="320" 
d="M306 372c-88 -2 -157 -65 -157 -159v-213h-74v433h71v-80c36 52 96 84 160 85v-66zM275 694l-139 -176h-61l124 176h76z" />
    <glyph glyph-name="radical" unicode="&#x221a;" horiz-adv-x="444" 
d="M489 734c0 -8 -7 -16 -16 -18h-92c-3 -23 -11 -46 -16 -69l-35 -145l-132 -550c-4 -24 -7 -58 -34 -58h-11l-54 288l-43 -73l-25 24l-9 12l102 177l57 -293c2 13 6 26 9 39l150 628c8 27 5 55 40 55h84c9 0 25 -2 25 -17z" />
    <glyph glyph-name="Rcaron" unicode="&#x158;" horiz-adv-x="606" 
d="M579 0h-84l-177 317h-147v-317h-82v694h224c144 0 240 -91 240 -186c0 -19 -1 -127 -157 -181l-2 -1zM474 508c0 58 -45 130 -172 130h-131v-260h131c132 0 172 76 172 130zM459 864l-126 -134h-60l-126 134h59l97 -97l97 97h59z" />
    <glyph glyph-name="rcaron" unicode="&#x159;" horiz-adv-x="320" 
d="M306 372c-88 -2 -157 -65 -157 -159v-213h-74v433h71v-80c36 52 96 84 160 85v-66zM315 692l-125 -172h-60l-125 172h59l96 -123l96 123h59z" />
    <glyph glyph-name="Rcommaaccent" unicode="&#x156;" horiz-adv-x="606" 
d="M579 0h-84l-177 317h-147v-317h-82v694h224c144 0 240 -91 240 -186c0 -19 -1 -127 -157 -181l-2 -1zM474 508c0 58 -45 130 -172 130h-131v-260h131c132 0 172 76 172 130zM340 -129l-37 -113h-36l23 112h-22v72h72v-71z" />
    <glyph glyph-name="rcommaaccent" unicode="&#x157;" horiz-adv-x="320" 
d="M306 372c-88 -2 -157 -65 -157 -159v-213h-74v433h71v-80c36 52 96 84 160 85v-66zM149 -129l-37 -113h-36l23 112h-22v72h72v-71z" />
    <glyph glyph-name="Rdblgrave" unicode="&#x210;" horiz-adv-x="606" 
d="M579 0h-84l-177 317h-147v-317h-82v694h224c144 0 240 -91 240 -186c0 -19 -1 -127 -157 -181l-2 -1zM474 508c0 58 -45 130 -172 130h-131v-260h131c132 0 172 76 172 130zM413 740h-61l-74 176h76zM256 740h-61l-74 176h76z" />
    <glyph glyph-name="rdblgrave" unicode="&#x211;" horiz-adv-x="320" 
d="M306 372c-88 -2 -157 -65 -157 -159v-213h-74v433h71v-80c36 52 96 84 160 85v-66zM296 518h-61l-74 176h76zM139 518h-61l-74 176h76z" />
    <glyph glyph-name="Rdotaccent" unicode="&#x1e58;" horiz-adv-x="606" 
d="M579 0h-84l-177 317h-147v-317h-82v694h224c144 0 240 -91 240 -186c0 -19 -1 -127 -157 -181l-2 -1zM474 508c0 58 -45 130 -172 130h-131v-260h131c132 0 172 76 172 130zM346 730h-84v84h84v-84z" />
    <glyph glyph-name="rdotaccent" unicode="&#x1e59;" horiz-adv-x="320" 
d="M306 372c-88 -2 -157 -65 -157 -159v-213h-74v433h71v-80c36 52 96 84 160 85v-66zM203 564h-84v84h84v-84z" />
    <glyph glyph-name="Rdotbelow" unicode="&#x1e5a;" horiz-adv-x="606" 
d="M579 0h-84l-177 317h-147v-317h-82v694h224c144 0 240 -91 240 -186c0 -19 -1 -127 -157 -181l-2 -1zM474 508c0 58 -45 130 -172 130h-131v-260h131c132 0 172 76 172 130zM346 -200h-84v84h84v-84z" />
    <glyph glyph-name="rdotbelow" unicode="&#x1e5b;" horiz-adv-x="320" 
d="M306 372c-88 -2 -157 -65 -157 -159v-213h-74v433h71v-80c36 52 96 84 160 85v-66zM154 -200h-84v84h84v-84z" />
    <glyph glyph-name="Rdotbelowmacron" unicode="&#x1e5c;" horiz-adv-x="606" 
d="M579 0h-84l-177 317h-147v-317h-82v694h224c144 0 240 -91 240 -186c0 -19 -1 -127 -157 -181l-2 -1zM474 508c0 58 -45 130 -172 130h-131v-260h131c132 0 172 76 172 130zM346 -200h-84v84h84v-84zM473 750h-339v64h339v-64z" />
    <glyph glyph-name="rdotbelowmacron" unicode="&#x1e5d;" horiz-adv-x="320" 
d="M306 372c-88 -2 -157 -65 -157 -159v-213h-74v433h71v-80c36 52 96 84 160 85v-66zM154 -200h-84v84h84v-84zM330 574h-339v64h339v-64z" />
    <glyph glyph-name="recipe" unicode="&#x211e;" horiz-adv-x="606" 
d="M579 0h-84l-42 75l-71 -66l-43 46l82 77l-103 185h-147v-317h-82v694h224c144 0 240 -91 240 -186c0 -19 -1 -127 -157 -181l-2 -1l81 -143l60 56l44 -47l-71 -66zM474 508c0 58 -45 130 -172 130h-131v-260h131c132 0 172 76 172 130z" />
    <glyph glyph-name="referencemark" unicode="&#x203b;" horiz-adv-x="731" 
d="M587 28c-12 -12 -24 0 -34 10l-188 187l-187 -187c-11 -11 -22 -22 -35 -9c-12 12 0 24 10 33l188 188l-188 187c-10 11 -22 22 -9 35c12 12 24 0 34 -10l187 -187l187 186c11 11 22 22 35 9c12 -12 0 -24 -10 -33l-187 -187l187 -188c11 -10 22 -21 10 -34zM399 443
c0 -19 -15 -34 -34 -34c-18 0 -34 15 -34 34s16 34 34 34c19 0 34 -15 34 -34zM206 250c0 -19 -15 -34 -34 -34c-18 0 -34 15 -34 34s16 34 34 34c19 0 34 -15 34 -34zM399 57c0 -19 -15 -34 -34 -34c-18 0 -34 15 -34 34s16 34 34 34c19 0 34 -15 34 -34zM592 250
c0 -19 -15 -34 -34 -34c-18 0 -34 15 -34 34s16 34 34 34c19 0 34 -15 34 -34z" />
    <glyph glyph-name="registered" unicode="&#xae;" horiz-adv-x="694" 
d="M694 347c0 -192 -155 -347 -347 -347s-347 155 -347 347s155 347 347 347s347 -155 347 -347zM660 347c0 173 -140 313 -313 313s-313 -140 -313 -313s140 -313 313 -313s313 140 313 313zM528 112h-57l-120 215h-99v-215h-56v470h152c98 0 163 -61 163 -126
c0 -13 -1 -86 -107 -122l-1 -1zM457 456c0 40 -30 89 -116 89h-89v-177h89c89 0 116 52 116 88z" />
    <glyph glyph-name="Rho" unicode="&#x3a1;" horiz-adv-x="600" 
d="M547 492c0 -110 -98 -203 -218 -203h-156v-289h-84v694h234c130 0 224 -94 224 -202zM468 492c0 73 -51 146 -167 146h-130v-291h130c120 0 167 77 167 145z" />
    <glyph glyph-name="ring" unicode="&#x2da;" horiz-adv-x="625" 
d="M359 595c0 32 -27 39 -47 39c-22 0 -47 -8 -47 -39c0 -32 27 -39 47 -39c22 0 47 8 47 39zM417 595c0 -46 -45 -88 -105 -88s-105 42 -105 88s45 88 105 88s105 -42 105 -88z" />
    <glyph glyph-name="uni030A" unicode="&#x30a;" horiz-adv-x="0" 
d="M-179 595c0 32 -27 39 -47 39c-22 0 -47 -8 -47 -39c0 -32 27 -39 47 -39c22 0 47 8 47 39zM-121 595c0 -46 -45 -88 -105 -88s-105 42 -105 88s45 88 105 88s105 -42 105 -88z" />
    <glyph glyph-name="ringhalfleft" unicode="&#x2bf;" horiz-adv-x="331" 
d="M279 392c0 -3 -1 -5 -3 -6c-24 -16 -54 -30 -96 -30c-73 0 -128 65 -128 140c0 72 49 142 131 142c7 0 33 0 53 -7c9 -3 39 -19 39 -24v-1l-6 -38c-1 -2 -3 -5 -6 -5c-2 0 -3 1 -4 1c-26 18 -44 25 -76 25c-56 0 -73 -52 -73 -92c0 -52 27 -91 71 -91c31 0 60 11 85 30
c1 0 2 1 3 1c3 0 6 -3 6 -6z" />
    <glyph glyph-name="ringhalfright" unicode="&#x2be;" horiz-adv-x="331" 
d="M279 498c0 -72 -49 -142 -131 -142c-7 0 -33 0 -53 7c-9 3 -39 19 -39 24v1l6 38c1 2 3 5 6 5c2 0 3 -1 4 -1c26 -18 44 -25 76 -25c56 0 73 52 73 92c0 52 -27 91 -71 91c-31 0 -60 -11 -85 -30c-1 0 -2 -1 -3 -1c-3 0 -6 3 -6 6l-4 39c0 3 1 5 3 6c24 16 54 30 96 30
c73 0 128 -65 128 -140z" />
    <glyph glyph-name="Sacute" unicode="&#x15a;" horiz-adv-x="522" 
d="M469 191c0 -110 -88 -207 -211 -207c-45 0 -134 10 -216 70l14 79c83 -76 171 -81 201 -81c87 0 136 67 136 130c0 48 -27 99 -83 121c-7 3 -46 14 -69 20c-56 14 -100 26 -139 70s-50 87 -50 125c0 97 83 192 212 192c81 0 129 -23 173 -49l-14 -80
c-58 54 -115 63 -159 63c-88 0 -136 -61 -136 -117c0 -27 9 -48 26 -70c25 -31 55 -39 102 -51c82 -22 118 -32 159 -77c42 -47 54 -98 54 -138zM452 862l-197 -122h-89l175 122h111z" />
    <glyph glyph-name="sacute" unicode="&#x15b;" horiz-adv-x="360" 
d="M338 124c0 -57 -31 -132 -154 -132c-46 0 -101 10 -158 43l12 67c50 -36 105 -47 145 -47c13 0 85 0 85 63c0 50 -51 60 -97 69c-30 6 -140 28 -140 129s85 126 156 126c30 0 76 -2 135 -30l-12 -65c-27 15 -67 35 -132 35c-14 0 -77 0 -77 -57c0 -45 49 -56 63 -58
c82 -17 94 -20 127 -46c19 -15 47 -48 47 -97zM313 694l-139 -176h-61l124 176h76z" />
    <glyph glyph-name="Scaron" unicode="&#x160;" horiz-adv-x="522" 
d="M469 191c0 -110 -88 -207 -211 -207c-45 0 -134 10 -216 70l14 79c83 -76 171 -81 201 -81c87 0 136 67 136 130c0 48 -27 99 -83 121c-7 3 -46 14 -69 20c-56 14 -100 26 -139 70s-50 87 -50 125c0 97 83 192 212 192c81 0 129 -23 173 -49l-14 -80
c-58 54 -115 63 -159 63c-88 0 -136 -61 -136 -117c0 -27 9 -48 26 -70c25 -31 55 -39 102 -51c82 -22 118 -32 159 -77c42 -47 54 -98 54 -138zM417 864l-126 -134h-60l-126 134h59l97 -97l97 97h59z" />
    <glyph glyph-name="scaron" unicode="&#x161;" horiz-adv-x="360" 
d="M338 124c0 -57 -31 -132 -154 -132c-46 0 -101 10 -158 43l12 67c50 -36 105 -47 145 -47c13 0 85 0 85 63c0 50 -51 60 -97 69c-30 6 -140 28 -140 129s85 126 156 126c30 0 76 -2 135 -30l-12 -65c-27 15 -67 35 -132 35c-14 0 -77 0 -77 -57c0 -45 49 -56 63 -58
c82 -17 94 -20 127 -46c19 -15 47 -48 47 -97zM335 692l-125 -172h-60l-125 172h59l96 -123l96 123h59z" />
    <glyph glyph-name="Scedilla" unicode="&#x15e;" horiz-adv-x="522" 
d="M469 191c0 -110 -88 -207 -211 -207c-45 0 -134 10 -216 70l14 79c83 -76 171 -81 201 -81c87 0 136 67 136 130c0 48 -27 99 -83 121c-7 3 -46 14 -69 20c-56 14 -100 26 -139 70s-50 87 -50 125c0 97 83 192 212 192c81 0 129 -23 173 -49l-14 -80
c-58 54 -115 63 -159 63c-88 0 -136 -61 -136 -117c0 -27 9 -48 26 -70c25 -31 55 -39 102 -51c82 -22 118 -32 159 -77c42 -47 54 -98 54 -138zM307 -34l-62 -168h-68l69 168h61z" />
    <glyph glyph-name="scedilla" unicode="&#x15f;" horiz-adv-x="360" 
d="M338 124c0 -57 -31 -132 -154 -132c-46 0 -101 10 -158 43l12 67c50 -36 105 -47 145 -47c13 0 85 0 85 63c0 50 -51 60 -97 69c-30 6 -140 28 -140 129s85 126 156 126c30 0 76 -2 135 -30l-12 -65c-27 15 -67 35 -132 35c-14 0 -77 0 -77 -57c0 -45 49 -56 63 -58
c82 -17 94 -20 127 -46c19 -15 47 -48 47 -97zM226 -34l-62 -168h-68l69 168h61z" />
    <glyph glyph-name="schwa" unicode="&#x259;" horiz-adv-x="418" 
d="M391 217c0 -127 -88 -225 -192 -225c-43 0 -100 16 -135 73c-32 53 -34 117 -34 150h290c-3 112 -72 166 -136 166c-40 0 -95 -13 -143 -52c0 4 -3 37 -3 37s-3 23 -3 27c50 36 105 49 150 49c115 0 206 -101 206 -225zM312 160h-216c18 -105 88 -107 103 -107
c56 0 100 52 113 107z" />
    <glyph glyph-name="Scircumflex" unicode="&#x15c;" horiz-adv-x="522" 
d="M469 191c0 -110 -88 -207 -211 -207c-45 0 -134 10 -216 70l14 79c83 -76 171 -81 201 -81c87 0 136 67 136 130c0 48 -27 99 -83 121c-7 3 -46 14 -69 20c-56 14 -100 26 -139 70s-50 87 -50 125c0 97 83 192 212 192c81 0 129 -23 173 -49l-14 -80
c-58 54 -115 63 -159 63c-88 0 -136 -61 -136 -117c0 -27 9 -48 26 -70c25 -31 55 -39 102 -51c82 -22 118 -32 159 -77c42 -47 54 -98 54 -138zM417 730h-59l-97 97l-97 -97h-59l126 134h60z" />
    <glyph glyph-name="scircumflex" unicode="&#x15d;" horiz-adv-x="360" 
d="M338 124c0 -57 -31 -132 -154 -132c-46 0 -101 10 -158 43l12 67c50 -36 105 -47 145 -47c13 0 85 0 85 63c0 50 -51 60 -97 69c-30 6 -140 28 -140 129s85 126 156 126c30 0 76 -2 135 -30l-12 -65c-27 15 -67 35 -132 35c-14 0 -77 0 -77 -57c0 -45 49 -56 63 -58
c82 -17 94 -20 127 -46c19 -15 47 -48 47 -97zM335 520h-59l-96 123l-96 -123h-59l125 172h60z" />
    <glyph glyph-name="uni0218" unicode="&#x218;" horiz-adv-x="522" 
d="M469 191c0 -110 -88 -207 -211 -207c-45 0 -134 10 -216 70l14 79c83 -76 171 -81 201 -81c87 0 136 67 136 130c0 48 -27 99 -83 121c-7 3 -46 14 -69 20c-56 14 -100 26 -139 70s-50 87 -50 125c0 97 83 192 212 192c81 0 129 -23 173 -49l-14 -80
c-58 54 -115 63 -159 63c-88 0 -136 -61 -136 -117c0 -27 9 -48 26 -70c25 -31 55 -39 102 -51c82 -22 118 -32 159 -77c42 -47 54 -98 54 -138zM298 -129l-37 -113h-36l23 112h-22v72h72v-71z" />
    <glyph glyph-name="uni0219" unicode="&#x219;" horiz-adv-x="360" 
d="M338 124c0 -57 -31 -132 -154 -132c-46 0 -101 10 -158 43l12 67c50 -36 105 -47 145 -47c13 0 85 0 85 63c0 50 -51 60 -97 69c-30 6 -140 28 -140 129s85 126 156 126c30 0 76 -2 135 -30l-12 -65c-27 15 -67 35 -132 35c-14 0 -77 0 -77 -57c0 -45 49 -56 63 -58
c82 -17 94 -20 127 -46c19 -15 47 -48 47 -97zM217 -129l-37 -113h-36l23 112h-22v72h72v-71z" />
    <glyph glyph-name="Sdotbelow" unicode="&#x1e62;" horiz-adv-x="522" 
d="M469 191c0 -110 -88 -207 -211 -207c-45 0 -134 10 -216 70l14 79c83 -76 171 -81 201 -81c87 0 136 67 136 130c0 48 -27 99 -83 121c-7 3 -46 14 -69 20c-56 14 -100 26 -139 70s-50 87 -50 125c0 97 83 192 212 192c81 0 129 -23 173 -49l-14 -80
c-58 54 -115 63 -159 63c-88 0 -136 -61 -136 -117c0 -27 9 -48 26 -70c25 -31 55 -39 102 -51c82 -22 118 -32 159 -77c42 -47 54 -98 54 -138zM304 -200h-84v84h84v-84z" />
    <glyph glyph-name="sdotbelow" unicode="&#x1e63;" horiz-adv-x="360" 
d="M338 124c0 -57 -31 -132 -154 -132c-46 0 -101 10 -158 43l12 67c50 -36 105 -47 145 -47c13 0 85 0 85 63c0 50 -51 60 -97 69c-30 6 -140 28 -140 129s85 126 156 126c30 0 76 -2 135 -30l-12 -65c-27 15 -67 35 -132 35c-14 0 -77 0 -77 -57c0 -45 49 -56 63 -58
c82 -17 94 -20 127 -46c19 -15 47 -48 47 -97zM223 -200h-84v84h84v-84z" />
    <glyph glyph-name="section" unicode="&#xa7;" horiz-adv-x="506" 
d="M470 194c0 -54 -27 -102 -69 -133c19 -26 31 -57 31 -91c0 -98 -81 -176 -179 -176s-179 76 -179 172h76c0 -57 46 -104 103 -104c58 0 103 49 103 108c0 50 -46 84 -92 108l-95 49c-72 37 -133 99 -133 179c0 53 27 102 69 132c-19 27 -31 58 -31 92
c0 98 81 176 179 176s179 -76 179 -172h-76c0 57 -46 104 -103 104c-58 0 -103 -49 -103 -108c0 -50 46 -84 92 -108l95 -49c72 -37 133 -99 133 -179zM394 194c0 52 -45 88 -92 112l-95 49c-19 9 -37 21 -53 33c-26 -17 -42 -49 -42 -82c0 -52 45 -88 92 -112l95 -49
c19 -10 37 -21 53 -34c26 18 42 49 42 83z" />
    <glyph glyph-name="servicemark" unicode="&#x2120;" horiz-adv-x="805" 
d="M281 383c0 -66 -52 -124 -126 -124c-27 0 -81 6 -130 42l9 47c49 -45 102 -48 120 -48c52 0 82 40 82 78c0 28 -16 59 -50 72c-4 2 -28 9 -41 12c-34 9 -60 16 -84 42c-23 27 -30 52 -30 75c0 58 50 115 127 115c49 0 78 -13 104 -29l-8 -48c-35 32 -69 38 -96 38
c-52 0 -81 -37 -81 -70c0 -17 5 -29 15 -42c15 -19 33 -24 62 -31c49 -13 70 -19 95 -46c25 -28 32 -59 32 -83zM719 268h-48v369c-4 -17 -19 -61 -25 -79l-26 -79l-72 -201h-44l-79 226c-37 105 -42 132 -42 132h-1v-368h-47v417h71l88 -252l18 -54c9 -30 13 -43 15 -55
c4 19 20 68 25 84l29 84l68 193h70v-417z" />
    <glyph glyph-name="uni00AD" unicode="&#xad;" horiz-adv-x="313" 
d="M260 186h-250v58h250v-58z" />
    <glyph glyph-name="Sigma" unicode="&#x3a3;" horiz-adv-x="679" 
d="M626 0h-574l216 337l-216 293v64h574v-65h-243c-12 0 -24 1 -36 1h-191l209 -283l-179 -279h179c12 0 24 1 36 1h225v-69z" />
    <glyph glyph-name="sterling" unicode="&#xa3;" horiz-adv-x="625" 
d="M562 144c0 -84 -53 -160 -132 -160c-33 0 -67 7 -99 15c-74 19 -167 43 -201 0l-60 46c50 65 99 133 108 214c2 19 2 38 -2 56h-114v64h93c-6 14 -11 27 -15 41c-38 136 48 274 179 274c105 0 181 -97 181 -208h-76c0 69 -42 132 -105 132c-81 0 -130 -90 -106 -177
c6 -21 15 -41 23 -62h139v-64h-122c3 -21 3 -43 1 -64c-6 -54 -27 -105 -54 -152c51 -1 100 -14 150 -26c26 -7 53 -13 80 -13c37 0 56 42 56 84h76z" />
    <glyph glyph-name="Tau" unicode="&#x3a4;" horiz-adv-x="641" 
d="M606 626h-125c-12 0 -24 1 -36 1h-83v-627h-84v627h-83c-12 0 -24 -1 -36 -1h-125v65h572v-65z" />
    <glyph glyph-name="Tcaron" unicode="&#x164;" horiz-adv-x="641" 
d="M606 626h-125c-12 0 -24 1 -36 1h-83v-627h-84v627h-83c-12 0 -24 -1 -36 -1h-125v65h572v-65zM476 864l-126 -134h-60l-126 134h59l97 -97l97 97h59z" />
    <glyph glyph-name="tcaron" unicode="&#x165;" horiz-adv-x="340" 
d="M313 29c-44 -23 -90 -37 -140 -37c-66 0 -79 70 -79 127v253h-77v58h79v123h71v-123h130v-58h-130v-236c0 -25 2 -81 46 -81c31 0 60 12 84 33zM275 578l-37 -113h-36l23 112h-22v72h72v-71z" />
    <glyph glyph-name="Tcedilla" unicode="&#x162;" horiz-adv-x="641" 
d="M606 626h-125c-12 0 -24 1 -36 1h-83v-627h-84v627h-83c-12 0 -24 -1 -36 -1h-125v65h572v-65zM351 -18l-62 -168h-68l69 168h61z" />
    <glyph glyph-name="tcedilla" unicode="&#x163;" horiz-adv-x="340" 
d="M313 29c-44 -23 -90 -37 -140 -37c-66 0 -79 70 -79 127v253h-77v58h79v123h71v-123h130v-58h-130v-236c0 -25 2 -81 46 -81c31 0 60 12 84 33zM229 -18l-62 -168h-68l69 168h61z" />
    <glyph glyph-name="uni021A" unicode="&#x21a;" horiz-adv-x="641" 
d="M606 626h-125c-12 0 -24 1 -36 1h-83v-627h-84v627h-83c-12 0 -24 -1 -36 -1h-125v65h572v-65zM357 -129l-37 -113h-36l23 112h-22v72h72v-71z" />
    <glyph glyph-name="uni021B" unicode="&#x21b;" horiz-adv-x="340" 
d="M313 29c-44 -23 -90 -37 -140 -37c-66 0 -79 70 -79 127v253h-77v58h79v123h71v-123h130v-58h-130v-236c0 -25 2 -81 46 -81c31 0 60 12 84 33zM207 -129l-37 -113h-36l23 112h-22v72h72v-71z" />
    <glyph glyph-name="tdieresis" unicode="&#x1e97;" horiz-adv-x="340" 
d="M313 29c-44 -23 -90 -37 -140 -37c-66 0 -79 70 -79 127v253h-77v58h79v123h71v-123h130v-58h-130v-236c0 -25 2 -81 46 -81c31 0 60 12 84 33zM87 589h-76v75h76v-75zM251 589h-76v75h76v-75z" />
    <glyph glyph-name="Tdotbelow" unicode="&#x1e6c;" horiz-adv-x="641" 
d="M606 626h-125c-12 0 -24 1 -36 1h-83v-627h-84v627h-83c-12 0 -24 -1 -36 -1h-125v65h572v-65zM363 -200h-84v84h84v-84z" />
    <glyph glyph-name="tdotbelow" unicode="&#x1e6d;" horiz-adv-x="340" 
d="M313 29c-44 -23 -90 -37 -140 -37c-66 0 -79 70 -79 127v253h-77v58h79v123h71v-123h130v-58h-130v-236c0 -25 2 -81 46 -81c31 0 60 12 84 33zM212 -200h-84v84h84v-84z" />
    <glyph glyph-name="Theta" unicode="&#x398;" horiz-adv-x="731" 
d="M678 346c0 -207 -146 -362 -313 -362c-166 0 -313 154 -313 362c0 205 144 364 313 364s313 -159 313 -364zM597 346c0 182 -110 303 -232 303s-232 -120 -232 -303c0 -185 113 -300 232 -300s232 115 232 300zM544 308h-358v79h358v-79z" />
    <glyph glyph-name="Thorn" unicode="&#xde;" horiz-adv-x="547" 
d="M494 367c0 -99 -80 -189 -196 -189h-139v-178h-60v683h60v-127h129c143 0 206 -107 206 -189zM431 366c0 61 -53 142 -181 142h-91v-282h112c103 0 160 75 160 140z" />
    <glyph glyph-name="thorn" unicode="&#xfe;" horiz-adv-x="484" 
d="M450 216c0 -128 -80 -224 -173 -224c-48 0 -93 21 -126 53v-240h-76v889h74v-310c45 36 105 54 155 54c86 0 146 -104 146 -222zM374 216c0 87 -56 159 -126 159c-55 0 -89 -38 -97 -50v-197c0 -14 0 -29 27 -53c20 -17 41 -22 61 -22c67 0 135 64 135 163z" />
    <glyph glyph-name="threequarters" unicode="&#xbe;" horiz-adv-x="738" 
d="M338 418c0 -63 -61 -120 -143 -120c-50 0 -105 20 -139 61c3 15 3 16 8 37c32 -44 89 -61 130 -61c52 0 83 36 83 83c0 34 -19 84 -87 84h-49v36l53 4c43 9 68 45 68 78c0 32 -27 54 -67 54c-48 0 -89 -27 -105 -62c-6 9 -19 26 -24 32c20 35 68 66 130 66
c68 0 123 -40 123 -90c0 -43 -32 -81 -75 -100c54 -15 94 -55 94 -102zM678 103h-66v-103h-57v103h-177v36l171 255h63v-255h66v-36zM613 674l-376 -654h-39l376 654h39zM558 139v227c-1 -42 -83 -166 -125 -227h125z" />
    <glyph glyph-name="three.superior" unicode="&#xb3;" horiz-adv-x="338" 
d="M310 418c0 -63 -61 -120 -143 -120c-50 0 -105 20 -139 61c3 15 3 16 8 37c32 -44 89 -61 130 -61c51 0 83 36 83 83c0 34 -19 84 -87 84h-49v36l53 4c43 9 68 45 68 78c0 32 -27 54 -67 54c-48 0 -89 -27 -105 -62l-25 32c21 35 69 66 131 66c67 0 123 -40 123 -90
c0 -43 -32 -81 -75 -100c54 -15 94 -55 94 -102z" />
    <glyph glyph-name="uni2040" unicode="&#x2040;" horiz-adv-x="560" 
d="M479 557h-60c-4 56 -86 76 -139 76c-51 0 -135 -19 -139 -76h-60c0 88 116 127 196 127c66 0 202 -28 202 -127z" />
    <glyph glyph-name="tilde" unicode="&#x2dc;" 
d="M392 665c-2 -79 -51 -117 -92 -117c-27 0 -46 14 -73 33c-20 15 -38 23 -53 23c-28 0 -34 -32 -34 -56h-61c2 79 51 117 92 117c27 0 46 -14 73 -33c20 -15 38 -23 53 -23c28 0 34 32 34 56h61z" />
    <glyph glyph-name="uni0330" unicode="&#x330;" horiz-adv-x="0" 
d="M-69 -99c-2 -79 -51 -117 -92 -117c-27 0 -46 14 -73 33c-20 15 -38 23 -53 23c-28 0 -34 -32 -34 -56h-61c2 79 51 117 92 117c27 0 46 -14 73 -33c20 -15 38 -23 53 -23c28 0 34 32 34 56h61z" />
    <glyph glyph-name="uni0303" unicode="&#x303;" horiz-adv-x="0" 
d="M-69 665c-2 -79 -51 -117 -92 -117c-27 0 -46 14 -73 33c-20 15 -38 23 -53 23c-28 0 -34 -32 -34 -56h-61c2 79 51 117 92 117c27 0 46 -14 73 -33c20 -15 38 -23 53 -23c28 0 34 32 34 56h61z" />
    <glyph glyph-name="Tlinebelow" unicode="&#x1e6e;" horiz-adv-x="641" 
d="M606 626h-125c-12 0 -24 1 -36 1h-83v-627h-84v627h-83c-12 0 -24 -1 -36 -1h-125v65h572v-65zM490 -190h-339v64h339v-64z" />
    <glyph glyph-name="tlinebelow" unicode="&#x1e6f;" horiz-adv-x="340" 
d="M313 29c-44 -23 -90 -37 -140 -37c-66 0 -79 70 -79 127v253h-77v58h79v123h71v-123h130v-58h-130v-236c0 -25 2 -81 46 -81c31 0 60 12 84 33zM340 -190h-339v64h339v-64z" />
    <glyph glyph-name="trademark" unicode="&#x2122;" horiz-adv-x="876" 
d="M364 655h-75c-8 0 -15 1 -22 1h-50v-376h-50v376h-50c-7 0 -14 -1 -22 -1h-75v39h344v-39zM801 280h-47v369h-1c-4 -18 -19 -62 -25 -80l-26 -79l-71 -201h-45l-79 227c-37 105 -42 132 -42 132h-1v-368h-46v416h70l89 -252l17 -53c10 -31 13 -43 15 -55h1
c3 19 19 67 24 83l29 85l68 192h70v-416z" />
    <glyph glyph-name="two.superior" unicode="&#xb2;" horiz-adv-x="332" 
d="M304 307h-270v39l124 108c39 32 89 75 89 130c0 46 -35 88 -97 88c-56 0 -78 -35 -94 -89l-28 32c20 58 61 95 132 95c91 0 144 -59 144 -125c0 -42 -27 -71 -47 -91c-21 -21 -51 -42 -71 -60l-102 -86v-1h72c8 0 17 1 25 1h123v-41z" />
    <glyph glyph-name="Uacute" unicode="&#xda;" horiz-adv-x="644" 
d="M555 233c0 -144 -108 -249 -232 -249s-235 105 -235 249v461h84v-463c0 -129 76 -191 152 -191c74 0 155 59 155 192v462h76v-461zM513 862l-197 -122h-89l175 122h111z" />
    <glyph glyph-name="uacute" unicode="&#xfa;" horiz-adv-x="484" 
d="M409 0h-74v50c-54 -50 -131 -58 -165 -58c-69 0 -96 38 -96 116v322h76v-317c0 -41 6 -63 72 -63c57 0 111 30 111 104v276h76v-430zM375 694l-139 -176h-61l124 176h76z" />
    <glyph glyph-name="Ubreve" unicode="&#x16c;" horiz-adv-x="644" 
d="M555 233c0 -144 -108 -249 -232 -249s-235 105 -235 249v461h84v-463c0 -129 76 -191 152 -191c74 0 155 59 155 192v462h76v-461zM483 933c-3 -117 -75 -193 -161 -193c-82 0 -157 73 -160 193h61c2 -78 46 -127 100 -127c50 0 97 47 99 127h61z" />
    <glyph glyph-name="ubreve" unicode="&#x16d;" horiz-adv-x="484" 
d="M409 0h-74v50c-54 -50 -131 -58 -165 -58c-69 0 -96 38 -96 116v322h76v-317c0 -41 6 -63 72 -63c57 0 111 30 111 104v276h76v-430zM403 703c-3 -117 -75 -193 -161 -193c-82 0 -157 73 -160 193h61c2 -78 46 -127 100 -127c50 0 97 47 99 127h61z" />
    <glyph glyph-name="Ucaron" unicode="&#x1d3;" horiz-adv-x="644" 
d="M555 233c0 -144 -108 -249 -232 -249s-235 105 -235 249v461h84v-463c0 -129 76 -191 152 -191c74 0 155 59 155 192v462h76v-461zM478 864l-126 -134h-60l-126 134h59l97 -97l97 97h59z" />
    <glyph glyph-name="ucaron" unicode="&#x1d4;" horiz-adv-x="484" 
d="M409 0h-74v50c-54 -50 -131 -58 -165 -58c-69 0 -96 38 -96 116v322h76v-317c0 -41 6 -63 72 -63c57 0 111 30 111 104v276h76v-430zM397 692l-125 -172h-60l-125 172h59l96 -123l96 123h59z" />
    <glyph glyph-name="Ucircumflex" unicode="&#xdb;" horiz-adv-x="644" 
d="M555 233c0 -144 -108 -249 -232 -249s-235 105 -235 249v461h84v-463c0 -129 76 -191 152 -191c74 0 155 59 155 192v462h76v-461zM478 730h-59l-97 97l-97 -97h-59l126 134h60z" />
    <glyph glyph-name="ucircumflex" unicode="&#xfb;" horiz-adv-x="484" 
d="M409 0h-74v50c-54 -50 -131 -58 -165 -58c-69 0 -96 38 -96 116v322h76v-317c0 -41 6 -63 72 -63c57 0 111 30 111 104v276h76v-430zM397 520h-59l-96 123l-96 -123h-59l125 172h60z" />
    <glyph glyph-name="Udblgrave" unicode="&#x214;" horiz-adv-x="644" 
d="M555 233c0 -144 -108 -249 -232 -249s-235 105 -235 249v461h84v-463c0 -129 76 -191 152 -191c74 0 155 59 155 192v462h76v-461zM458 740h-61l-74 176h76zM301 740h-61l-74 176h76z" />
    <glyph glyph-name="udblgrave" unicode="&#x215;" horiz-adv-x="484" 
d="M409 0h-74v50c-54 -50 -131 -58 -165 -58c-69 0 -96 38 -96 116v322h76v-317c0 -41 6 -63 72 -63c57 0 111 30 111 104v276h76v-430zM378 518h-61l-74 176h76zM221 518h-61l-74 176h76z" />
    <glyph glyph-name="Udieresis" unicode="&#xdc;" horiz-adv-x="644" 
d="M555 233c0 -144 -108 -249 -232 -249s-235 105 -235 249v461h84v-463c0 -129 76 -191 152 -191c74 0 155 59 155 192v462h76v-461zM278 730h-76v75h76v-75zM442 730h-76v75h76v-75z" />
    <glyph glyph-name="udieresis" unicode="&#xfc;" horiz-adv-x="484" 
d="M409 0h-74v50c-54 -50 -131 -58 -165 -58c-69 0 -96 38 -96 116v322h76v-317c0 -41 6 -63 72 -63c57 0 111 30 111 104v276h76v-430zM210 569h-76v75h76v-75zM350 569h-76v75h76v-75z" />
    <glyph glyph-name="Udieresisacute" unicode="&#x1d7;" horiz-adv-x="644" 
d="M555 233c0 -144 -108 -249 -232 -249s-235 105 -235 249v461h84v-463c0 -129 76 -191 152 -191c74 0 155 59 155 192v462h76v-461zM278 730h-76v75h76v-75zM442 730h-76v75h76v-75zM513 973l-197 -122h-89l175 122h111z" />
    <glyph glyph-name="udieresisacute" unicode="&#x1d8;" horiz-adv-x="484" 
d="M409 0h-74v50c-54 -50 -131 -58 -165 -58c-69 0 -96 38 -96 116v322h76v-317c0 -41 6 -63 72 -63c57 0 111 30 111 104v276h76v-430zM210 569h-76v75h76v-75zM350 569h-76v75h76v-75zM433 823l-197 -122h-89l175 122h111z" />
    <glyph glyph-name="Udieresiscaron" unicode="&#x1d9;" horiz-adv-x="644" 
d="M555 233c0 -144 -108 -249 -232 -249s-235 105 -235 249v461h84v-463c0 -129 76 -191 152 -191c74 0 155 59 155 192v462h76v-461zM278 730h-76v75h76v-75zM442 730h-76v75h76v-75zM478 975l-126 -134h-60l-126 134h59l97 -97l97 97h59z" />
    <glyph glyph-name="udieresiscaron" unicode="&#x1da;" horiz-adv-x="484" 
d="M409 0h-74v50c-54 -50 -131 -58 -165 -58c-69 0 -96 38 -96 116v322h76v-317c0 -41 6 -63 72 -63c57 0 111 30 111 104v276h76v-430zM210 569h-76v75h76v-75zM350 569h-76v75h76v-75zM398 825l-126 -134h-60l-126 134h59l97 -97l97 97h59z" />
    <glyph glyph-name="Udieresisgrave" unicode="&#x1db;" horiz-adv-x="644" 
d="M555 233c0 -144 -108 -249 -232 -249s-235 105 -235 249v461h84v-463c0 -129 76 -191 152 -191c74 0 155 59 155 192v462h76v-461zM278 730h-76v75h76v-75zM442 730h-76v75h76v-75zM417 851h-89l-197 122h111z" />
    <glyph glyph-name="udieresisgrave" unicode="&#x1dc;" horiz-adv-x="484" 
d="M409 0h-74v50c-54 -50 -131 -58 -165 -58c-69 0 -96 38 -96 116v322h76v-317c0 -41 6 -63 72 -63c57 0 111 30 111 104v276h76v-430zM210 569h-76v75h76v-75zM350 569h-76v75h76v-75zM337 701h-89l-197 122h111z" />
    <glyph glyph-name="Udotbelow" unicode="&#x1ee4;" horiz-adv-x="644" 
d="M555 233c0 -144 -108 -249 -232 -249s-235 105 -235 249v461h84v-463c0 -129 76 -191 152 -191c74 0 155 59 155 192v462h76v-461zM364 -200h-84v84h84v-84z" />
    <glyph glyph-name="udotbelow" unicode="&#x1ee5;" horiz-adv-x="484" 
d="M409 0h-74v50c-54 -50 -131 -58 -165 -58c-69 0 -96 38 -96 116v322h76v-317c0 -41 6 -63 72 -63c57 0 111 30 111 104v276h76v-430zM284 -200h-84v84h84v-84z" />
    <glyph glyph-name="Ugrave" unicode="&#xd9;" horiz-adv-x="644" 
d="M555 233c0 -144 -108 -249 -232 -249s-235 105 -235 249v461h84v-463c0 -129 76 -191 152 -191c74 0 155 59 155 192v462h76v-461zM417 740h-89l-197 122h111z" />
    <glyph glyph-name="ugrave" unicode="&#xf9;" horiz-adv-x="484" 
d="M409 0h-74v50c-54 -50 -131 -58 -165 -58c-69 0 -96 38 -96 116v322h76v-317c0 -41 6 -63 72 -63c57 0 111 30 111 104v276h76v-430zM309 518h-61l-139 176h76z" />
    <glyph glyph-name="Uhookabove" unicode="&#x1ee6;" horiz-adv-x="644" 
d="M555 233c0 -144 -108 -249 -232 -249s-235 105 -235 249v461h84v-463c0 -129 76 -191 152 -191c74 0 155 59 155 192v462h76v-461zM412 869c0 -19 -9 -36 -25 -47l-4 -2c-38 -25 -58 -41 -58 -69v-20l-1 -1h-17v1v20c0 37 22 72 56 91c10 6 16 16 16 27
c0 14 -5 27 -15 34c-12 9 -28 11 -48 11c-30 0 -58 -14 -75 -39h-1l-8 23v1c20 26 51 42 84 42c28 0 52 -5 71 -19c16 -12 25 -32 25 -53z" />
    <glyph glyph-name="uhookabove" unicode="&#x1ee7;" horiz-adv-x="484" 
d="M409 0h-74v50c-54 -50 -131 -58 -165 -58c-69 0 -96 38 -96 116v322h76v-317c0 -41 6 -63 72 -63c57 0 111 30 111 104v276h76v-430zM332 640c0 -19 -9 -36 -25 -47l-4 -2c-38 -25 -58 -41 -58 -69v-20l-1 -1h-17v1v20c0 37 22 72 56 91c10 6 16 16 16 27
c0 14 -5 27 -15 34c-12 9 -28 11 -48 11c-30 0 -58 -14 -75 -39h-1l-8 23v1c20 26 51 42 84 42c28 0 52 -5 71 -19c16 -12 25 -32 25 -53z" />
    <glyph glyph-name="Uhorn" unicode="&#x1af;" horiz-adv-x="647" 
d="M657 672l-101 -73v-366c0 -144 -108 -249 -232 -249s-235 105 -235 249v461h84v-463c0 -129 76 -191 152 -191c74 0 155 59 155 192v462h76v-54l46 32h-24v77h79v-77z" />
    <glyph glyph-name="uhorn" unicode="&#x1b0;" horiz-adv-x="483" 
d="M507 432l-98 -78v-354h-74v50c-54 -50 -131 -58 -165 -58c-69 0 -96 38 -96 116v322h76v-317c0 -41 6 -63 72 -63c57 0 111 30 111 104v276h76v-38l43 39h-24v79h79v-78z" />
    <glyph glyph-name="Uhornacute" unicode="&#x1ee8;" horiz-adv-x="647" 
d="M657 672l-101 -73v-366c0 -144 -108 -249 -232 -249s-235 105 -235 249v461h84v-463c0 -129 76 -191 152 -191c74 0 155 59 155 192v462h76v-54l46 32h-24v77h79v-77zM488 862l-197 -122h-89l175 122h111z" />
    <glyph glyph-name="uhornacute" unicode="&#x1ee9;" horiz-adv-x="483" 
d="M507 432l-98 -78v-354h-74v50c-54 -50 -131 -58 -165 -58c-69 0 -96 38 -96 116v322h76v-317c0 -41 6 -63 72 -63c57 0 111 30 111 104v276h76v-38l43 39h-24v79h79v-78zM349 694l-139 -176h-61l124 176h76z" />
    <glyph glyph-name="Uhorndotbelow" unicode="&#x1ef0;" horiz-adv-x="647" 
d="M657 672l-101 -73v-366c0 -144 -108 -249 -232 -249s-235 105 -235 249v461h84v-463c0 -129 76 -191 152 -191c74 0 155 59 155 192v462h76v-54l46 32h-24v77h79v-77zM366 -200h-84v84h84v-84z" />
    <glyph glyph-name="uhorndotbelow" unicode="&#x1ef1;" horiz-adv-x="483" 
d="M507 432l-98 -78v-354h-74v50c-54 -50 -131 -58 -165 -58c-69 0 -96 38 -96 116v322h76v-317c0 -41 6 -63 72 -63c57 0 111 30 111 104v276h76v-38l43 39h-24v79h79v-78zM284 -200h-84v84h84v-84z" />
    <glyph glyph-name="Uhorngrave" unicode="&#x1eea;" horiz-adv-x="647" 
d="M657 672l-101 -73v-366c0 -144 -108 -249 -232 -249s-235 105 -235 249v461h84v-463c0 -129 76 -191 152 -191c74 0 155 59 155 192v462h76v-54l46 32h-24v77h79v-77zM418 740h-89l-197 122h111z" />
    <glyph glyph-name="uhorngrave" unicode="&#x1eeb;" horiz-adv-x="483" 
d="M507 432l-98 -78v-354h-74v50c-54 -50 -131 -58 -165 -58c-69 0 -96 38 -96 116v322h76v-317c0 -41 6 -63 72 -63c57 0 111 30 111 104v276h76v-38l43 39h-24v79h79v-78zM309 518h-61l-139 176h76z" />
    <glyph glyph-name="Uhornhookabove" unicode="&#x1eec;" horiz-adv-x="647" 
d="M657 672l-101 -73v-366c0 -144 -108 -249 -232 -249s-235 105 -235 249v461h84v-463c0 -129 76 -191 152 -191c74 0 155 59 155 192v462h76v-54l46 32h-24v77h79v-77zM413 869c0 -19 -9 -36 -25 -47l-4 -2c-38 -25 -58 -41 -58 -69v-20l-1 -1h-17v1v20c0 37 22 72 56 91
c10 6 16 16 16 27c0 14 -5 27 -15 34c-12 9 -28 11 -48 11c-30 0 -58 -14 -75 -39h-1l-8 23v1c20 26 51 42 84 42c28 0 52 -5 71 -19c16 -12 25 -32 25 -53z" />
    <glyph glyph-name="uhornhookabove" unicode="&#x1eed;" horiz-adv-x="483" 
d="M507 432l-98 -78v-354h-74v50c-54 -50 -131 -58 -165 -58c-69 0 -96 38 -96 116v322h76v-317c0 -41 6 -63 72 -63c57 0 111 30 111 104v276h76v-38l43 39h-24v79h79v-78zM332 640c0 -19 -9 -36 -25 -47l-4 -2c-38 -25 -58 -41 -58 -69v-20l-1 -1h-17v1v20
c0 37 22 72 56 91c10 6 16 16 16 27c0 14 -5 27 -15 34c-12 9 -28 11 -48 11c-30 0 -58 -14 -75 -39h-1l-8 23v1c20 26 51 42 84 42c28 0 52 -5 71 -19c16 -12 25 -32 25 -53z" />
    <glyph glyph-name="Uhorntilde" unicode="&#x1eee;" horiz-adv-x="647" 
d="M657 672l-101 -73v-366c0 -144 -108 -249 -232 -249s-235 105 -235 249v461h84v-463c0 -129 76 -191 152 -191c74 0 155 59 155 192v462h76v-54l46 32h-24v77h79v-77zM480 847c-2 -79 -51 -117 -92 -117c-27 0 -46 14 -73 33c-20 15 -38 23 -53 23c-28 0 -34 -32 -34 -56
h-61c2 79 51 117 92 117c27 0 46 -14 73 -33c20 -15 38 -23 53 -23c28 0 34 32 34 56h61z" />
    <glyph glyph-name="uhorntilde" unicode="&#x1eef;" horiz-adv-x="483" 
d="M507 432l-98 -78v-354h-74v50c-54 -50 -131 -58 -165 -58c-69 0 -96 38 -96 116v322h76v-317c0 -41 6 -63 72 -63c57 0 111 30 111 104v276h76v-38l43 39h-24v79h79v-78zM399 665c-2 -79 -51 -117 -92 -117c-27 0 -46 14 -73 33c-20 15 -38 23 -53 23
c-28 0 -34 -32 -34 -56h-61c2 79 51 117 92 117c27 0 46 -14 73 -33c20 -15 38 -23 53 -23c28 0 34 32 34 56h61z" />
    <glyph glyph-name="Uhungarumlaut" unicode="&#x170;" horiz-adv-x="644" 
d="M555 233c0 -144 -108 -249 -232 -249s-235 105 -235 249v461h84v-463c0 -129 76 -191 152 -191c74 0 155 59 155 192v462h76v-461zM321 916l-74 -176h-61l59 176h76zM478 916l-74 -176h-61l59 176h76z" />
    <glyph glyph-name="uhungarumlaut" unicode="&#x171;" horiz-adv-x="484" 
d="M409 0h-74v50c-54 -50 -131 -58 -165 -58c-69 0 -96 38 -96 116v322h76v-317c0 -41 6 -63 72 -63c57 0 111 30 111 104v276h76v-430zM241 694l-74 -176h-61l59 176h76zM398 694l-74 -176h-61l59 176h76z" />
    <glyph glyph-name="Umacron" unicode="&#x16a;" horiz-adv-x="644" 
d="M555 233c0 -144 -108 -249 -232 -249s-235 105 -235 249v461h84v-463c0 -129 76 -191 152 -191c74 0 155 59 155 192v462h76v-461zM492 750h-339v64h339v-64z" />
    <glyph glyph-name="umacron" unicode="&#x16b;" horiz-adv-x="484" 
d="M409 0h-74v50c-54 -50 -131 -58 -165 -58c-69 0 -96 38 -96 116v322h76v-317c0 -41 6 -63 72 -63c57 0 111 30 111 104v276h76v-430zM412 574h-339v64h339v-64z" />
    <glyph glyph-name="uni203F" unicode="&#x203f;" horiz-adv-x="560" 
d="M479 -68c0 -88 -116 -127 -196 -127c-66 0 -202 28 -202 127h60c4 -56 86 -76 139 -76c51 0 135 19 139 76h60z" />
    <glyph glyph-name="uni2054" unicode="&#x2054;" horiz-adv-x="560" 
d="M479 -195h-60c-4 56 -86 76 -139 76c-51 0 -135 -19 -139 -76h-60c0 88 116 127 196 127c66 0 202 -28 202 -127z" />
    <glyph glyph-name="uni2010" unicode="&#x2010;" horiz-adv-x="313" 
d="M282 186h-250v58h250v-58z" />
    <glyph glyph-name="uni2011" unicode="&#x2011;" horiz-adv-x="313" 
d="M282 186h-250v58h250v-58z" />
    <glyph glyph-name="uni2423" unicode="&#x2423;" 
d="M431 -97c0 -12 -9 -21 -21 -21h-350c-11 0 -21 9 -21 21v316c0 28 42 28 42 0v-295h308v295c0 28 42 28 42 0v-316z" />
    <glyph glyph-name="Uogonek" unicode="&#x172;" horiz-adv-x="644" 
d="M555 233c0 -122 -77 -216 -176 -242c-40 -25 -73 -56 -73 -95c1 -30 25 -36 53 -38c22 -1 45 5 67 14l14 -59c-40 -19 -65 -25 -98 -25c-67 0 -98 42 -99 85c-2 43 25 83 64 112c-118 8 -219 110 -219 248v461h84v-463c0 -129 76 -191 152 -191c74 0 155 59 155 192v462
h76v-461z" />
    <glyph glyph-name="uogonek" unicode="&#x173;" horiz-adv-x="484" 
d="M456 -187c-40 -19 -65 -25 -98 -25c-67 0 -98 42 -99 85c-3 51 37 99 87 127h-11v50c-54 -50 -131 -58 -165 -58c-69 0 -96 38 -96 116v322h76v-317c0 -41 6 -63 72 -63c57 0 111 30 111 104v276h76v-430c-46 -26 -88 -60 -87 -104c1 -30 25 -36 53 -38c22 -1 45 5 67 14
z" />
    <glyph glyph-name="Upsilon" unicode="&#x3a5;" horiz-adv-x="731" 
d="M678 555h-76c-2 57 -34 92 -76 92c-86 0 -119 -84 -119 -250v-397h-84v397c0 163 -32 250 -119 250c-42 0 -74 -36 -76 -92h-76c3 101 79 155 151 155c103 0 145 -93 162 -206h1c15 103 53 206 161 206c72 0 148 -54 151 -155z" />
    <glyph glyph-name="Uring" unicode="&#x16e;" horiz-adv-x="644" 
d="M555 233c0 -144 -108 -249 -232 -249s-235 105 -235 249v461h84v-463c0 -129 76 -191 152 -191c74 0 155 59 155 192v462h76v-461zM369 782c0 32 -27 39 -47 39c-22 0 -47 -8 -47 -39c0 -32 27 -39 47 -39c22 0 47 8 47 39zM427 782c0 -46 -45 -88 -105 -88
s-105 42 -105 88s45 88 105 88s105 -42 105 -88z" />
    <glyph glyph-name="uring" unicode="&#x16f;" horiz-adv-x="484" 
d="M409 0h-74v50c-54 -50 -131 -58 -165 -58c-69 0 -96 38 -96 116v322h76v-317c0 -41 6 -63 72 -63c57 0 111 30 111 104v276h76v-430zM289 595c0 32 -27 39 -47 39c-22 0 -47 -8 -47 -39c0 -32 27 -39 47 -39c22 0 47 8 47 39zM347 595c0 -46 -45 -88 -105 -88
s-105 42 -105 88s45 88 105 88s105 -42 105 -88z" />
    <glyph glyph-name="Utilde" unicode="&#x168;" horiz-adv-x="644" 
d="M555 233c0 -144 -108 -249 -232 -249s-235 105 -235 249v461h84v-463c0 -129 76 -191 152 -191c74 0 155 59 155 192v462h76v-461zM479 847c-2 -79 -51 -117 -92 -117c-27 0 -46 14 -73 33c-20 15 -38 23 -53 23c-28 0 -34 -32 -34 -56h-61c2 79 51 117 92 117
c27 0 46 -14 73 -33c20 -15 38 -23 53 -23c28 0 34 32 34 56h61z" />
    <glyph glyph-name="utilde" unicode="&#x169;" horiz-adv-x="484" 
d="M409 0h-74v50c-54 -50 -131 -58 -165 -58c-69 0 -96 38 -96 116v322h76v-317c0 -41 6 -63 72 -63c57 0 111 30 111 104v276h76v-430zM399 665c-2 -79 -51 -117 -92 -117c-27 0 -46 14 -73 33c-20 15 -38 23 -53 23c-28 0 -34 -32 -34 -56h-61c2 79 51 117 92 117
c27 0 46 -14 73 -33c20 -15 38 -23 53 -23c28 0 34 32 34 56h61z" />
    <glyph glyph-name="Wacute" unicode="&#x1e82;" horiz-adv-x="886" 
d="M872 694l-190 -694h-87l-106 400c-39 146 -48 209 -48 213h-1c-2 -25 -8 -53 -35 -165l-40 -159l-79 -289h-83l-190 694h86l77 -285l43 -173c28 -117 32 -150 32 -156h1c2 20 3 38 33 164l40 159l79 291h84l83 -307l39 -158c16 -64 29 -121 31 -148h1c2 26 15 78 33 152
l37 150l84 311h76zM634 862l-197 -122h-89l175 122h111z" />
    <glyph glyph-name="wacute" unicode="&#x1e83;" horiz-adv-x="641" 
d="M627 430l-130 -430h-88l-66 233c-10 35 -27 106 -29 139c-3 -67 -43 -200 -95 -372h-76l-130 430h78l45 -153c6 -22 47 -160 51 -219h1c2 40 21 114 46 201l50 171h69l51 -175c28 -95 45 -167 47 -197h1c4 49 35 154 46 192l53 180h76zM453 694l-139 -176h-61l124 176h76
z" />
    <glyph glyph-name="Wcircumflex" unicode="&#x174;" horiz-adv-x="886" 
d="M872 694l-190 -694h-87l-106 400c-39 146 -48 209 -48 213h-1c-2 -25 -8 -53 -35 -165l-40 -159l-79 -289h-83l-190 694h86l77 -285l43 -173c28 -117 32 -150 32 -156h1c2 20 3 38 33 164l40 159l79 291h84l83 -307l39 -158c16 -64 29 -121 31 -148h1c2 26 15 78 33 152
l37 150l84 311h76zM599 730h-59l-97 97l-97 -97h-59l126 134h60z" />
    <glyph glyph-name="wcircumflex" unicode="&#x175;" horiz-adv-x="641" 
d="M627 430l-130 -430h-88l-66 233c-10 35 -27 106 -29 139c-3 -67 -43 -200 -95 -372h-76l-130 430h78l45 -153c6 -22 47 -160 51 -219h1c2 40 21 114 46 201l50 171h69l51 -175c28 -95 45 -167 47 -197h1c4 49 35 154 46 192l53 180h76zM475 520h-59l-96 123l-96 -123h-59
l125 172h60z" />
    <glyph glyph-name="Wdieresis" unicode="&#x1e84;" horiz-adv-x="886" 
d="M872 694l-190 -694h-87l-106 400c-39 146 -48 209 -48 213h-1c-2 -25 -8 -53 -35 -165l-40 -159l-79 -289h-83l-190 694h86l77 -285l43 -173c28 -117 32 -150 32 -156h1c2 20 3 38 33 164l40 159l79 291h84l83 -307l39 -158c16 -64 29 -121 31 -148h1c2 26 15 78 33 152
l37 150l84 311h76zM399 730h-76v75h76v-75zM563 730h-76v75h76v-75z" />
    <glyph glyph-name="wdieresis" unicode="&#x1e85;" horiz-adv-x="641" 
d="M627 430l-130 -430h-88l-66 233c-10 35 -27 106 -29 139c-3 -67 -43 -200 -95 -372h-76l-130 430h78l45 -153c6 -22 47 -160 51 -219h1c2 40 21 114 46 201l50 171h69l51 -175c28 -95 45 -167 47 -197h1c4 49 35 154 46 192l53 180h76zM288 569h-76v75h76v-75zM428 569
h-76v75h76v-75z" />
    <glyph glyph-name="Wgrave" unicode="&#x1e80;" horiz-adv-x="886" 
d="M872 694l-190 -694h-87l-106 400c-39 146 -48 209 -48 213h-1c-2 -25 -8 -53 -35 -165l-40 -159l-79 -289h-83l-190 694h86l77 -285l43 -173c28 -117 32 -150 32 -156h1c2 20 3 38 33 164l40 159l79 291h84l83 -307l39 -158c16 -64 29 -121 31 -148h1c2 26 15 78 33 152
l37 150l84 311h76zM538 740h-89l-197 122h111z" />
    <glyph glyph-name="wgrave" unicode="&#x1e81;" horiz-adv-x="641" 
d="M627 430l-130 -430h-88l-66 233c-10 35 -27 106 -29 139c-3 -67 -43 -200 -95 -372h-76l-130 430h78l45 -153c6 -22 47 -160 51 -219h1c2 40 21 114 46 201l50 171h69l51 -175c28 -95 45 -167 47 -197h1c4 49 35 154 46 192l53 180h76zM387 518h-61l-139 176h76z" />
    <glyph glyph-name="won" unicode="&#x20a9;" horiz-adv-x="886" 
d="M872 250h-121l-69 -250h-87l-66 250h-175l-68 -250h-83l-69 250h-121v64h104l-18 66h-86v64h68l-68 250h86l67 -250h170l68 250h84l68 -250h173l67 250h76l-68 -250h68v-64h-86l-18 -66h104v-64zM512 314l-18 66h-106l-16 -66h140zM319 380h-135l16 -66h102zM287 250h-71
l3 -14c28 -117 32 -150 32 -156h1c2 20 3 38 33 164zM711 380h-138l17 -66h105zM679 250h-74l5 -21c16 -64 29 -121 31 -148h1c2 26 15 78 33 152zM477 444c-29 115 -36 165 -36 169h-1c-2 -25 -8 -53 -35 -165l-1 -4h73z" />
    <glyph glyph-name="Xi" unicode="&#x39e;" horiz-adv-x="627" 
d="M582 620h-117l-152 1l-152 -1h-117v71h538v-71zM587 0h-548v71h119l155 -1l155 1h119v-71zM522 324h-418v70h418v-70z" />
    <glyph glyph-name="Yacute" unicode="&#xdd;" horiz-adv-x="625" 
d="M621 694l-268 -417v-277h-82v278l-268 416h98l168 -263l49 -79c16 29 50 81 62 100l155 242h86zM503 862l-197 -122h-89l175 122h111z" />
    <glyph glyph-name="yacute" unicode="&#xfd;" horiz-adv-x="432" 
d="M418 430l-190 -510c-46 -123 -96 -123 -121 -123c-18 0 -43 3 -68 8l-6 66c36 -11 68 -12 72 -12c16 0 31 0 53 56c5 10 21 55 32 85l-177 430h81l47 -117c35 -86 79 -206 82 -255h1c2 50 31 143 116 372h78zM349 694l-139 -176h-61l124 176h76z" />
    <glyph glyph-name="Ycircumflex" unicode="&#x176;" horiz-adv-x="625" 
d="M621 694l-268 -417v-277h-82v278l-268 416h98l168 -263l49 -79c16 29 50 81 62 100l155 242h86zM468 730h-59l-97 97l-97 -97h-59l126 134h60z" />
    <glyph glyph-name="ycircumflex" unicode="&#x177;" horiz-adv-x="432" 
d="M418 430l-190 -510c-46 -123 -96 -123 -121 -123c-18 0 -43 3 -68 8l-6 66c36 -11 68 -12 72 -12c16 0 31 0 53 56c5 10 21 55 32 85l-177 430h81l47 -117c35 -86 79 -206 82 -255h1c2 50 31 143 116 372h78zM371 520h-59l-96 123l-96 -123h-59l125 172h60z" />
    <glyph glyph-name="Ydieresis" unicode="&#x178;" horiz-adv-x="625" 
d="M621 694l-268 -417v-277h-82v278l-268 416h98l168 -263l49 -79c16 29 50 81 62 100l155 242h86zM268 730h-76v75h76v-75zM432 730h-76v75h76v-75z" />
    <glyph glyph-name="ydieresis" unicode="&#xff;" horiz-adv-x="432" 
d="M418 430l-190 -510c-46 -123 -96 -123 -121 -123c-18 0 -43 3 -68 8l-6 66c36 -11 68 -12 72 -12c16 0 31 0 53 56c5 10 21 55 32 85l-177 430h81l47 -117c35 -86 79 -206 82 -255h1c2 50 31 143 116 372h78zM184 569h-76v75h76v-75zM324 569h-76v75h76v-75z" />
    <glyph glyph-name="Ydotbelow" unicode="&#x1ef4;" horiz-adv-x="625" 
d="M621 694l-268 -417v-277h-82v278l-268 416h98l168 -263l49 -79c16 29 50 81 62 100l155 242h86zM355 -200h-84v84h84v-84z" />
    <glyph glyph-name="ydotbelow" unicode="&#x1ef5;" horiz-adv-x="432" 
d="M418 430l-190 -510c-46 -123 -96 -123 -121 -123c-18 0 -43 3 -68 8l-6 66c36 -11 68 -12 72 -12c16 0 31 0 53 56c5 10 21 55 32 85l-177 430h81l47 -117c35 -86 79 -206 82 -255h1c2 50 31 143 116 372h78zM366 -200h-84v84h84v-84z" />
    <glyph glyph-name="yen" unicode="&#xa5;" horiz-adv-x="625" 
d="M621 694l-217 -337h116v-64h-157l-10 -16v-59h167v-64h-167v-154h-82v154h-167v64h167v60l-10 15h-157v64h116l-217 337h98l168 -263l46 -74h6c17 30 48 77 59 95l155 242h86z" />
    <glyph glyph-name="Ygrave" unicode="&#x1ef2;" horiz-adv-x="625" 
d="M621 694l-268 -417v-277h-82v278l-268 416h98l168 -263l49 -79c16 29 50 81 62 100l155 242h86zM407 740h-89l-197 122h111z" />
    <glyph glyph-name="ygrave" unicode="&#x1ef3;" horiz-adv-x="432" 
d="M418 430l-190 -510c-46 -123 -96 -123 -121 -123c-18 0 -43 3 -68 8l-6 66c36 -11 68 -12 72 -12c16 0 31 0 53 56c5 10 21 55 32 85l-177 430h81l47 -117c35 -86 79 -206 82 -255h1c2 50 31 143 116 372h78zM283 518h-61l-139 176h76z" />
    <glyph glyph-name="Yhookabove" unicode="&#x1ef6;" horiz-adv-x="625" 
d="M621 694l-268 -417v-277h-82v278l-268 416h98l168 -263l49 -79c16 29 50 81 62 100l155 242h86zM402 869c0 -19 -9 -36 -25 -47l-4 -2c-38 -25 -58 -41 -58 -69v-20l-1 -1h-17v1v20c0 37 22 72 56 91c10 6 16 16 16 27c0 14 -5 27 -15 34c-12 9 -28 11 -48 11
c-30 0 -58 -14 -75 -39h-1l-8 23v1c20 26 51 42 84 42c28 0 52 -5 71 -19c16 -12 25 -32 25 -53z" />
    <glyph glyph-name="yhookabove" unicode="&#x1ef7;" horiz-adv-x="432" 
d="M418 430l-190 -510c-46 -123 -96 -123 -121 -123c-18 0 -43 3 -68 8l-6 66c36 -11 68 -12 72 -12c16 0 31 0 53 56c5 10 21 55 32 85l-177 430h81l47 -117c35 -86 79 -206 82 -255h1c2 50 31 143 116 372h78zM306 640c0 -19 -9 -36 -25 -47l-4 -2
c-38 -25 -58 -41 -58 -69v-20l-1 -1h-17v1v20c0 37 22 72 56 91c10 6 16 16 16 27c0 14 -5 27 -15 34c-12 9 -28 11 -48 11c-30 0 -58 -14 -75 -39h-1l-8 23v1c20 26 51 42 84 42c28 0 52 -5 71 -19c16 -12 25 -32 25 -53z" />
    <glyph glyph-name="Ytilde" unicode="&#x1ef8;" horiz-adv-x="625" 
d="M621 694l-268 -417v-277h-82v278l-268 416h98l168 -263l49 -79c16 29 50 81 62 100l155 242h86zM469 847c-2 -79 -51 -117 -92 -117c-27 0 -46 14 -73 33c-20 15 -38 23 -53 23c-28 0 -34 -32 -34 -56h-61c2 79 51 117 92 117c27 0 46 -14 73 -33c20 -15 38 -23 53 -23
c28 0 34 32 34 56h61z" />
    <glyph glyph-name="ytilde" unicode="&#x1ef9;" horiz-adv-x="432" 
d="M418 430l-190 -510c-46 -123 -96 -123 -121 -123c-18 0 -43 3 -68 8l-6 66c36 -11 68 -12 72 -12c16 0 31 0 53 56c5 10 21 55 32 85l-177 430h81l47 -117c35 -86 79 -206 82 -255h1c2 50 31 143 116 372h78zM373 665c-2 -79 -51 -117 -92 -117c-27 0 -46 14 -73 33
c-20 15 -38 23 -53 23c-28 0 -34 -32 -34 -56h-61c2 79 51 117 92 117c27 0 46 -14 73 -33c20 -15 38 -23 53 -23c28 0 34 32 34 56h61z" />
    <glyph glyph-name="Zacute" unicode="&#x179;" horiz-adv-x="575" 
d="M527 0h-475v43l364 589h-128c-12 0 -24 -1 -36 -1h-187v63h457v-41l-364 -589h30l250 2h89v-66zM478 862l-197 -122h-89l175 122h111z" />
    <glyph glyph-name="zacute" unicode="&#x17a;" horiz-adv-x="408" 
d="M378 0h-352v41l247 330h-70c-12 0 -24 -1 -36 -1h-128v60h336v-39l-246 -330h77c12 0 24 1 36 1h136v-62zM337 694l-139 -176h-61l124 176h76z" />
    <glyph glyph-name="Zcaron" unicode="&#x17d;" horiz-adv-x="575" 
d="M527 0h-475v43l364 589h-128c-12 0 -24 -1 -36 -1h-187v63h457v-41l-364 -589h30l250 2h89v-66zM443 864l-126 -134h-60l-126 134h59l97 -97l97 97h59z" />
    <glyph glyph-name="zcaron" unicode="&#x17e;" horiz-adv-x="408" 
d="M378 0h-352v41l247 330h-70c-12 0 -24 -1 -36 -1h-128v60h336v-39l-246 -330h77c12 0 24 1 36 1h136v-62zM359 692l-125 -172h-60l-125 172h59l96 -123l96 123h59z" />
    <glyph glyph-name="Zdotaccent" unicode="&#x17b;" horiz-adv-x="575" 
d="M527 0h-475v43l364 589h-128c-12 0 -24 -1 -36 -1h-187v63h457v-41l-364 -589h30l250 2h89v-66zM330 730h-84v84h84v-84z" />
    <glyph glyph-name="zdotaccent" unicode="&#x17c;" horiz-adv-x="408" 
d="M378 0h-352v41l247 330h-70c-12 0 -24 -1 -36 -1h-128v60h336v-39l-246 -330h77c12 0 24 1 36 1h136v-62zM247 564h-84v84h84v-84z" />
    <glyph glyph-name="Zdotbelow" unicode="&#x1e92;" horiz-adv-x="575" 
d="M527 0h-475v43l364 589h-128c-12 0 -24 -1 -36 -1h-187v63h457v-41l-364 -589h30l250 2h89v-66zM330 -200h-84v84h84v-84z" />
    <glyph glyph-name="zdotbelow" unicode="&#x1e93;" horiz-adv-x="408" 
d="M378 0h-352v41l247 330h-70c-12 0 -24 -1 -36 -1h-128v60h336v-39l-246 -330h77c12 0 24 1 36 1h136v-62zM247 -200h-84v84h84v-84z" />
    <glyph glyph-name="Zeta" unicode="&#x396;" horiz-adv-x="575" 
d="M527 0h-475v43l364 589h-128c-12 0 -24 -1 -36 -1h-187v63h457v-41l-364 -589h30l250 2h89v-66z" />
    <glyph glyph-name="acute.cap" unicode="&#xea00;" 
d="M426 598l-197 -122h-89l175 122h111z" />
    <glyph glyph-name="uni0301.cap" unicode="&#xea01;" horiz-adv-x="0" 
d="M-93 958l-139 -176h-61l124 176h76z" />
    <glyph glyph-name="breve.cap" unicode="&#xea02;" 
d="M396 669c-3 -117 -75 -193 -161 -193c-82 0 -157 73 -160 193h61c2 -78 46 -127 100 -127c50 0 97 47 99 127h61z" />
    <glyph glyph-name="space_uni0306_uni0301.cap" unicode="&#xea03;" 
d="M396 669c-3 -117 -75 -193 -161 -193c-82 0 -157 73 -160 193h61c2 -78 46 -127 100 -127c50 0 97 47 99 127h61zM379 826l-197 -122h-89l175 122h111z" />
    <glyph glyph-name="space_uni0306_uni0301" unicode="&#xea04;" 
d="M396 703c-3 -117 -75 -193 -161 -193c-82 0 -157 73 -160 193h61c2 -78 46 -127 100 -127c50 0 97 47 99 127h61zM379 860l-197 -122h-89l175 122h111z" />
    <glyph glyph-name="space_uni032E" unicode="&#xea05;" 
d="M396 -61c-3 -117 -75 -193 -161 -193c-82 0 -157 73 -160 193h61c2 -78 46 -127 100 -127c50 0 97 47 99 127h61z" />
    <glyph glyph-name="space_uni032F" unicode="&#xea06;" 
d="M396 -254h-61c-2 78 -46 127 -100 127c-50 0 -97 -47 -99 -127h-61c3 117 75 193 161 193c82 0 157 -73 160 -193z" />
    <glyph glyph-name="uni0306.cap" unicode="&#xea07;" horiz-adv-x="0" 
d="M-65 967c-3 -117 -75 -193 -161 -193c-82 0 -157 73 -160 193h61c2 -78 46 -127 100 -127c50 0 97 47 99 127h61z" />
    <glyph glyph-name="space_uni0306_uni0300.cap" unicode="&#xea08;" 
d="M396 669c-3 -117 -75 -193 -161 -193c-82 0 -157 73 -160 193h61c2 -78 46 -127 100 -127c50 0 97 47 99 127h61zM378 704l-175 122h-111l197 -122h89z" />
    <glyph glyph-name="space_uni0306_uni0300" unicode="&#xea09;" 
d="M396 703c-3 -117 -75 -193 -161 -193c-82 0 -157 73 -160 193h61c2 -78 46 -127 100 -127c50 0 97 47 99 127h61zM378 738l-175 122h-111l197 -122h89z" />
    <glyph glyph-name="space_uni0306_uni0309.cap" unicode="&#xea0a;" 
d="M396 669c-3 -117 -75 -193 -161 -193c-82 0 -157 73 -160 193h61c2 -78 46 -127 100 -127c50 0 97 47 99 127h61zM326 823c0 -19 -9 -36 -25 -47l-4 -2c-38 -25 -58 -41 -58 -69v-20l-1 -1h-17v1v20c0 37 22 72 56 91c10 6 16 16 16 27c0 14 -5 27 -15 34
c-12 9 -28 11 -48 11c-30 0 -58 -14 -75 -39h-1l-8 23v1c20 26 51 42 84 42c28 0 52 -5 71 -19c16 -12 25 -32 25 -53z" />
    <glyph glyph-name="space_uni0306_uni0309" unicode="&#xea0b;" 
d="M396 703c-3 -117 -75 -193 -161 -193c-82 0 -157 73 -160 193h61c2 -78 46 -127 100 -127c50 0 97 47 99 127h61zM326 857c0 -19 -9 -36 -25 -47l-4 -2c-38 -25 -58 -41 -58 -69v-20l-1 -1h-17v1v20c0 37 22 72 56 91c10 6 16 16 16 27c0 14 -5 27 -15 34
c-12 9 -28 11 -48 11c-30 0 -58 -14 -75 -39h-1l-8 23v1c20 26 51 42 84 42c28 0 52 -5 71 -19c16 -12 25 -32 25 -53z" />
    <glyph glyph-name="space_uni0311.cap" unicode="&#xea0c;" 
d="M396 476h-61c-2 78 -46 127 -100 127c-50 0 -97 -47 -99 -127h-61c3 117 75 193 161 193c82 0 157 -73 160 -193z" />
    <glyph glyph-name="space_uni0311" unicode="&#xea0d;" 
d="M396 510h-61c-2 78 -46 127 -100 127c-50 0 -97 -47 -99 -127h-61c3 117 75 193 161 193c82 0 157 -73 160 -193z" />
    <glyph glyph-name="uni0311.cap" unicode="&#xea0e;" horiz-adv-x="0" 
d="M-65 774h-61c-2 78 -46 127 -100 127c-50 0 -97 -47 -99 -127h-61c3 117 75 193 161 193c82 0 157 -73 160 -193z" />
    <glyph glyph-name="space_uni0306_uni0303.cap" unicode="&#xea0f;" 
d="M396 669c-3 -117 -75 -193 -161 -193c-82 0 -157 73 -160 193h61c2 -78 46 -127 100 -127c50 0 97 47 99 127h61zM392 841c-2 -79 -51 -117 -92 -117c-27 0 -46 14 -73 33c-20 15 -38 23 -53 23c-28 0 -34 -32 -34 -56h-61c2 79 51 117 92 117c27 0 46 -14 73 -33
c20 -15 38 -23 53 -23c28 0 34 32 34 56h61z" />
    <glyph glyph-name="space_uni0306_uni0303" unicode="&#xea10;" 
d="M396 703c-3 -117 -75 -193 -161 -193c-82 0 -157 73 -160 193h61c2 -78 46 -127 100 -127c50 0 97 47 99 127h61zM392 875c-2 -79 -51 -117 -92 -117c-27 0 -46 14 -73 33c-20 15 -38 23 -53 23c-28 0 -34 -32 -34 -56h-61c2 79 51 117 92 117c27 0 46 -14 73 -33
c20 -15 38 -23 53 -23c28 0 34 32 34 56h61z" />
    <glyph glyph-name="caron.cap" unicode="&#xea11;" 
d="M391 600l-126 -134h-60l-126 134h59l97 -97l97 97h59z" />
    <glyph glyph-name="uni030C.cap" unicode="&#xea14;" horiz-adv-x="0" 
d="M-71 956l-125 -172h-60l-125 172h59l96 -123l96 123h59z" />
    <glyph glyph-name="circumflex.cap" unicode="&#xea15;" 
d="M391 466h-59l-97 97l-97 -97h-59l126 134h60z" />
    <glyph glyph-name="space_uni0302_uni0301.cap" unicode="&#xea16;" 
d="M391 466h-59l-97 97l-97 -97h-59l126 134h60zM378 757l-197 -122h-89l175 122h111z" />
    <glyph glyph-name="space_uni0302_uni0301" unicode="&#xea17;" 
d="M391 520h-59l-97 97l-97 -97h-59l126 134h60zM378 811l-197 -122h-89l175 122h111z" />
    <glyph glyph-name="uni0302.cap" unicode="&#xea18;" horiz-adv-x="0" 
d="M-71 784h-59l-96 123l-96 -123h-59l125 172h60z" />
    <glyph glyph-name="space_uni0302_uni0300.cap" unicode="&#xea19;" 
d="M391 466h-59l-97 97l-97 -97h-59l126 134h60zM378 635l-175 122h-111l197 -122h89z" />
    <glyph glyph-name="space_uni0302_uni0300" unicode="&#xea1a;" 
d="M391 520h-59l-97 97l-97 -97h-59l126 134h60zM378 689l-175 122h-111l197 -122h89z" />
    <glyph glyph-name="space_uni0302_uni0309.cap" unicode="&#xea1b;" 
d="M391 466h-59l-97 97l-97 -97h-59l126 134h60zM415 754c0 -19 -9 -36 -25 -47l-4 -2c-38 -25 -58 -41 -58 -69v-20l-1 -1h-17v1v20c0 37 22 72 56 91c10 6 16 16 16 27c0 14 -5 27 -15 34c-12 9 -28 11 -48 11c-30 0 -58 -14 -75 -39h-1l-8 23v1c20 26 51 42 84 42
c28 0 52 -5 71 -19c16 -12 25 -32 25 -53z" />
    <glyph glyph-name="space_uni0302_uni0309" unicode="&#xea1c;" 
d="M391 520h-59l-97 97l-97 -97h-59l126 134h60zM415 808c0 -19 -9 -36 -25 -47l-4 -2c-38 -25 -58 -41 -58 -69v-20l-1 -1h-17v1v20c0 37 22 72 56 91c10 6 16 16 16 27c0 14 -5 27 -15 34c-12 9 -28 11 -48 11c-30 0 -58 -14 -75 -39h-1l-8 23v1c20 26 51 42 84 42
c28 0 52 -5 71 -19c16 -12 25 -32 25 -53z" />
    </font>
</defs>
</svg>
