<svg xmlns="http://www.w3.org/2000/svg" xmlns:xlink="http://www.w3.org/1999/xlink" viewBox="0 0 2500 1300"><defs><style>.cls-1{fill:#ffb27d;}.cls-2{fill:#82b378;}.cls-3{fill:#a8d29f;}.cls-4{fill:#b9b9d6;}.cls-5{fill:#7f7fc7;}.cls-6{fill:#9797e2;}.cls-7{fill:#163560;}.cls-8{fill:#c65447;}.cls-9{fill:url(#linear-gradient);}.cls-10{fill:#699dee;}.cls-11{fill:#4a75cb;}.cls-12{fill:#e2915a;}.cls-13{fill:url(#linear-gradient-2);}.cls-14{fill:#f1a34f;}.cls-15{fill:#2c285b;opacity:0.4;}.cls-16{fill:#a1c7ff;}.cls-17{fill:#ef9a60;}.cls-18{fill:#233862;}.cls-19{fill:#365da4;}.cls-20{fill:#ccbfdc;}.cls-21{fill:#2b478b;}.cls-22{fill:#466aa5;}.cls-23{fill:#ab832a;}.cls-24{fill:#bba2dc;}.cls-25{fill:none;stroke:#a0792c;stroke-miterlimit:10;stroke-width:0.1px;}.cls-26{fill:#afcdfb;}.cls-27{fill:#283250;}.cls-28{fill:#723980;}.cls-29{fill:#dfdfdf;}</style><linearGradient id="linear-gradient" x1="921.66" y1="956" x2="1287.02" y2="956" gradientUnits="userSpaceOnUse"><stop offset="0" stop-color="#0f005b"></stop><stop offset="1" stop-color="#1e168c"></stop></linearGradient><linearGradient id="linear-gradient-2" x1="866.63" y1="992.69" x2="1214.69" y2="992.69" xlink:href="#linear-gradient"></linearGradient></defs><g id="Objects"><path class="cls-1" d="M1787.81,786.12s-18.15,7.54-27.36,5.42-27.94-8.28-27.12-13.34,20.88-10.93,30.3-7.53,14.83-3.72,26-1.91S1787.81,786.12,1787.81,786.12Z"></path><path class="cls-2" d="M1450.29,854.85s-64.2,47.74-76.72,44.85,46.92-51.54,46.92-51.54c-22.37-10.75-91.9-4-91.9-4S1305.43,918.83,1294,913s23.88-65.08,23.88-65.08c-24.91-1.51-55.46,17-55.46,17-41.83,33,2.75,85,2.75,85s-8.59,25.7-35,49.12c0,0-37.72,27.89-40.34,77.74l6.84.62s10.86-46.44,30.58-68.39c.77-.8,1.88-1.93,3.25-3.31h0c3.22-3,5.48-5.23,7-6.89,9.82-9.43,23.38-21.44,29.92-22.61a12.51,12.51,0,0,1-.28-3.29c.09,1.06.18,2.14.28,3.29,2.24,26.29,53.23,49.24,84.6,54s21.67-8.17,10.86-27.29-45-27.68-52.82-36.48,8.33-8.83,27.23-.2,21.49,31.65,51.81,46.17,76-35.79,76-35.79c-24.17-1.23-58.68-27.47-57.43-35.5S1466.2,954.91,1476,956s32.09-11.13,35.54-50.61S1450.29,854.85,1450.29,854.85Z"></path><path class="cls-3" d="M1109.33,884.5s70.9-39.71,37.81-93.6c0,0-26.47-33.1-54.83-41.6,0,0,15.12,80.36,0,82.25s-10.4-90.76-10.4-90.76-74.69-35.93-104-33.09c0,0,46.33,78.47,31.2,76.58S942,703,942,703s-76.58-14.18-88.87,31.2,7.56,68.07,18.91,70.91,84.14,1.89,82.25,11.34-51,24.58-78.47,16.08c0,0,30.25,74.69,70,70.91s52-28.37,76.58-30.26,42.55,4.73,30.26,11.35-53.89,2.16-73.75,19-35.92,27.28.95,34.85,103,2.83,116.29-25.53Z"></path><path class="cls-2" d="M1128.24,953.51c-19.86-36.87-18.91-69-18.91-69-22.7-71.86-221.24-136.15-221.24-136.15,252.44,102.11,208,164.51,208,164.51,6.8,4,17,22.89,24.08,37.41,1,2.47,2.61,5.89,5,10.53h0c1,2.1,1.73,3.82,2.26,5,13,32.52,6.11,88.68,6.11,88.68l7.88,2.12C1158.85,1000,1128.24,953.51,1128.24,953.51Z"></path><path class="cls-3" d="M1222.14,829.73s-93.47-52.34-49.85-123.38c0,0,34.89-43.62,72.28-54.84,0,0-19.94,105.94,0,108.43s13.71-119.64,13.71-119.64,98.45-47.36,137.09-43.62c0,0-61.07,103.44-41.13,101s88.49-107.18,88.49-107.18,101-18.7,117.15,41.12-10,89.73-24.93,93.47-110.92,2.5-108.42,15,67.3,32.4,103.44,21.19c0,0-39.88,98.45-92.23,93.47s-68.54-37.39-101-39.88-56.08,6.23-39.88,15,71,2.86,97.21,25.11,47.36,36-1.24,45.93-135.85,3.74-153.3-33.65Z"></path><path class="cls-2" d="M1513.77,650.27S1252.05,735,1222.14,829.73c0,0,1.24,42.38-24.93,91,0,0-40.36,61.29-17.35,135.9l10.38-2.79s-9.07-74,8.06-116.9c.7-1.58,1.71-3.84,3-6.61,3.13-6.11,5.23-10.62,6.56-13.88,9.33-19.14,22.78-44.08,31.74-49.31C1239.58,867.12,1181,784.87,1513.77,650.27Z"></path><path class="cls-4" d="M1066.32,820.92s154.69-44.19,193.55-2.15c34,36.82,126.35,182.6,131.21,268.89,4.72,83.84-84,139-175.31,139H1053.64Z"></path><path class="cls-5" d="M959.25,863.88S1178,764.52,1219.4,829.42c22,34.47,82.53,172,87,258.24,4.35,83.84-77.26,139-161.21,139H996.08Z"></path><path class="cls-6" d="M528,558.22s272-7.37,375.9-7.14c53.43.12,52.11,40.56,77.78,87.42,51.41,93.84,136.77,255.27,130,280.49C1102,954.9,737.8,979.76,712,971.47S528,558.22,528,558.22Z"></path><path class="cls-5" d="M741,631s3.68-53.4-9.21-48.79-94.83,79.17-81.94,255l37.75,32.23,288.17-47.88Z"></path><path class="cls-4" d="M1107.34,847.37l-97,48s-83.18-305.8-88.7-329.12c-2.46-10.39-10-14.15-17.69-15.12,13.46-1.22,23.24-1.31,23.24-1.31a61.77,61.77,0,0,1,58.51,41.93c18.53,54.68,52.66,155.51,87.23,258.21,9-3.61,19.81-7.77,31.68-12Z"></path><path class="cls-6" d="M913.08,863.94s313.66-27.78,352.33,9.26c18,17.19,28,95,33.69,173.54,7,97.91-72.3,181.69-169.91,180.29l-340,.15Z"></path><path class="cls-7" d="M795.68,485.49c-9-2-18.3.31-24.6,2.65,1.13-2.21,4.19-3.82,4.19-3.82-4.16.62-11.83,7.28-11.83,7.28-61.86-4.42-45.67,79.72-38.73,98.29s13.73,40.32-8.71,65.74c-44.15,50,19.52,94.32,19.52,94.32.5.12,38.24,34.7,38.24,34.7-6.06-14.88,39.87-117.16,69.31-152.58,4.93-15.94,1-40.23.68-42.13,4.1,18.95,4.1,30.29,3.06,37C869.23,588.71,819.49,490.82,795.68,485.49Z"></path><path class="cls-1" d="M1032.87,632.33c.92-1.38,8.75-25.32,17-24.86s21.18,1.85,24.4.93,14-9.08,15.88-7.14c4.61,4.83-5.75,19.79-13.12,22.1s-19.33-1.15-22.09,1.61-2.3,12.66-2.3,12.66Z"></path><path class="cls-1" d="M1252,1162.15c-.91,9.77,12.69,12.14,28.44,12.93s11,4,32.57,7.92,30.23-2,31.8-4.92c1.39-2.58-8.65-6.63-19.34-11.2-1.35-.57-2.69-1.16-4-1.75-12-5.29-18.79-16.09-28.17-26.09-8.89-9.48-17.33-39.83-17.33-39.83l-29.33-6.27s8.24,27.32,11.1,39c1.68,6.86-.8,14.53-3,20.37A38.42,38.42,0,0,0,1252,1162.15Z"></path><path class="cls-8" d="M1280.41,1175.08c15.75.78,11,4,32.57,7.92s30.23-2,31.8-4.92c1.39-2.58-8.65-6.63-19.34-11.2l-.17.18a61.48,61.48,0,0,1-32.69.39c-14.28-3.88-28.08-12.41-37.92-15.16a38.42,38.42,0,0,0-2.69,9.86C1251.06,1171.92,1264.66,1174.29,1280.41,1175.08Z"></path><path class="cls-9" d="M959.91,814.36s194.89-14.67,231.58,8.49S1287,1115.73,1287,1115.73s-3.63,2.91-11.74,3.78c-7.54.82-24.16-3.61-24.16-3.61s-84.57-120.69-90.52-151.09-4.51-57.53-18.07-58.26-182.65,20.56-208.22-24.5-4.44-89.66-4.44-89.66Z"></path><path class="cls-10" d="M1052.32,661.26c-13.24,33.55-45.25,88.23-53.51,90.3-7,1.74-41-6-68.73-15.49-16.21-5.53-30.21-11.63-35.31-16.74-13.81-13.8-59.27-94.94-59.27-94.94s42.7-5.41,63,6.56,69,67.21,76.42,65.37,42.35-63.53,56.16-69.05c0,0,21.17-4.6,26.7,10.13C1059.12,641.1,1056.78,650,1052.32,661.26Z"></path><path class="cls-1" d="M1177.39,1193.45c-.9,9.77,12.7,12.15,28.45,12.93s11,4,32.57,7.92,30.23-2,31.79-4.91c1.39-2.59-8.64-6.64-19.33-11.21-1.35-.57-2.7-1.16-4-1.75-12-5.29-18.78-16.09-28.17-26.09-8.89-9.48-17.32-39.83-17.32-39.83l-29.33-6.26s8.23,27.31,11.09,39c1.68,6.86-.8,14.53-3,20.37A38,38,0,0,0,1177.39,1193.45Z"></path><path class="cls-8" d="M1205.84,1206.38c15.75.79,11,4,32.57,7.92s30.23-2,31.79-4.91c1.39-2.59-8.64-6.64-19.33-11.21l-.17.18a61.49,61.49,0,0,1-32.69.39c-14.28-3.87-28.08-12.41-37.92-15.16a38,38,0,0,0-2.7,9.86C1176.49,1203.22,1190.09,1205.6,1205.84,1206.38Z"></path><path class="cls-11" d="M1052.32,661.26c-13.24,33.55-45.25,88.23-53.51,90.3-7,1.74-41-6-68.73-15.49-11.46-9.77-18.5-18.23-19.65-20,.91.34,65.45,24.81,78.25,19.33C1000.28,730.48,1033.11,674.45,1052.32,661.26Z"></path><path class="cls-1" d="M841.26,633.94c.21,0-14.91,14.84-29.55,15.27-13.77.41-27.11-13.53-27-13.62,5.06-2.72,4.35-10.59-5.47-42.34l2.58-.26,43.39-4.4s3,13.17,6.68,25.31C835,624.09,838.59,633.56,841.26,633.94Z"></path><path class="cls-12" d="M825.26,588.59s3,13.17,6.68,25.31c-23.09,6.34-41.57-10.85-50.07-20.91Z"></path><path class="cls-13" d="M921.74,826.44s173.13,8.19,208.89,32.76,84.06,296.37,84.06,296.37-3.74,2.77-11.88,3.33c-7.57.52-24-4.56-24-4.56s-79.81-123.88-84.58-154.49-2.26-57.66-15.78-58.92-183.31,13.44-207.12-32.58S921.74,826.44,921.74,826.44Z"></path><path class="cls-7" d="M776.29,589.82s-17.79-15.29-25.62-30.62c-5.59-11-12.8-55.65,32.2-62.64a61.22,61.22,0,0,1,27.1,1.77c11.29,3.46,29,13,25.29,55l-.06,13.85Z"></path><path class="cls-10" d="M922.7,841.17c-1.52,0-3.66-.09-6.16-.29-10.12-.77-26.25-2.93-31.89-4.62C837,822,791.24,804.47,771.75,742.79a191.05,191.05,0,0,1-5.87-24.37l7.43-28.32,14.49-59.78s17.83,9.52,34.39,5.85c8.48-1.89,13.31-11.77,13.31-11.77s89.66,35.09,120,107.83,40.81,61.68,50,77.33S974,840.86,922.7,841.17Z"></path><path class="cls-1" d="M836.42,597.75s-53.9,17.43-64.24-16.3-24.27-54.2,9.71-66.76,44.64-1.75,50.83,8.67S850.17,592.34,836.42,597.75Z"></path><path class="cls-7" d="M806.31,506.33s-2.74,44.12-23.72,56.92S749.88,573,749.88,573s13.22-19.2,9.45-44.52C759.33,528.45,789.37,490.9,806.31,506.33Z"></path><path class="cls-7" d="M803.62,510.67s13.77,5.45,19.1,13.22S834.66,549,839.63,546.8c0,0,3-30.32-14.25-41.71C807.13,493,803.62,510.67,803.62,510.67Z"></path><path class="cls-11" d="M916.54,840.88c-10.12-.77-26.25-2.93-31.89-4.62C837,822,791.24,804.47,771.75,742.79c-.07-.45-.15-.9-.24-1.36l6.61-5.2a47.28,47.28,0,0,1,47.59-6.38C863.34,745.74,915,774.55,916.54,840.88Z"></path><path class="cls-10" d="M787.8,630.32s-55.68,8.36-64.89,43.31-17.39,149.1-9.1,158.11,33-1.44,38.56-6,34.07-120.6,34.07-120.6S800.4,652.71,787.8,630.32Z"></path><path class="cls-1" d="M872.57,790.76s32-6.2,35.65-4.65,23.76,19.63,21.69,23.25-10.33,6.2-19.63,3.1-29.44-4.65-33.06-9.3S872.57,790.76,872.57,790.76Z"></path><path class="cls-10" d="M881.18,786.28s-125-2.06-155,17.57c0,0-17.57,18.08-12.4,27.89S735,840,742.22,839.49,876,810.05,876,810.05,890.48,799.2,881.18,786.28Z"></path><path class="cls-4" d="M774.78,820.92s142.26-44.19,178-2.15c31.31,36.82,116.2,182.6,120.66,268.89,4.35,83.84-77.26,139-161.21,139H763.11Z"></path><path class="cls-14" d="M988.73,1087.66c-4.47-86.29-65-223.77-87-258.24-32.09-50.27-170.56-2-231.35,22.34-34.57-102.71-68.7-203.53-87.23-258.21a61.76,61.76,0,0,0-58.5-41.94S425.8,537,410.5,668.7c-49,421.55-9.62,557.49,166,558.54,22,.13,65.08-.26,101.88-.68v.06H827.52C911.47,1226.62,993.07,1171.5,988.73,1087.66Z"></path><path class="cls-5" d="M988.74,1087.38c-4.48-86.54-65-224.42-87-259C874.42,785.47,770,814.18,702.07,838.71c-11.88,4.29-22.64,8.45-31.68,12.08-34.57-103-68.7-204.13-87.24-259a61.77,61.77,0,0,0-58.5-42.06s-9.79.09-23.24,1.32h0c-21.67,2-52.83,6.9-67.76,19.16-10.13,8.31-17.09,44.77-23.13,97-14.28,123.26-21,222.18-19.12,300.49,1,40.16,4.26,74.9,10,104.73,4,20.9,9.21,39.38,15.68,55.63,28,70.46,79.69,98.84,159.48,99.32,9.27.06,22.27,0,37-.07,20.21-.13,43.61-.37,64.92-.61v.06h149.1C911.47,1226.75,993.08,1171.46,988.74,1087.38Z"></path><path class="cls-4" d="M668.75,845,601.32,871.5c-19.67-72.36-77.65-286-82.23-305.3-2.45-10.39-10-14.15-17.68-15.11,13.45-1.23,23.24-1.32,23.24-1.32a61.8,61.8,0,0,1,58.51,41.93C601.39,645.51,634.74,744,668.75,845Z"></path><path class="cls-15" d="M714.54,913.7c-10.51-31.51-76-21.67-76-21.67S594,947.18,581.1,948.49s26.69-53.17,26.69-53.17c-25.07-2-89,23-89,23s4.06,64.34-8.89,63,0-57.12,0-57.12C485.67,930.11,463,953.09,463,953.09c-28.3,37.42,32.36,65,32.36,65s.81,22.32-16.18,47.92c0,0-21.35,26.33-14.5,60.36H445.91c3.6-24.5-11.47-43.07-11.47-43.07-12.88-19.43-12.27-36.36-12.27-36.36s46-20.92,24.54-49.3c0,0-17.18-17.44-35.58-21.92,0,0,9.81,42.33,0,43.33s-6.75-47.81-6.75-47.81-5.26-2.05-13-4.76c1,40,4.26,74.69,10,104.43,5.69-2.28,10.05-5.26,12.21-9l1.07-1.87a7.07,7.07,0,0,1-1.07,1.87c4.41,2.09,11,12.06,15.63,19.7.65,1.31,1.69,3.1,3.22,5.54.63,1.11,1.13,2,1.47,2.66,5.31,10.76,5.51,26.43,4.93,36.59H370.61v3h4c1.46,39.23,31.77,72.56,74.28,86.5H387.54c-8.1,0-14.67,5.33-14.67,11.9H613.78a10,10,0,0,0-.29-2.39c-1.36-5.43-7.27-9.51-14.36-9.51H537.81c42.52-13.94,72.82-47.27,74.28-86.5h2.76v-3H488.21a54.77,54.77,0,0,1,10.69-14c.49-.4,1.13-.94,1.92-1.58,2.07-1.56,3.51-2.73,4.5-3.6,6.37-5,15.19-11.32,19.43-11.92a5.46,5.46,0,0,1-.17-1.74c0,.56.12,1.13.17,1.74,1.46,13.83,34.55,25.93,54.9,28.42s14.07-4.31,7.06-14.38-29.22-14.58-34.28-19.22,5.4-4.65,17.68-.1,13.94,16.67,33.61,24.31S653,1095.42,653,1095.42c-15.68-.65-38.07-14.47-37.26-18.7s38,7.29,44.37,7.84,20.83-5.86,23.06-26.66-39.74-26.59-39.74-26.59-9.69,5.85-20.62,11.73a65.8,65.8,0,0,0-9.76-7.59c3.61-2.6,6.86-4.83,8.87-6.2a96.2,96.2,0,0,0,13.37,2c34,2.62,59.84-49.24,59.84-49.24-23.45,5.91-65.5-4.59-67.12-11.15s60.65-5.91,70.35-7.89S725.05,945.21,714.54,913.7ZM506.69,1037.77a10,10,0,0,1-1.41-2.46C505.73,1036.1,506.2,1036.9,506.69,1037.77Zm-6.09,69.48a64,64,0,0,0-18.91,19.11h-8c-1-13-1.38-36.3,6.26-51.81.45-.84,1.1-2,1.93-3.49,1-1.61,1.86-3,2.57-4.23s1.25-2.23,1.69-3.08c6-10.08,14.78-23.22,20.6-26a22.32,22.32,0,0,0,6.39,6.75c-11.05,16.71,10.22,36.85,10.22,36.85S517.74,1094.92,500.6,1107.25Zm89.33-82.66c-17.39-3.89-38.37-3.16-46-6.51-10.51-4.6,4.86-9.19,25.89-7.88,14.15.89,23.54,8.9,38.51,14.84C602.46,1024.63,596,1024.53,589.93,1024.59Z"></path><path class="cls-2" d="M485.33,1047.43s-28.93-33.74-1.78-55.18c0,0,19.82-12,36-11,0,0-22.91,38.41-15.5,42.24s22.44-44.65,22.44-44.65,45.12-4.37,59.63,2.61c0,0-38.57,31.56-30.44,33.44s49.78-29.1,49.78-29.1,42,7.14,39.75,32.76-16.7,33.53-23.07,32.84-43.55-14.88-44.36-9.67,21.58,22.24,37.26,23c0,0-29.61,32.65-49.28,23.23s-21.36-24.36-33.62-30-22.74-5.59-17.67.12,27.26,11.27,34.27,23.67,13.31,20.78-7.05,17.71-53.44-18-54.9-35Z"></path><path class="cls-2" d="M624.57,1019.21s-114.05-4.39-139.24,28.22c0,0-5.57,16.69-22.71,31.88,0,0-24.48,18.1-26.18,50.45l4.44.4s7.05-30.13,19.84-44.38c.5-.52,1.23-1.26,2.12-2.16,2.08-1.92,3.52-3.36,4.5-4.43,6.38-6.13,15.2-13.94,19.44-14.7C486.78,1064.49,475.72,1024.08,624.57,1019.21Z"></path><path class="cls-3" d="M384.19,1005s46-25.77,24.54-60.74c0,0-17.17-21.47-35.58-27,0,0,9.82,52.15,0,53.38s-6.75-58.9-6.75-58.9-48.47-23.32-67.49-21.48c0,0,30.07,50.93,20.25,49.7S275.6,887.2,275.6,887.2s-49.7-9.21-57.67,20.24,4.91,44.18,12.27,46,54.6,1.22,53.38,7.36-33.13,15.95-50.93,10.43c0,0,19.64,48.47,45.4,46s33.75-18.4,49.7-19.63,27.61,3.07,19.63,7.36-35,1.41-47.85,12.36-23.32,17.71.61,22.61,66.87,1.84,75.46-16.56Z"></path><path class="cls-2" d="M396.46,1049.78c-12.88-23.93-12.27-44.79-12.27-44.79-14.72-46.63-143.56-88.35-143.56-88.35,163.81,66.27,135,106.76,135,106.76,4.42,2.57,11,14.85,15.63,24.27.66,1.61,1.69,3.83,3.23,6.84h0c.62,1.36,1.12,2.47,1.47,3.25,8.43,21.11,4,57.55,4,57.55l5.12,1.37C416.33,1080,396.46,1049.78,396.46,1049.78Z"></path><path class="cls-3" d="M457.4,969.46s-60.66-34-32.35-80.07c0,0,22.64-28.31,46.91-35.58,0,0-12.94,68.74,0,70.36s8.89-77.64,8.89-77.64,63.89-30.74,89-28.31c0,0-39.62,67.13-26.68,65.51s57.42-69.55,57.42-69.55,65.5-12.13,76,26.69-6.47,58.22-16.18,60.65-72,1.62-70.36,9.71,43.67,21,67.13,13.74c0,0-25.88,63.89-59.85,60.66s-44.48-24.26-65.51-25.88-36.39,4-25.88,9.71S552,971.31,569,985.75s30.73,23.33-.81,29.8S480,1018,468.72,993.72Z"></path><path class="cls-2" d="M646.64,853S476.81,908,457.4,969.46c0,0,.81,27.49-16.18,59,0,0-26.19,39.78-11.26,88.19l6.74-1.81s-5.89-48,5.23-75.85c.45-1,1.11-2.5,1.94-4.29,2-4,3.39-6.9,4.25-9,6.06-12.42,14.78-28.61,20.6-32C468.72,993.72,430.71,940.34,646.64,853Z"></path><path class="cls-10" d="M336.54,1102.86a118.82,118.82,0,0,0,237.63,0Z"></path><path class="cls-16" d="M484.59,1220.76A118.89,118.89,0,0,1,351,1102.86h29.52A118.83,118.83,0,0,0,484.59,1220.76Z"></path><path class="cls-11" d="M561.15,1213.06H349.56a14.66,14.66,0,0,0-14.66,14.66H575.81A14.66,14.66,0,0,0,561.15,1213.06Z"></path><rect class="cls-11" x="332.63" y="1102.86" width="244.24" height="3.64"></rect><path class="cls-5" d="M1888.09,873.24v114.1c0,20-5.66,36.26-12.66,36.26H1652c-7,0-12.66-16.22-12.66-36.26V873.24c0-20,19.74-38.61,77.66-38l158.44,1.7C1882.43,837,1888.09,853.19,1888.09,873.24Z"></path><path class="cls-4" d="M1917.69,873.24v114.1c0,20-5.66,36.26-12.66,36.26H1681.59c-7,0-12.66-16.22-12.66-36.26V873.24c0-20,21-39.26,53.21-38.61L1905,837C1912,837,1917.69,853.19,1917.69,873.24Z"></path><path class="cls-5" d="M1862.6,736.39c3-6.72-1.52-287.58,67-284.22s196.31,6.73,196.31,6.73,57.82,5,22.82,143-27.39,356.54-27.39,356.54H1868.69Z"></path><path class="cls-4" d="M2100,601.87c-4.22,16.48-7.72,34.08-10.81,52.31-12.35,73.82-16.16,158-17.09,219-.72,50.45.51,85.15.51,85.15H1820l-6.08-222c3-6.69-1.54-287.58,66.93-284.18,35,1.75,85.57,3.4,126.55,4.74,5.15.1,10.19.3,15,.41,31.71.92,54.78,1.54,54.78,1.54S2135,463.9,2100,601.87Z"></path><path class="cls-6" d="M1941.33,1165.26V1017.11a11.65,11.65,0,0,0-11.54-11.53h-.1a10.68,10.68,0,0,0-5.66,1.65,11.34,11.34,0,0,0-5.87,9.88v148.35l-1.34.23a86,86,0,0,0-69.19,61.27h165.46A86.15,86.15,0,0,0,1941.33,1165.26Z"></path><path class="cls-6" d="M2089,649.75c-6.18-94.73-55.71-175.76-66.52-192.44l-108.53-10.74s-83.66,55.35-63.06,268.36c10.62,109.84,55.91,37.9,97.29-57.56l-8.48,206.86s101,6.9,132.41,9c.93-61.06,4.74-145.19,17.09-219C2089.16,652.74,2089.06,651.19,2089,649.75Z"></path><path class="cls-5" d="M1924,1007.23a11.34,11.34,0,0,0-5.87,9.88v181.53a11.12,11.12,0,0,0,5.87,9.89,11.48,11.48,0,0,0,5.76-9.89V1017.11A11.45,11.45,0,0,0,1924,1007.23Z"></path><path class="cls-5" d="M1916.82,1165.69a86,86,0,0,0-69.19,61.27H1986A85.81,85.81,0,0,0,1916.82,1165.69Z"></path><path class="cls-5" d="M2124.91,971.09l-5.71,32.78c0,7,.05,19.73-6.95,19.73H1718.92a12.66,12.66,0,0,1-12.67-12.66V971.09a12.67,12.67,0,0,1,12.67-12.67h393.33A12.66,12.66,0,0,1,2124.91,971.09Z"></path><path class="cls-17" d="M1651.79,1203.09a41.86,41.86,0,0,1,1.23,10.81,8,8,0,0,1-3.81,4.84l-1.85,3.5c-2,.93-6.69,1.65-12.77,2.27l-.1-2.89a18.49,18.49,0,0,0-2.47.11v-.11a72.71,72.71,0,0,0-27.08,5.05c-.11,0-.21.1-.31.1l-5.67.31H1572.4c-12.77-1.85-17.81-7-18.74-9.57,0-.72,9.57-5.46,17.5-7.72a3.58,3.58,0,0,1,.62-.11c1.13-.41,3.3-1.23,3.81-1.34,1.44-.51,3.09-.92,4.53-1.34,13.28-3.91,22.24-12.76,32.74-22.54,12.05-11.23,28.42-61.27,26.26-62.2l27.08,3.5s-21.73,43.46-20,56.94c.72,6,2.88,11,4.32,16.17.1.21.1.52.21.72a20.25,20.25,0,0,1,.72,2.16C1651.58,1202.27,1651.68,1202.68,1651.79,1203.09Z"></path><path class="cls-18" d="M1992.57,827.31l-116.47-4.77S1699,834,1683.94,859.73l-66.8,312.43s3.7,5,16.25,7.14c6.63,1.14,21.08-2.15,21.08-2.15s86.5-110.61,97.62-180.06c9.3-58,13-64.1,44.79-62.9s129.45,8.89,175.84-.09S1992.57,827.31,1992.57,827.31Z"></path><path class="cls-19" d="M1653.54,1211a6.55,6.55,0,0,1-.52,2.88,8,8,0,0,1-3.81,4.84,1.91,1.91,0,0,1-.62.41h-.1c-.1.11-.21.11-.31.21-3.4,2.06-7.93,2.06-13.69,2.26H1632a72.71,72.71,0,0,0-27.08,5.05c-.11,0-.21.1-.31.1-.31.11-.52.21-.83.31h-45c-6.18-2.47-7.42-6.38-8-7.82-.52-1.14.92-2.37,3.7-3.71a2.51,2.51,0,0,0,.72-.41c3.92-1.75,9.79-3.6,16.07-5.66.1.1.31.1.51.2a72.88,72.88,0,0,0,36.24,2.78c14.42-2.78,28.73-9.57,39.75-12.87.93-.2,1.85-.51,2.78-.72.21-.1.41-.1.62-.21a7.08,7.08,0,0,1,.41,1.34A39.29,39.29,0,0,1,1653.54,1211Z"></path><polygon class="cls-19" points="1649.83 1217.61 1649.21 1218.74 1647.36 1222.24 1644.78 1227.08 1632.12 1227.08 1632.12 1224.51 1632.02 1221.73 1632.02 1220.49 1649.11 1217.71 1649.83 1217.61"></polygon><path class="cls-1" d="M1691.26,1203.09a41.86,41.86,0,0,1,1.23,10.81,8,8,0,0,1-3.81,4.84l-1.85,3.5c-2,.93-6.69,1.65-12.77,2.27l-.1-2.89a18.49,18.49,0,0,0-2.47.11v-.11a72.71,72.71,0,0,0-27.08,5.05c-.11,0-.21.1-.31.1l-5.67.31h-26.56c-12.77-1.85-17.81-7-18.74-9.57,0-.72,9.58-5.46,17.5-7.72a3.58,3.58,0,0,1,.62-.11c1.13-.41,3.3-1.23,3.81-1.34,1.44-.51,3.09-.92,4.53-1.34,13.28-3.91,22.24-12.76,32.74-22.54,12.05-11.23,28.42-61.27,26.26-62.2l27.08,3.5s-21.73,43.46-20,56.94c.72,6,2.88,11,4.32,16.17.1.21.1.52.21.72a20.25,20.25,0,0,1,.72,2.16C1691.05,1202.27,1691.15,1202.68,1691.26,1203.09Z"></path><path class="cls-20" d="M1921.91,538.33l-9.06,36-47.6,188.07c-1.82,2.83-17,8.83-33.74,14.45-20,6.68-42.26,13-46.48,12.6-7.72-.62-12-16.76-9.79-21.3,1.42-3,26.87-16.51,46.78-28.61,11.1-6.76,20.47-13.06,23.06-16.81,4.68-7,16.31-71,25.79-117.87,4.83-24,9.15-43.57,11.65-48.7,6.34-13.36,31-17,37.7-17.67A14.49,14.49,0,0,1,1921.91,538.33Z"></path><path class="cls-21" d="M2023.37,827.41l-116.46-4.76s-177.14,11.44-192.16,37.19L1653,1178.44s10.77,3.68,17.54,4.18a39,39,0,0,0,18.18-2.73s83-113.25,94.16-182.69c9.29-58,13-64.11,44.79-62.9s129.45,8.89,175.84-.09S2023.37,827.41,2023.37,827.41Z"></path><path class="cls-22" d="M1693,1211a6.55,6.55,0,0,1-.52,2.88,8,8,0,0,1-3.81,4.84,1.91,1.91,0,0,1-.62.41h-.1c-.1.11-.21.11-.31.21-3.4,2.06-7.93,2.06-13.69,2.26h-2.47a72.71,72.71,0,0,0-27.08,5.05c-.11,0-.21.1-.31.1-.31.11-.52.21-.83.31h-45c-6.18-2.47-7.42-6.38-8-7.82-.52-1.14.92-2.37,3.7-3.71a2.51,2.51,0,0,0,.72-.41c3.92-1.75,9.79-3.6,16.07-5.66.1.1.31.1.51.2a72.91,72.91,0,0,0,36.25,2.78c14.41-2.78,28.72-9.57,39.74-12.87.93-.2,1.85-.51,2.78-.72.21-.1.41-.1.62-.21a7.08,7.08,0,0,1,.41,1.34A39.29,39.29,0,0,1,1693,1211Z"></path><polygon class="cls-22" points="1689.3 1217.61 1688.68 1218.74 1686.83 1222.24 1684.25 1227.08 1671.59 1227.08 1671.59 1224.51 1671.49 1221.73 1671.49 1220.49 1688.58 1217.71 1689.3 1217.61"></polygon><path class="cls-23" d="M1980.17,533.9c55.86-6,66.78-168.26.33-148.5,0,0-9.32-8.62-13.92-8.7a13,13,0,0,1,5.11,5c-7.18-2.27-18.31-5.95-27.08,1.09C1854.75,454.92,1958.52,536.22,1980.17,533.9Z"></path><path class="cls-1" d="M1917.14,548.8c-.22.06,18.37,13.89,34.33,12.19,15-1.59,27.4-18.69,27.21-18.76-5.89-2.2-6.29-10.84-.33-46.75l-2.84.1-47.73,1.66s-1.31,14.72-3.5,28.44C1922.45,537.19,1920,548,1917.14,548.8Z"></path><path class="cls-24" d="M1912.85,574.31l-47.6,188.07c-1.82,2.83-17,8.83-33.74,14.45a118,118,0,0,1-4-11.81,170.59,170.59,0,0,1-5.46-25.5c11.1-6.76,20.47-13.06,23.06-16.81,4.68-7,16.31-71,25.79-117.87,21.33-21,41.47-31.24,41.47-31.24Z"></path><path class="cls-17" d="M1927.78,497.24s-1.31,14.72-3.5,28.44c26,3.46,43.5-17.93,51.23-30.1Z"></path><path class="cls-25" d="M1981.1,491.32s17-19.23,23.26-37c4.45-12.71,5.64-62.28-44.21-63.19A67.06,67.06,0,0,0,1931,397c-11.74,5.43-29.5,18.38-19.29,63.45l2.12,15Z"></path><path class="cls-1" d="M1917,508.82s61.06,10.93,67.29-27.2,18.3-62.4-20.42-71-48.7,4.72-53.87,16.94S1901.31,505,1917,508.82Z"></path><path class="cls-23" d="M1936.16,405.17s9.51,47.47,34.17,58.25,36.93,5.7,36.93,5.7-17.2-18.87-16.85-46.9C1990.41,422.22,1952.26,385.93,1936.16,405.17Z"></path><path class="cls-23" d="M1939.73,409.48s-14.14,8-18.77,17.18-9.24,29-15,27.36c0,0-7.7-32.46,9.28-47.36C1933.3,390.86,1939.73,409.48,1939.73,409.48Z"></path><path class="cls-20" d="M2028.18,885.28c-4.85,8.71-15.4,9.4-28.65,5.58a140.15,140.15,0,0,1-20.6-8,19.27,19.27,0,0,0-2.12-1.08c-21.46-10.47-45.4-26.24-64.11-38.24-39.21-25.14-41.81-11.06-53.43-24.94,0,0,28.82-16-9.77-158.69-11.23-41.53,72.41-121.55,72.41-121.55s.47,26,56.74,3.88c2-.72,17.38,32.44,30.81,72.48q3.3,9.62,6.23,19.48c9.36,31,16.31,63.45,14.43,86a55.24,55.24,0,0,1-2.83,14.25l-.5,1.17C2007.48,782,2042.05,860.2,2028.18,885.28Z"></path><path class="cls-24" d="M2028.18,885.28c-4.85,8.71-15.4,9.4-28.65,5.58a140.15,140.15,0,0,1-20.6-8c-25.77-16.7-53.37-43.39-68.86-86.17-34.8-96.08,99-165.65,99-165.65l6.58,3.16c9.36,31,16.31,63.45,14.43,86a55.24,55.24,0,0,1-2.83,14.25l-.5,1.17C2007.48,782,2042.05,860.2,2028.18,885.28Z"></path><path class="cls-1" d="M1923.66,758.6s-18.15-7.54-27.36-5.42-27.94,8.27-27.12,13.33,20.88,10.94,30.3,7.54,14.83,3.72,26,1.91S1923.66,758.6,1923.66,758.6Z"></path><path class="cls-20" d="M1978.68,542.23s57.16,9.7,64.28,24.76,2.39,172.94-2,189.6-96.77,24.52-124.42,23.51c0,0-4.35-18.74.82-29.2s73.5-21.77,79.11-29.55-11.21-103.74-9-122.51S1978.68,542.23,1978.68,542.23Z"></path><path class="cls-5" d="M2095.31,873.24v114.1c0,20-5.66,36.26-12.66,36.26H1859.21c-7,0-12.66-16.22-12.66-36.26V873.24c0-20,17.81-39.9,79-36.27h157.15C2089.65,837,2095.31,853.19,2095.31,873.24Z"></path><path class="cls-6" d="M2124.91,873.24v114.1c0,20-5.66,36.26-12.66,36.26H1888.81c-7,0-12.66-16.22-12.66-36.26V873.24c0-20,19.1-38,64.15-36.27l159.6-1.06C2125,835.91,2124.91,853.19,2124.91,873.24Z"></path><path class="cls-11" d="M2360,923.7H2069.44a12.6,12.6,0,0,0-12.56,12.56v4.5a12.61,12.61,0,0,0,12.56,12.57h134l7.51,230c-37.05,1.17-67.66,19.53-75.72,43.89h159c-8-24.17-38.19-42.42-74.84-43.85l6.66-230h134a12.6,12.6,0,0,0,12.56-12.57v-4.5A12.59,12.59,0,0,0,2360,923.7Z"></path><path class="cls-10" d="M2196.44,899.53c-1.85-1.14-5.45-.69-8.06-.15v-3.77a20.09,20.09,0,0,0-.16-2.47h-39.13a20.09,20.09,0,0,0-.16,2.47v7.68a19.7,19.7,0,0,0,34.52,13h0s9.31-2.29,12.24-5.76S2199.54,901.45,2196.44,899.53Zm-2.07,7.1c-1,2.56-5.42,3.93-7.61,4.46a19.55,19.55,0,0,0,1.57-6.49c1.35-1.85,3.49-2.93,5.05-2.65C2194.78,902.21,2195.62,903.4,2194.37,906.63Z"></path><path class="cls-26" d="M2152.14,895.61v7.68A19.78,19.78,0,0,0,2171.86,923a18,18,0,0,0,2.65-.19,19.78,19.78,0,0,1-17.07-19.53v-7.68a20.09,20.09,0,0,1,.16-2.47h-5.3A18.3,18.3,0,0,0,2152.14,895.61Z"></path><rect class="cls-10" x="2160.59" y="921.29" width="16.1" height="2.41"></rect><path class="cls-10" d="M2300.05,899.53c-1.85-1.14-5.45-.69-8.06-.15v-3.77a20.09,20.09,0,0,0-.16-2.47h-39.12a18.3,18.3,0,0,0-.17,2.47v7.68a19.69,19.69,0,0,0,34.51,13h0s9.31-2.29,12.23-5.76S2303.15,901.45,2300.05,899.53Zm-2.07,7.1c-1,2.56-5.42,3.93-7.61,4.46a19.55,19.55,0,0,0,1.57-6.49c1.35-1.85,3.49-2.93,5-2.65C2298.39,902.21,2299.23,903.4,2298,906.63Z"></path><path class="cls-26" d="M2255.75,895.61v7.68A19.78,19.78,0,0,0,2275.47,923a18,18,0,0,0,2.65-.19,19.78,19.78,0,0,1-17.07-19.53v-7.68a20.09,20.09,0,0,1,.16-2.47h-5.3A18.3,18.3,0,0,0,2255.75,895.61Z"></path><rect class="cls-10" x="2264.2" y="921.29" width="16.1" height="2.41"></rect><path class="cls-27" d="M95.94,1227.08H2412.59a2.35,2.35,0,0,1,2.35,2.35v.51a2.35,2.35,0,0,1-2.35,2.35H95.94a2.35,2.35,0,0,1-2.35-2.35v-.51A2.34,2.34,0,0,1,95.94,1227.08Z"></path><g id="Lines"><g id="Lines-2" data-name="Lines"><path class="cls-28" d="M1947.05,326.09c-6.3.5-11.5-3.87-13.28-9.8-2.09-6.94,1.83-11.74,7.34-15.22,4.77-3,12.16-5.22,14.86-10.61,6.16-12.3-14.12-18.25-21.32-22.12-11.29-6.06-16.47-19-10.74-30.91,4-8.37,13.68-13.15,21.42-17.47,15.41-8.6,30.47-17.63,36.18-35.38,11.53-35.88-28.27-71.8-62.74-57.75-32.64,13.3-44.8,62.15-20.9,88.61,24.27,26.89,76.26,12,90.45-18.71,7.84-16.95,4.18-38.57-4.94-54.3a58.14,58.14,0,0,0-41.11-28.17,56.26,56.26,0,0,0-49.48,16.09c-13.94,14.25-17.54,32.51-17.86,51.8-.3,18.59,6.56,34.21,22,45,15.72,11,35.57,15.41,54.35,11.06,18.16-4.22,35.39-18.08,43.75-34.79,7.4-14.8,8.29-32.63,5.17-48.68-6.37-32.76-36.51-53.77-69.07-53.09-40.34.85-70.7,47.19-67.56,84.82,3.28,39.4,39.76,63.72,77.48,61.15,17.13-1.16,34.21-7.53,46.76-19.47,13.59-12.92,20.92-31.59,22.66-50,3.33-35.18-13.37-67.91-44.78-84.38-38.29-20.06-83.83-15.13-123.57-2.29s-76.91,34.1-111.61,56.94c-20.41,13.42-39.75,28.34-60.43,41.36a542,542,0,0,1-59.69,32.68c-36.81,17.16-75,29-115.76,31.19-38.36,2.08-78-2.87-112.75-20a158.48,158.48,0,0,1-44-31.9c-6.84-7.09-13.57-15-18.54-23.52-5.27-9-8.41-23-3.51-32.84,4.81-9.67,17.42-11.52,26.77-8.23,11.45,4,18.92,14.87,25.58,24.38.11.16.41.27.51,0C1375.18,146.12,1385,126,1405,128c23.9,2.4,19.24,34.66,12.17,49.71-9.7,20.65-26.92,37.47-44.86,51.07-26.13,19.8-56.34,34-87.21,44.66-37.05,12.82-75.84,20.65-115.16,20-68.19-1.19-130.44-29.06-192.53-54.25-34.82-14.13-72-30.25-110.25-30.47-31.41-.19-63.5,12.92-76.91,43.06-10.88,24.48-2.77,52.64,22.15,64.29,10.67,5,23.48,6,34.11.33,13.53-7.21,23.77-23.26,30.09-36.78,5.6-12,8.07-26.72-1.33-37.5-7.64-8.76-19.9-10.24-30.83-8.9-14.38,1.76-28.32,7.94-40.08,16.28-11.55,8.2-23.63,20-25.83,34.71-4.47,29.7,31.32,38.47,53.56,32.66,27.71-7.23,49.2-32.84,43.42-62.31-2.47-12.64-9.87-24.06-21.22-30.42-12.76-7.14-28.16-7.11-42-3.67-29,7.2-58.41,29.65-67,59.15-7.34,25.1,3.69,56,30,64.24,15.11,4.74,32.33,2.85,47.49-.82a122.89,122.89,0,0,0,40.6-17.87c22.94-15.72,40.7-42.13,36.86-71-1.64-12.39-7.39-24.79-17.93-32-11.87-8.13-27-7.59-40-2.56-29.41,11.4-50.77,44.27-48.14,75.87,2.18,26.18,22.51,52,49.78,54.25,25.78,2.17,53.82-17.88,51.26-45.59-2.14-23.18-25.78-45.77-49.61-35.18-21.33,9.47-32,42-9.87,56.75,20.61,13.73,37.18-10.84,32.87-30-6.31-28.07-43.78-25.47-63.23-14.6-9.78,5.47-23,17.06-15.26,29.23,6.59,10.39,18,5,21.63-4.8,7.26-19.47-14-43.83-33.63-31.49-9.06,5.69-14.8,17.49-12.4,28.1,2.06,9.12,10.13,13.2,18.94,9.92,9.13-3.4,14.08-13.37,8.61-22-5.2-8.25-17.38-11.94-26-7-10,5.8-12.31,19.91-7.51,29.78,5.25,10.79,18.33,15.55,29.72,14,25.11-3.48,36.29-35.46,24.5-56.17-13.38-23.53-46.88-28.1-68.15-13.1-24.51,17.29-27.18,49.88-8.15,72.26,19.45,22.86,51.08,26.16,76.49,11.35,23.62-13.76,43-43,36-71.17C842.74,240,806.49,241.08,786,257.09c-23.6,18.45-26.91,53.69-7.4,76.46,11.37,13.27,32.07,19.26,37.31,37.34,2.73,9.42-.2,17.75-8.71,22.73-4.72,2.77-10.8,4.59-14.39,8.93-5.47,6.61.06,13.13,6.52,15.59C806,420.69,816,421.31,819,428.9s-2.18,16.71-10.12,17.75c-.72.1,0,1.15.56,1.07,6.5-.85,10.89-6.45,11.45-12.85.59-6.62-3.13-11.1-8.95-13.65-6.92-3-28.18-6.87-17.75-18.35,5.75-6.33,15.79-7,20.89-14.25,12.11-17.2-9-34.56-21.07-43.17-10.34-7.34-18.95-15.54-23.6-27.61a53,53,0,0,1-.66-36.67c8.31-23,35.77-40.46,60.16-32.84s23.59,39.41,14.51,58.31c-10.22,21.27-30.88,38.27-54.43,42-24.59,3.92-49.28-9.53-59.77-32.11-10.61-22.83-.74-49.15,21.07-61.12,20.2-11.08,49.19-5.69,61.39,14.8,10.7,18,3.52,46-16.85,53.76-12.44,4.74-29.73,1.1-35.52-12-4.72-10.69-.84-26.36,11.57-29.58,11.72-3,28.08,8.37,21.11,21.31-6,11.13-23.81,11.7-26.5-2.12-4.49-23,26.28-41.52,40.8-19.82,5.69,8.5,7,20.88,0,29.07-7.46,8.68-19.75,1.67-18.48-9.34.83-7.14,6.82-12.7,12.4-16.55,17.4-12,51.6-18.54,64,4.15,8,14.62-.32,43.17-20.85,39.25-14.05-2.68-22-17.46-19.69-30.86a38.28,38.28,0,0,1,15.48-24.16c20.68-14.76,46,.53,52.54,22.64,6.85,23-8.9,44.21-30.69,50.79-23.65,7.14-47.35-5.14-59.16-26.08-12.9-22.88-9-50.51,5.44-71.72,13.21-19.46,39-38,63.72-30.7,25.49,7.51,31.75,38.2,25.3,60.88-12.17,42.83-61.9,66.82-103.71,66.43-13.31-.12-26.61-3.61-36.05-13.48-8.44-8.81-12.91-21-13.59-33.05-1.36-24,13.16-45,31.45-59.14,18.44-14.21,44-25,67.53-19.29,25.2,6.12,37.74,33,30.89,57.15-6.36,22.43-28.77,37.44-51.21,39.93-11.74,1.3-25-.93-34.2-8.87-10.68-9.24-11.48-23.89-5-35.76C794.06,253.6,817,240,838.16,235.25c10.12-2.24,22-2.91,31.18,2.75,12.76,7.87,13.4,23.55,8.58,36.31-4.28,11.32-11.64,22.38-19.75,31.36s-18.41,14.49-30.7,13.59C804.56,317.58,786,297.35,786,274.52c.09-23.73,16.56-45.32,37.27-55.61,23.51-11.69,51.06-11,76.13-5.47,49.06,10.89,94.7,34.38,141.47,52.16,40.88,15.54,83.22,27.53,127.22,28.61,50.1,1.24,100.14-11.12,145.89-31,33.83-14.74,67.68-35,90.82-64.37,9.22-11.71,17.1-25.35,18.71-40.41,1.67-15.66-6.08-33.73-24.51-31.07-9.71,1.4-17,7.89-22.2,15.92a91.23,91.23,0,0,0-6.43,12.37c-1.37,3.1-1.51,4.73-4.2,2.12-2.39-2.32-4.13-5.67-6.32-8.23-9.78-11.45-32-23.26-43.43-6.68-10,14.41.49,34.25,9.51,46a155.9,155.9,0,0,0,42.07,38c35.66,22,78.45,29.24,119.81,27.93,44.74-1.43,86.5-14.18,126.73-33.37a551.92,551.92,0,0,0,65.53-37.12c23.78-15.64,46.33-32.94,70.67-47.78,40.33-24.59,83.53-46.07,130.62-53.45,46.47-7.27,105.18,5.78,123.44,54.68,8.72,23.34,7.22,51.21-4.77,73.14-11.52,21.08-32.79,33.44-56.41,35.88-23.26,2.4-47.67-5.06-63.62-22.63-20.1-22.12-20.25-55.09-6.47-80.47,12.87-23.71,36-43.3,64.2-41,20.43,1.63,37.9,10,50.29,26.39,14.13,18.77,17.09,45.94,9.15,67.9-9,24.72-34.6,42.18-60.61,42.45-25.84.27-55.15-16.35-60.17-43.19-4.69-25.06,1.82-54.34,22.55-70.49,19.34-15,47-15,67-1.34,22.74,15.43,34.6,51.83,19.64,76.32-13.09,21.41-44.19,32.84-68.21,26.26-27.68-7.59-36.51-39.95-28.63-65,7.81-24.77,32-43.27,58.45-36.06,28.92,7.88,45.17,43.1,28.84,69.16-11.39,18.17-33.82,21.61-48.2,36.08-10.75,10.82-8.12,28.88,4.72,36.72,7.19,4.4,26.08,8.5,23.76,20.18-1.62,8.11-14.11,10.54-19.52,15.52-8.89,8.18-1.68,24.09,10.29,23.15.25,0,.17-.59-.1-.57Z"></path></g><path class="cls-28" d="M767,289a23.48,23.48,0,0,1-6.93,13.9,27,27,0,0,1-12.66,6.17,47.37,47.37,0,0,1-16.62.63,28.7,28.7,0,0,1-9.09-2.73,20.34,20.34,0,0,1-7.43-6.57c-3.78-5.47-5.56-12.36-6.56-18.85a70,70,0,0,1,14.21-53.62A74,74,0,0,1,747.41,208c9.48-4.49,20.42-6.94,30.82-4.55,11.34,2.61,20.35,11.08,24.87,21.66,2.41,5.62,3.4,11.75,1.81,17.73a37.88,37.88,0,0,1-7.82,14.39A54.48,54.48,0,0,1,784,268.51a46.55,46.55,0,0,1-15.39,6.3,29,29,0,0,1-17.07-1.62,21.26,21.26,0,0,1-7.54-5.42,21.68,21.68,0,0,1-4.43-8.47c-1.7-6.13-1.29-12.7,0-18.87a60.19,60.19,0,0,1,6.65-17.61,59.53,59.53,0,0,1,28-25.29,60.27,60.27,0,0,1,38.45-3.23,62.33,62.33,0,0,1,28.82,16.63c7.69,7.9,13.35,18.92,11.69,30.22a30.42,30.42,0,0,1-7.86,16,32.41,32.41,0,0,1-16,9.4A39.67,39.67,0,0,1,809,266a36,36,0,0,1-16.16-9.3c-4.16-4.32-6.88-10.07-6.24-16.17a21.91,21.91,0,0,1,8.85-14.89c10.63-7.93,26-5.09,35.91,2.67,8.63,6.78,14.24,17.73,13.37,28.82a30.82,30.82,0,0,1-6.42,16.22c-.34.45.47,1,.78.6a31.36,31.36,0,0,0,6.63-17,32.64,32.64,0,0,0-3.45-16.5,36.7,36.7,0,0,0-28.32-20.13c-6.59-.76-13.51.51-18.94,4.47a22.78,22.78,0,0,0-9.3,14.92c-1.82,13.09,10.27,22.92,21.46,26.59,12.78,4.19,27.69,2.36,37.62-7.21a31.7,31.7,0,0,0,9-15.71,31,31,0,0,0-1.38-17.22c-4-10.92-12.78-19.58-22.58-25.48a60.56,60.56,0,0,0-91.11,38.88c-1.38,6.37-1.85,13.18-.15,19.54a23,23,0,0,0,4.29,8.59,21.93,21.93,0,0,0,7.21,5.68c10.84,5.42,23.41,2.42,33.4-3.42a55.49,55.49,0,0,0,13.81-11.35A39.68,39.68,0,0,0,805.67,244a24.49,24.49,0,0,0,1-8.63,31.78,31.78,0,0,0-2.2-9.31,39.89,39.89,0,0,0-10.76-15.47,35.67,35.67,0,0,0-14.29-7.65,40.56,40.56,0,0,0-15.9-.78c-11.14,1.54-21.63,6.81-30.45,13.65a68.15,68.15,0,0,0-21.22,27,70.7,70.7,0,0,0-4.65,40.34c1.2,6.52,3.2,13.46,7.4,18.73s10.38,7.75,16.89,8.54a47.76,47.76,0,0,0,16.85-.9,26.19,26.19,0,0,0,12.54-6.65,23.33,23.33,0,0,0,6.29-13.81c0-.17-.18-.28-.21-.07Z"></path></g><path class="cls-29" d="M1897.31,441.18a8.42,8.42,0,0,0,1.59,4.25,3.91,3.91,0,0,1,.65,1.53c.52,2.83.81,8.11,2,11.19s3.63,8.05,11.27,9.16a16.7,16.7,0,0,0,4,.15l.3,0a11,11,0,0,0,3.3-.88l.19-.1.29-.14.36-.2.33-.2.37-.25a4,4,0,0,0,.35-.26c.23-.17.44-.36.66-.55a13.83,13.83,0,0,0,2.8-3.82c1.89-3.6,1.73-9,4.53-9.25a1.79,1.79,0,0,1,.33,0l.36,0c3.76.51,3,6.26,4.94,10.66s5.16,8.87,13.32,10l1,.12a8.4,8.4,0,0,0,.85.05,12.85,12.85,0,0,0,2,0l.63-.07c.2,0,.4-.06.6-.09l.37-.08a10.6,10.6,0,0,0,2.27-.77c.27-.13.52-.27.77-.41a9.71,9.71,0,0,0,1.34-1,11.93,11.93,0,0,0,2.67-3.54c1.42-2.72,2-7.89,2.79-10.52a4.49,4.49,0,0,1,.71-1.49c.57-.72,1.9-1.93,2-3.67a3.66,3.66,0,0,0-2.1-3.69c-.63-.17-1.3-.35-2-.51-6.41-1.58-14.8-2.95-19.89-2.2-6.4,1-8.69,2.72-12.2,2.24-3.29-.48-5.31-2.85-11.18-5.54-4.68-2.13-12.54-3-18.57-3.23l-1.87,0C1898.45,438,1897.28,439.43,1897.31,441.18Zm41.27,9a4.81,4.81,0,0,1,1.87-1.25,2.52,2.52,0,0,1,.33-.14l.18-.07c.29-.12.59-.22.91-.32l.84-.23a21.84,21.84,0,0,1,2.74-.52c.35-.05.72-.09,1.08-.12a23.58,23.58,0,0,1,2.79-.1c.23,0,.45,0,.65,0,6.1.24,9.81,2.14,11.12,3.56s.43,7-.3,9.81l-.06.2a1.74,1.74,0,0,1,0,.22c-.09.34-.19.72-.32,1.12-.07.22-.15.46-.24.69,0,0,0,0,0,0a10.73,10.73,0,0,1-.47,1.15h0c-.05.13-.12.26-.18.39l-.12.23-.14.26-.19.32c-.07.12-.14.24-.22.35a3.18,3.18,0,0,1-.27.37,4.61,4.61,0,0,1-.28.38c-1.62,2-4.27,3.53-8.7,3a12.64,12.64,0,0,1-8.78-4.52h0a13.75,13.75,0,0,1-2.64-6.13C1937.54,455.59,1937.3,451.81,1938.58,450.22ZM1903,442.87a4.72,4.72,0,0,1,1.53-.76l.12,0a5.92,5.92,0,0,1,.67-.18l.41-.08.34-.05a1.66,1.66,0,0,1,.22,0h.09l.33,0q.66-.06,1.41-.06c.25,0,.5,0,.76,0l.46,0,.36,0c.31,0,.63.06,1,.11l.36.05.33,0a26.8,26.8,0,0,1,2.79.61c4.29,1.15,8.71,3.72,9.79,5.65s.63,5.61-.1,8.72a13.81,13.81,0,0,1-.66,2.06l-.06.16-.09.21-.06.13-.12.25-.26.49-.25.43-.1.14c-.06.09-.12.19-.19.28l-.18.25s0,0,0,0c-1.62,2.14-4.41,3.8-9.22,3a11.19,11.19,0,0,1-4.49-1.65c-4.18-2.72-5-7.71-5.43-10C1902.23,449.71,1901.68,444,1903,442.87Z"></path><path class="cls-29" d="M1965.11,448.82l17.6,6.34a17.29,17.29,0,0,0-3.21,3.89l-14.63-4.71Z"></path></g></svg>